<?xml version="1.0" encoding="UTF-8" standalone="no"?>
<!-- Created with Inkscape (http://www.inkscape.org/) -->

<svg
   version="1.1"
   id="svg1"
   width="407.76001"
   height="522.88"
   viewBox="0 0 407.75999 522.88"
   xmlns="http://www.w3.org/2000/svg"
   xmlns:svg="http://www.w3.org/2000/svg">
  <defs
     id="defs1">
    <clipPath
       clipPathUnits="userSpaceOnUse"
       id="clipPath70">
      <path
         d="M 9,32 H 9888 V 14012 H 9 V 32"
         transform="translate(-4.1666666e-5,4.1666667e-4)"
         id="path70" />
    </clipPath>
    <clipPath
       clipPathUnits="userSpaceOnUse"
       id="clipPath72">
      <path
         d="M 9,32 H 9888 V 14012 H 9 V 32"
         transform="translate(-4.1666666e-5,4.1666667e-4)"
         id="path72" />
    </clipPath>
    <clipPath
       clipPathUnits="userSpaceOnUse"
       id="clipPath74">
      <path
         d="M 9,32 H 9888 V 14012 H 9 V 32"
         transform="translate(-4.1666666e-5,4.1666667e-4)"
         id="path74" />
    </clipPath>
    <clipPath
       clipPathUnits="userSpaceOnUse"
       id="clipPath76">
      <path
         d="M 9,32 H 9888 V 14012 H 9 V 32"
         transform="translate(-4.1666666e-5,4.1666667e-4)"
         id="path76" />
    </clipPath>
    <clipPath
       clipPathUnits="userSpaceOnUse"
       id="clipPath78">
      <path
         d="M 9,32 H 9888 V 14012 H 9 V 32"
         transform="translate(-4.1666666e-5,4.1666667e-4)"
         id="path78" />
    </clipPath>
    <clipPath
       clipPathUnits="userSpaceOnUse"
       id="clipPath80">
      <path
         d="M 9,32 H 9888 V 14012 H 9 V 32"
         transform="translate(-4.1666666e-5,4.1666667e-4)"
         id="path80" />
    </clipPath>
    <clipPath
       clipPathUnits="userSpaceOnUse"
       id="clipPath82">
      <path
         d="M 9,32 H 9888 V 14012 H 9 V 32"
         transform="translate(-4.1666666e-5,4.1666667e-4)"
         id="path82" />
    </clipPath>
    <clipPath
       clipPathUnits="userSpaceOnUse"
       id="clipPath84">
      <path
         d="M 9,32 H 9888 V 14012 H 9 V 32"
         transform="translate(-4.1666666e-5,4.1666667e-4)"
         id="path84" />
    </clipPath>
    <clipPath
       clipPathUnits="userSpaceOnUse"
       id="clipPath86">
      <path
         d="M 9,32 H 9888 V 14012 H 9 V 32"
         transform="translate(-4.1666666e-5,4.1666667e-4)"
         id="path86" />
    </clipPath>
    <clipPath
       clipPathUnits="userSpaceOnUse"
       id="clipPath88">
      <path
         d="M 9,32 H 9888 V 14012 H 9 V 32"
         transform="translate(-4.1666666e-5,4.1666667e-4)"
         id="path88" />
    </clipPath>
    <clipPath
       clipPathUnits="userSpaceOnUse"
       id="clipPath90">
      <path
         d="M 9,32 H 9888 V 14012 H 9 V 32"
         transform="translate(-4.1666666e-5,4.1666667e-4)"
         id="path90" />
    </clipPath>
    <clipPath
       clipPathUnits="userSpaceOnUse"
       id="clipPath92">
      <path
         d="M 9,32 H 9888 V 14012 H 9 V 32"
         transform="translate(-4.1666666e-5,4.1666667e-4)"
         id="path92" />
    </clipPath>
    <clipPath
       clipPathUnits="userSpaceOnUse"
       id="clipPath94">
      <path
         d="M 9,32 H 9888 V 14012 H 9 V 32"
         transform="translate(-4.1666666e-5,4.1666667e-4)"
         id="path94" />
    </clipPath>
    <clipPath
       clipPathUnits="userSpaceOnUse"
       id="clipPath96">
      <path
         d="M 9,32 H 9888 V 14012 H 9 V 32"
         transform="translate(-4.1666666e-5,4.1666667e-4)"
         id="path96" />
    </clipPath>
    <clipPath
       clipPathUnits="userSpaceOnUse"
       id="clipPath98">
      <path
         d="M 9,32 H 9888 V 14012 H 9 V 32"
         transform="translate(-4.1666666e-5,4.1666667e-4)"
         id="path98" />
    </clipPath>
    <clipPath
       clipPathUnits="userSpaceOnUse"
       id="clipPath100">
      <path
         d="M 9,32 H 9888 V 14012 H 9 V 32"
         transform="translate(-4.1666666e-5,4.1666667e-4)"
         id="path100" />
    </clipPath>
    <clipPath
       clipPathUnits="userSpaceOnUse"
       id="clipPath102">
      <path
         d="M 9,32 H 9888 V 14012 H 9 V 32"
         transform="translate(-4.1666666e-5,4.1666667e-4)"
         id="path102" />
    </clipPath>
    <clipPath
       clipPathUnits="userSpaceOnUse"
       id="clipPath104">
      <path
         d="M 9,32 H 9888 V 14012 H 9 V 32"
         transform="translate(-4.1666666e-5,4.1666667e-4)"
         id="path104" />
    </clipPath>
    <clipPath
       clipPathUnits="userSpaceOnUse"
       id="clipPath106">
      <path
         d="M 9,32 H 9888 V 14012 H 9 V 32"
         transform="translate(-4.1666666e-5,4.1666667e-4)"
         id="path106" />
    </clipPath>
    <clipPath
       clipPathUnits="userSpaceOnUse"
       id="clipPath108">
      <path
         d="M 9,32 H 9888 V 14012 H 9 V 32"
         transform="translate(-4.1666666e-5,4.1666667e-4)"
         id="path108" />
    </clipPath>
    <clipPath
       clipPathUnits="userSpaceOnUse"
       id="clipPath110">
      <path
         d="M 9,32 H 9888 V 14012 H 9 V 32"
         transform="translate(-4.1666666e-5,4.1666667e-4)"
         id="path110" />
    </clipPath>
    <clipPath
       clipPathUnits="userSpaceOnUse"
       id="clipPath112">
      <path
         d="M 9,32 H 9888 V 14012 H 9 V 32"
         transform="translate(-4.1666666e-5,4.1666667e-4)"
         id="path112" />
    </clipPath>
    <clipPath
       clipPathUnits="userSpaceOnUse"
       id="clipPath114">
      <path
         d="M 9,32 H 9888 V 14012 H 9 V 32"
         transform="translate(-4.1666666e-5,4.1666667e-4)"
         id="path114" />
    </clipPath>
    <clipPath
       clipPathUnits="userSpaceOnUse"
       id="clipPath116">
      <path
         d="M 9,32 H 9888 V 14012 H 9 V 32"
         transform="translate(-4.1666666e-5,4.1666667e-4)"
         id="path116" />
    </clipPath>
    <clipPath
       clipPathUnits="userSpaceOnUse"
       id="clipPath118">
      <path
         d="M 9,32 H 9888 V 14012 H 9 V 32"
         transform="translate(-4.1666666e-5,4.1666667e-4)"
         id="path118" />
    </clipPath>
    <clipPath
       clipPathUnits="userSpaceOnUse"
       id="clipPath120">
      <path
         d="M 9,32 H 9888 V 14012 H 9 V 32"
         transform="translate(-4.1666666e-5,4.1666667e-4)"
         id="path120" />
    </clipPath>
    <clipPath
       clipPathUnits="userSpaceOnUse"
       id="clipPath122">
      <path
         d="M 9,32 H 9888 V 14012 H 9 V 32"
         transform="translate(-4.1666666e-5,4.1666667e-4)"
         id="path122" />
    </clipPath>
    <clipPath
       clipPathUnits="userSpaceOnUse"
       id="clipPath124">
      <path
         d="M 9,32 H 9888 V 14012 H 9 V 32"
         transform="translate(-4.1666666e-5,4.1666667e-4)"
         id="path124" />
    </clipPath>
    <clipPath
       clipPathUnits="userSpaceOnUse"
       id="clipPath126">
      <path
         d="M 9,32 H 9888 V 14012 H 9 V 32"
         transform="translate(-4.1666666e-5,4.1666667e-4)"
         id="path126" />
    </clipPath>
    <clipPath
       clipPathUnits="userSpaceOnUse"
       id="clipPath128">
      <path
         d="M 9,32 H 9888 V 14012 H 9 V 32"
         transform="translate(-4.1666666e-5,4.1666667e-4)"
         id="path128" />
    </clipPath>
    <clipPath
       clipPathUnits="userSpaceOnUse"
       id="clipPath130">
      <path
         d="M 9,32 H 9888 V 14012 H 9 V 32"
         transform="translate(-4.1666666e-5,4.1666667e-4)"
         id="path130" />
    </clipPath>
    <clipPath
       clipPathUnits="userSpaceOnUse"
       id="clipPath132">
      <path
         d="M 9,32 H 9888 V 14012 H 9 V 32"
         transform="translate(-4.1666666e-5,4.1666667e-4)"
         id="path132" />
    </clipPath>
    <clipPath
       clipPathUnits="userSpaceOnUse"
       id="clipPath134">
      <path
         d="M 9,32 H 9888 V 14012 H 9 V 32"
         transform="translate(-4.1666666e-5,4.1666667e-4)"
         id="path134" />
    </clipPath>
    <clipPath
       clipPathUnits="userSpaceOnUse"
       id="clipPath136">
      <path
         d="M 9,32 H 9888 V 14012 H 9 V 32"
         transform="translate(-4.1666666e-5,4.1666667e-4)"
         id="path136" />
    </clipPath>
    <clipPath
       clipPathUnits="userSpaceOnUse"
       id="clipPath138">
      <path
         d="M 9,32 H 9888 V 14012 H 9 V 32"
         transform="translate(-4.1666666e-5,4.1666667e-4)"
         id="path138" />
    </clipPath>
    <clipPath
       clipPathUnits="userSpaceOnUse"
       id="clipPath140">
      <path
         d="M 9,32 H 9888 V 14012 H 9 V 32"
         transform="translate(-4.1666666e-5,4.1666667e-4)"
         id="path140" />
    </clipPath>
    <clipPath
       clipPathUnits="userSpaceOnUse"
       id="clipPath142">
      <path
         d="M 9,32 H 9888 V 14012 H 9 V 32"
         transform="translate(-4.1666666e-5,4.1666667e-4)"
         id="path142" />
    </clipPath>
    <clipPath
       clipPathUnits="userSpaceOnUse"
       id="clipPath144">
      <path
         d="M 9,32 H 9888 V 14012 H 9 V 32"
         transform="translate(-4.1666666e-5,4.1666667e-4)"
         id="path144" />
    </clipPath>
    <clipPath
       clipPathUnits="userSpaceOnUse"
       id="clipPath146">
      <path
         d="M 9,32 H 9888 V 14012 H 9 V 32"
         transform="translate(-4.1666666e-5,4.1666667e-4)"
         id="path146" />
    </clipPath>
    <clipPath
       clipPathUnits="userSpaceOnUse"
       id="clipPath148">
      <path
         d="M 9,32 H 9888 V 14012 H 9 V 32"
         transform="translate(-4.1666666e-5,4.1666667e-4)"
         id="path148" />
    </clipPath>
    <clipPath
       clipPathUnits="userSpaceOnUse"
       id="clipPath150">
      <path
         d="M 9,32 H 9888 V 14012 H 9 V 32"
         transform="translate(-4.1666666e-5,4.1666667e-4)"
         id="path150" />
    </clipPath>
    <clipPath
       clipPathUnits="userSpaceOnUse"
       id="clipPath152">
      <path
         d="M 9,32 H 9888 V 14012 H 9 V 32"
         transform="translate(-4.1666666e-5,4.1666667e-4)"
         id="path152" />
    </clipPath>
    <clipPath
       clipPathUnits="userSpaceOnUse"
       id="clipPath154">
      <path
         d="M 9,32 H 9888 V 14012 H 9 V 32"
         transform="translate(-4.1666666e-5,4.1666667e-4)"
         id="path154" />
    </clipPath>
    <clipPath
       clipPathUnits="userSpaceOnUse"
       id="clipPath156">
      <path
         d="M 9,32 H 9888 V 14012 H 9 V 32"
         transform="translate(-4.1666666e-5,4.1666667e-4)"
         id="path156" />
    </clipPath>
    <clipPath
       clipPathUnits="userSpaceOnUse"
       id="clipPath158">
      <path
         d="M 9,32 H 9888 V 14012 H 9 V 32"
         transform="translate(-4.1666666e-5,4.1666667e-4)"
         id="path158" />
    </clipPath>
    <clipPath
       clipPathUnits="userSpaceOnUse"
       id="clipPath160">
      <path
         d="M 9,32 H 9888 V 14012 H 9 V 32"
         transform="translate(-4.1666666e-5,4.1666667e-4)"
         id="path160" />
    </clipPath>
    <clipPath
       clipPathUnits="userSpaceOnUse"
       id="clipPath162">
      <path
         d="M 9,32 H 9888 V 14012 H 9 V 32"
         transform="translate(-4.1666666e-5,4.1666667e-4)"
         id="path162" />
    </clipPath>
    <clipPath
       clipPathUnits="userSpaceOnUse"
       id="clipPath164">
      <path
         d="M 9,32 H 9888 V 14012 H 9 V 32"
         transform="translate(-4.1666666e-5,4.1666667e-4)"
         id="path164" />
    </clipPath>
    <clipPath
       clipPathUnits="userSpaceOnUse"
       id="clipPath166">
      <path
         d="M 9,32 H 9888 V 14012 H 9 V 32"
         transform="translate(-4.1666666e-5,4.1666667e-4)"
         id="path166" />
    </clipPath>
    <clipPath
       clipPathUnits="userSpaceOnUse"
       id="clipPath168">
      <path
         d="M 9,32 H 9888 V 14012 H 9 V 32"
         transform="translate(-4.1666666e-5,4.1666667e-4)"
         id="path168" />
    </clipPath>
    <clipPath
       clipPathUnits="userSpaceOnUse"
       id="clipPath170">
      <path
         d="M 9,32 H 9888 V 14012 H 9 V 32"
         transform="translate(-4.1666666e-5,4.1666667e-4)"
         id="path170" />
    </clipPath>
    <clipPath
       clipPathUnits="userSpaceOnUse"
       id="clipPath172">
      <path
         d="M 9,32 H 9888 V 14012 H 9 V 32"
         transform="translate(-4.1666666e-5,4.1666667e-4)"
         id="path172" />
    </clipPath>
    <clipPath
       clipPathUnits="userSpaceOnUse"
       id="clipPath174">
      <path
         d="M 9,32 H 9888 V 14012 H 9 V 32"
         transform="translate(-4.1666666e-5,4.1666667e-4)"
         id="path174" />
    </clipPath>
    <clipPath
       clipPathUnits="userSpaceOnUse"
       id="clipPath176">
      <path
         d="M 9,32 H 9888 V 14012 H 9 V 32"
         transform="translate(-4.1666666e-5,4.1666667e-4)"
         id="path176" />
    </clipPath>
    <clipPath
       clipPathUnits="userSpaceOnUse"
       id="clipPath178">
      <path
         d="M 9,32 H 9888 V 14012 H 9 V 32"
         transform="translate(-4.1666666e-5,4.1666667e-4)"
         id="path178" />
    </clipPath>
    <clipPath
       clipPathUnits="userSpaceOnUse"
       id="clipPath179">
      <path
         d="M 9,32 H 9888 V 14012 H 9 V 32"
         transform="matrix(0,-1,-1,0,2001,2990)"
         id="path179" />
    </clipPath>
    <clipPath
       clipPathUnits="userSpaceOnUse"
       id="clipPath181">
      <path
         d="M 9,32 H 9888 V 14012 H 9 V 32"
         transform="translate(-4.1666666e-5,4.1666667e-4)"
         id="path181" />
    </clipPath>
    <clipPath
       clipPathUnits="userSpaceOnUse"
       id="clipPath183">
      <path
         d="M 9,32 H 9888 V 14012 H 9 V 32"
         transform="translate(-4.1666666e-5,4.1666667e-4)"
         id="path183" />
    </clipPath>
    <clipPath
       clipPathUnits="userSpaceOnUse"
       id="clipPath185">
      <path
         d="M 9,32 H 9888 V 14012 H 9 V 32"
         transform="translate(-4.1666666e-5,4.1666667e-4)"
         id="path185" />
    </clipPath>
    <clipPath
       clipPathUnits="userSpaceOnUse"
       id="clipPath187">
      <path
         d="M 9,32 H 9888 V 14012 H 9 V 32"
         transform="translate(-4.1666666e-5,4.1666667e-4)"
         id="path187" />
    </clipPath>
    <clipPath
       clipPathUnits="userSpaceOnUse"
       id="clipPath189">
      <path
         d="M 9,32 H 9888 V 14012 H 9 V 32"
         transform="rotate(90,2487.5,946.99996)"
         id="path189" />
    </clipPath>
    <clipPath
       clipPathUnits="userSpaceOnUse"
       id="clipPath191">
      <path
         d="M 9,32 H 9888 V 14012 H 9 V 32"
         transform="rotate(90,2599.5,954.99996)"
         id="path191" />
    </clipPath>
    <clipPath
       clipPathUnits="userSpaceOnUse"
       id="clipPath193">
      <path
         d="M 9,32 H 9888 V 14012 H 9 V 32"
         transform="rotate(90,2255.5,609.99996)"
         id="path193" />
    </clipPath>
    <clipPath
       clipPathUnits="userSpaceOnUse"
       id="clipPath195">
      <path
         d="M 9,32 H 9888 V 14012 H 9 V 32"
         transform="rotate(90,2254.5,954.99996)"
         id="path195" />
    </clipPath>
    <clipPath
       clipPathUnits="userSpaceOnUse"
       id="clipPath197">
      <path
         d="M 9,32 H 9888 V 14012 H 9 V 32"
         transform="rotate(90,2254.5,954.99996)"
         id="path197" />
    </clipPath>
    <clipPath
       clipPathUnits="userSpaceOnUse"
       id="clipPath199">
      <path
         d="M 9,32 H 9888 V 14012 H 9 V 32"
         transform="translate(-4.1666666e-5,4.1666667e-4)"
         id="path199" />
    </clipPath>
    <clipPath
       clipPathUnits="userSpaceOnUse"
       id="clipPath201">
      <path
         d="M 9,32 H 9888 V 14012 H 9 V 32"
         transform="translate(-4.1666666e-5,4.1666667e-4)"
         id="path201" />
    </clipPath>
    <clipPath
       clipPathUnits="userSpaceOnUse"
       id="clipPath203">
      <path
         d="M 9,32 H 9888 V 14012 H 9 V 32"
         transform="rotate(90,2262.5,721.99996)"
         id="path203" />
    </clipPath>
    <clipPath
       clipPathUnits="userSpaceOnUse"
       id="clipPath205">
      <path
         d="M 9,32 H 9888 V 14012 H 9 V 32"
         transform="translate(-4.1666666e-5,4.1666667e-4)"
         id="path205" />
    </clipPath>
    <clipPath
       clipPathUnits="userSpaceOnUse"
       id="clipPath207">
      <path
         d="M 9,32 H 9888 V 14012 H 9 V 32"
         transform="translate(-4.1666666e-5,4.1666667e-4)"
         id="path207" />
    </clipPath>
    <clipPath
       clipPathUnits="userSpaceOnUse"
       id="clipPath209">
      <path
         d="M 9,32 H 9888 V 14012 H 9 V 32"
         transform="translate(-4.1666666e-5,4.1666667e-4)"
         id="path209" />
    </clipPath>
    <clipPath
       clipPathUnits="userSpaceOnUse"
       id="clipPath211">
      <path
         d="M 9,32 H 9888 V 14012 H 9 V 32"
         transform="translate(-4.1666666e-5,4.1666667e-4)"
         id="path211" />
    </clipPath>
    <clipPath
       clipPathUnits="userSpaceOnUse"
       id="clipPath213">
      <path
         d="M 9,32 H 9888 V 14012 H 9 V 32"
         transform="translate(-4.1666666e-5,4.1666667e-4)"
         id="path213" />
    </clipPath>
    <clipPath
       clipPathUnits="userSpaceOnUse"
       id="clipPath215">
      <path
         d="M 9,32 H 9888 V 14012 H 9 V 32"
         transform="translate(-4.1666666e-5,4.1666667e-4)"
         id="path215" />
    </clipPath>
    <clipPath
       clipPathUnits="userSpaceOnUse"
       id="clipPath217">
      <path
         d="M 9,32 H 9888 V 14012 H 9 V 32"
         transform="translate(-4.1666666e-5,4.1666667e-4)"
         id="path217" />
    </clipPath>
    <clipPath
       clipPathUnits="userSpaceOnUse"
       id="clipPath219">
      <path
         d="M 9,32 H 9888 V 14012 H 9 V 32"
         transform="translate(-4.1666666e-5,4.1666667e-4)"
         id="path219" />
    </clipPath>
  </defs>
  <g
     id="layer-oc5"
     transform="translate(-662.10672,-195.33333)">
    <path
       id="path69"
       d="m 1605,2978 v 44"
       style="fill:none;stroke:#000000;stroke-width:4;stroke-linecap:round;stroke-linejoin:round;stroke-miterlimit:10;stroke-dasharray:none;stroke-opacity:1"
       transform="matrix(0,-0.08,-0.08,0,1122.6667,793.33333)"
       clip-path="url(#clipPath70)" />
    <path
       id="path71"
       d="m 1210,3557 383,108 381,112 380,117 378,120 378,124 376,128 375,131 373,136 372,140 371,143 369,147 368,151 366,155 364,158 363,162 361,166"
       style="fill:none;stroke:#000000;stroke-width:4;stroke-linecap:round;stroke-linejoin:round;stroke-miterlimit:10;stroke-dasharray:none;stroke-opacity:1"
       transform="matrix(0,-0.08,-0.08,0,1122.6667,793.33333)"
       clip-path="url(#clipPath72)" />
    <path
       id="path73"
       d="m 1395,3554 405,117 403,121"
       style="fill:none;stroke:#000000;stroke-width:4;stroke-linecap:round;stroke-linejoin:round;stroke-miterlimit:10;stroke-dasharray:none;stroke-opacity:1"
       transform="matrix(0,-0.08,-0.08,0,1122.6667,793.33333)"
       clip-path="url(#clipPath74)" />
    <path
       id="path75"
       d="m 2363,3210 321,90 319,93 319,97 317,100 317,104 315,107 314,111 313,114 311,118 311,121"
       style="fill:none;stroke:#000000;stroke-width:4;stroke-linecap:round;stroke-linejoin:round;stroke-miterlimit:10;stroke-dasharray:none;stroke-opacity:1"
       transform="matrix(0,-0.08,-0.08,0,1122.6667,793.33333)"
       clip-path="url(#clipPath76)" />
    <path
       id="path77"
       d="m 6005,4462 297,126 294,128 294,131 292,135 291,138"
       style="fill:none;stroke:#000000;stroke-width:4;stroke-linecap:round;stroke-linejoin:round;stroke-miterlimit:10;stroke-dasharray:none;stroke-opacity:1"
       transform="matrix(0,-0.08,-0.08,0,1122.6667,793.33333)"
       clip-path="url(#clipPath78)" />
    <path
       id="path79"
       d="m 2346,3273 322,90 152,45"
       style="fill:none;stroke:#ff0000;stroke-width:2;stroke-linecap:round;stroke-linejoin:round;stroke-miterlimit:10;stroke-dasharray:none;stroke-opacity:1"
       transform="matrix(0,-0.08,-0.08,0,1122.6667,793.33333)"
       clip-path="url(#clipPath80)" />
    <path
       id="path81"
       d="m 3047,3475 263,80 188,59"
       style="fill:none;stroke:#ff0000;stroke-width:2;stroke-linecap:round;stroke-linejoin:round;stroke-miterlimit:10;stroke-dasharray:none;stroke-opacity:1"
       transform="matrix(0,-0.08,-0.08,0,1122.6667,793.33333)"
       clip-path="url(#clipPath82)" />
    <path
       id="path83"
       d="m 3723,3686 224,74 224,76"
       style="fill:none;stroke:#ff0000;stroke-width:2;stroke-linecap:round;stroke-linejoin:round;stroke-miterlimit:10;stroke-dasharray:none;stroke-opacity:1"
       transform="matrix(0,-0.08,-0.08,0,1122.6667,793.33333)"
       clip-path="url(#clipPath84)" />
    <path
       id="path85"
       d="m 4394,3914 186,66 258,94"
       style="fill:none;stroke:#ff0000;stroke-width:2;stroke-linecap:round;stroke-linejoin:round;stroke-miterlimit:10;stroke-dasharray:none;stroke-opacity:1"
       transform="matrix(0,-0.08,-0.08,0,1122.6667,793.33333)"
       clip-path="url(#clipPath86)" />
    <path
       id="path87"
       d="m 5060,4157 148,56 312,122"
       style="fill:none;stroke:#ff0000;stroke-width:2;stroke-linecap:round;stroke-linejoin:round;stroke-miterlimit:10;stroke-dasharray:none;stroke-opacity:1"
       transform="matrix(0,-0.08,-0.08,0,1122.6667,793.33333)"
       clip-path="url(#clipPath88)" />
    <path
       id="path89"
       d="m 6005,4533 291,123 h 1"
       style="fill:none;stroke:#ff0000;stroke-width:2;stroke-linecap:round;stroke-linejoin:round;stroke-miterlimit:10;stroke-dasharray:none;stroke-opacity:1"
       transform="matrix(0,-0.08,-0.08,0,1122.6667,793.33333)"
       clip-path="url(#clipPath90)" />
    <path
       id="path91"
       d="m 6513,4751 72,31 288,129 71,33"
       style="fill:none;stroke:#ff0000;stroke-width:2;stroke-linecap:round;stroke-linejoin:round;stroke-miterlimit:10;stroke-dasharray:none;stroke-opacity:1"
       transform="matrix(0,-0.08,-0.08,0,1122.6667,793.33333)"
       clip-path="url(#clipPath92)" />
    <path
       id="path93"
       d="m 7159,5043 v 1 l 286,135"
       style="fill:none;stroke:#ff0000;stroke-width:2;stroke-linecap:round;stroke-linejoin:round;stroke-miterlimit:10;stroke-dasharray:none;stroke-opacity:1"
       transform="matrix(0,-0.08,-0.08,0,1122.6667,793.33333)"
       clip-path="url(#clipPath94)" />
    <path
       id="path95"
       d="m 2277,3525 329,92 181,53"
       style="fill:none;stroke:#ff0000;stroke-width:2;stroke-linecap:round;stroke-linejoin:round;stroke-miterlimit:10;stroke-dasharray:none;stroke-opacity:1"
       transform="matrix(0,-0.08,-0.08,0,1122.6667,793.33333)"
       clip-path="url(#clipPath96)" />
    <path
       id="path97"
       d="m 3014,3737 248,76 203,64"
       style="fill:none;stroke:#ff0000;stroke-width:2;stroke-linecap:round;stroke-linejoin:round;stroke-miterlimit:10;stroke-dasharray:none;stroke-opacity:1"
       transform="matrix(0,-0.08,-0.08,0,1122.6667,793.33333)"
       clip-path="url(#clipPath98)" />
    <path
       id="path99"
       d="m 3690,3950 224,74 223,77"
       style="fill:none;stroke:#ff0000;stroke-width:2;stroke-linecap:round;stroke-linejoin:round;stroke-miterlimit:10;stroke-dasharray:none;stroke-opacity:1"
       transform="matrix(0,-0.08,-0.08,0,1122.6667,793.33333)"
       clip-path="url(#clipPath100)" />
    <path
       id="path101"
       d="m 4360,4179 200,71 244,90"
       style="fill:none;stroke:#ff0000;stroke-width:2;stroke-linecap:round;stroke-linejoin:round;stroke-miterlimit:10;stroke-dasharray:none;stroke-opacity:1"
       transform="matrix(0,-0.08,-0.08,0,1122.6667,793.33333)"
       clip-path="url(#clipPath102)" />
    <path
       id="path103"
       d="m 5025,4423 176,67 319,126"
       style="fill:none;stroke:#ff0000;stroke-width:2;stroke-linecap:round;stroke-linejoin:round;stroke-miterlimit:10;stroke-dasharray:none;stroke-opacity:1"
       transform="matrix(0,-0.08,-0.08,0,1122.6667,793.33333)"
       clip-path="url(#clipPath104)" />
    <path
       id="path105"
       d="m 6005,4816 235,100"
       style="fill:none;stroke:#ff0000;stroke-width:2;stroke-linecap:round;stroke-linejoin:round;stroke-miterlimit:10;stroke-dasharray:none;stroke-opacity:1"
       transform="matrix(0,-0.08,-0.08,0,1122.6667,793.33333)"
       clip-path="url(#clipPath106)" />
    <path
       id="path107"
       d="m 6456,5011 83,37 266,119 82,38"
       style="fill:none;stroke:#ff0000;stroke-width:2;stroke-linecap:round;stroke-linejoin:round;stroke-miterlimit:10;stroke-dasharray:none;stroke-opacity:1"
       transform="matrix(0,-0.08,-0.08,0,1122.6667,793.33333)"
       clip-path="url(#clipPath108)" />
    <path
       id="path109"
       d="m 7101,5305 231,109"
       style="fill:none;stroke:#ff0000;stroke-width:2;stroke-linecap:round;stroke-linejoin:round;stroke-miterlimit:10;stroke-dasharray:none;stroke-opacity:1"
       transform="matrix(0,-0.08,-0.08,0,1122.6667,793.33333)"
       clip-path="url(#clipPath110)" />
    <path
       id="path111"
       d="m 7473,1302 -291,137 -292,135 -294,131 -294,129 -297,125"
       style="fill:none;stroke:#000000;stroke-width:4;stroke-linecap:round;stroke-linejoin:round;stroke-miterlimit:10;stroke-dasharray:none;stroke-opacity:1"
       transform="matrix(0,-0.08,-0.08,0,1122.6667,793.33333)"
       clip-path="url(#clipPath112)" />
    <path
       id="path113"
       d="m 5520,2157 -311,121 -311,117 -313,114 -314,111 -315,107 -317,104 -317,100 -319,97 -319,94 -321,89"
       style="fill:none;stroke:#000000;stroke-width:4;stroke-linecap:round;stroke-linejoin:round;stroke-miterlimit:10;stroke-dasharray:none;stroke-opacity:1"
       transform="matrix(0,-0.08,-0.08,0,1122.6667,793.33333)"
       clip-path="url(#clipPath114)" />
    <path
       id="path115"
       d="m 7445,1243 -286,135"
       style="fill:none;stroke:#ff0000;stroke-width:2;stroke-linecap:round;stroke-linejoin:round;stroke-miterlimit:10;stroke-dasharray:none;stroke-opacity:1"
       transform="matrix(0,-0.08,-0.08,0,1122.6667,793.33333)"
       clip-path="url(#clipPath116)" />
    <path
       id="path117"
       d="m 6944,1477 -71,33 -288,129 -72,32"
       style="fill:none;stroke:#ff0000;stroke-width:2;stroke-linecap:round;stroke-linejoin:round;stroke-miterlimit:10;stroke-dasharray:none;stroke-opacity:1"
       transform="matrix(0,-0.08,-0.08,0,1122.6667,793.33333)"
       clip-path="url(#clipPath118)" />
    <path
       id="path119"
       d="m 6297,1765 h -1 l -291,123"
       style="fill:none;stroke:#ff0000;stroke-width:2;stroke-linecap:round;stroke-linejoin:round;stroke-miterlimit:10;stroke-dasharray:none;stroke-opacity:1"
       transform="matrix(0,-0.08,-0.08,0,1122.6667,793.33333)"
       clip-path="url(#clipPath120)" />
    <path
       id="path121"
       d="m 5520,2086 -312,122 -148,56"
       style="fill:none;stroke:#ff0000;stroke-width:2;stroke-linecap:round;stroke-linejoin:round;stroke-miterlimit:10;stroke-dasharray:none;stroke-opacity:1"
       transform="matrix(0,-0.08,-0.08,0,1122.6667,793.33333)"
       clip-path="url(#clipPath122)" />
    <path
       id="path123"
       d="m 4838,2347 -258,95 -186,65"
       style="fill:none;stroke:#ff0000;stroke-width:2;stroke-linecap:round;stroke-linejoin:round;stroke-miterlimit:10;stroke-dasharray:none;stroke-opacity:1"
       transform="matrix(0,-0.08,-0.08,0,1122.6667,793.33333)"
       clip-path="url(#clipPath124)" />
    <path
       id="path125"
       d="m 4171,2585 -224,76 -224,74"
       style="fill:none;stroke:#ff0000;stroke-width:2;stroke-linecap:round;stroke-linejoin:round;stroke-miterlimit:10;stroke-dasharray:none;stroke-opacity:1"
       transform="matrix(0,-0.08,-0.08,0,1122.6667,793.33333)"
       clip-path="url(#clipPath126)" />
    <path
       id="path127"
       d="m 3498,2807 -188,60 -263,80"
       style="fill:none;stroke:#ff0000;stroke-width:2;stroke-linecap:round;stroke-linejoin:round;stroke-miterlimit:10;stroke-dasharray:none;stroke-opacity:1"
       transform="matrix(0,-0.08,-0.08,0,1122.6667,793.33333)"
       clip-path="url(#clipPath128)" />
    <path
       id="path129"
       d="m 2820,3014 -152,44 -322,90"
       style="fill:none;stroke:#ff0000;stroke-width:2;stroke-linecap:round;stroke-linejoin:round;stroke-miterlimit:10;stroke-dasharray:none;stroke-opacity:1"
       transform="matrix(0,-0.08,-0.08,0,1122.6667,793.33333)"
       clip-path="url(#clipPath130)" />
    <path
       id="path131"
       d="m 7332,1007 -231,110"
       style="fill:none;stroke:#ff0000;stroke-width:2;stroke-linecap:round;stroke-linejoin:round;stroke-miterlimit:10;stroke-dasharray:none;stroke-opacity:1"
       transform="matrix(0,-0.08,-0.08,0,1122.6667,793.33333)"
       clip-path="url(#clipPath132)" />
    <path
       id="path133"
       d="m 6887,1216 -82,38 -266,120 -83,36"
       style="fill:none;stroke:#ff0000;stroke-width:2;stroke-linecap:round;stroke-linejoin:round;stroke-miterlimit:10;stroke-dasharray:none;stroke-opacity:1"
       transform="matrix(0,-0.08,-0.08,0,1122.6667,793.33333)"
       clip-path="url(#clipPath134)" />
    <path
       id="path135"
       d="m 6240,1505 -235,100"
       style="fill:none;stroke:#ff0000;stroke-width:2;stroke-linecap:round;stroke-linejoin:round;stroke-miterlimit:10;stroke-dasharray:none;stroke-opacity:1"
       transform="matrix(0,-0.08,-0.08,0,1122.6667,793.33333)"
       clip-path="url(#clipPath136)" />
    <path
       id="path137"
       d="m 5520,1805 -319,126 -176,67"
       style="fill:none;stroke:#ff0000;stroke-width:2;stroke-linecap:round;stroke-linejoin:round;stroke-miterlimit:10;stroke-dasharray:none;stroke-opacity:1"
       transform="matrix(0,-0.08,-0.08,0,1122.6667,793.33333)"
       clip-path="url(#clipPath138)" />
    <path
       id="path139"
       d="m 4804,2081 -244,90 -200,72"
       style="fill:none;stroke:#ff0000;stroke-width:2;stroke-linecap:round;stroke-linejoin:round;stroke-miterlimit:10;stroke-dasharray:none;stroke-opacity:1"
       transform="matrix(0,-0.08,-0.08,0,1122.6667,793.33333)"
       clip-path="url(#clipPath140)" />
    <path
       id="path141"
       d="m 4137,2321 -223,76 -225,74"
       style="fill:none;stroke:#ff0000;stroke-width:2;stroke-linecap:round;stroke-linejoin:round;stroke-miterlimit:10;stroke-dasharray:none;stroke-opacity:1"
       transform="matrix(0,-0.08,-0.08,0,1122.6667,793.33333)"
       clip-path="url(#clipPath142)" />
    <path
       id="path143"
       d="m 3465,2544 -203,64 -248,76"
       style="fill:none;stroke:#ff0000;stroke-width:2;stroke-linecap:round;stroke-linejoin:round;stroke-miterlimit:10;stroke-dasharray:none;stroke-opacity:1"
       transform="matrix(0,-0.08,-0.08,0,1122.6667,793.33333)"
       clip-path="url(#clipPath144)" />
    <path
       id="path145"
       d="m 2787,2751 -181,53 -329,93"
       style="fill:none;stroke:#ff0000;stroke-width:2;stroke-linecap:round;stroke-linejoin:round;stroke-miterlimit:10;stroke-dasharray:none;stroke-opacity:1"
       transform="matrix(0,-0.08,-0.08,0,1122.6667,793.33333)"
       clip-path="url(#clipPath146)" />
    <path
       id="path147"
       d="m 4984,2363 25,120 20,120 18,121 13,121 9,122 6,122 2,122 -2,122 -6,122 -9,121 -13,122 -18,121 -20,120 -25,119"
       style="fill:none;stroke:#000000;stroke-width:4;stroke-linecap:round;stroke-linejoin:round;stroke-miterlimit:10;stroke-dasharray:none;stroke-opacity:1"
       transform="matrix(0,-0.08,-0.08,0,1122.6667,793.33333)"
       clip-path="url(#clipPath148)" />
    <path
       id="path149"
       d="m 1971,2696 -260,134"
       style="fill:none;stroke:#000000;stroke-width:4;stroke-linecap:round;stroke-linejoin:round;stroke-miterlimit:10;stroke-dasharray:none;stroke-opacity:1"
       transform="matrix(0,-0.08,-0.08,0,1122.6667,793.33333)"
       clip-path="url(#clipPath150)" />
    <path
       id="path151"
       d="M 1953,3717 1709,3590"
       style="fill:none;stroke:#000000;stroke-width:4;stroke-linecap:round;stroke-linejoin:round;stroke-miterlimit:10;stroke-dasharray:none;stroke-opacity:1"
       transform="matrix(0,-0.08,-0.08,0,1122.6667,793.33333)"
       clip-path="url(#clipPath152)" />
    <path
       id="path153"
       d="m 1533,2919 772,82"
       style="fill:none;stroke:#000000;stroke-width:4;stroke-linecap:round;stroke-linejoin:round;stroke-miterlimit:10;stroke-dasharray:none;stroke-opacity:1"
       transform="matrix(0,-0.08,-0.08,0,1122.6667,793.33333)"
       clip-path="url(#clipPath154)" />
    <path
       id="path155"
       d="m 2810,3085 753,126"
       style="fill:none;stroke:#000000;stroke-width:4;stroke-linecap:round;stroke-linejoin:round;stroke-miterlimit:10;stroke-dasharray:none;stroke-opacity:1"
       transform="matrix(0,-0.08,-0.08,0,1122.6667,793.33333)"
       clip-path="url(#clipPath156)" />
    <path
       id="path157"
       d="m 1531,3499 711,153"
       style="fill:none;stroke:#000000;stroke-width:4;stroke-linecap:round;stroke-linejoin:round;stroke-miterlimit:10;stroke-dasharray:none;stroke-opacity:1"
       transform="matrix(0,-0.08,-0.08,0,1122.6667,793.33333)"
       clip-path="url(#clipPath158)" />
    <path
       id="path159"
       d="m 1710,2858 532,-89"
       style="fill:none;stroke:#000000;stroke-width:4;stroke-linecap:round;stroke-linejoin:round;stroke-miterlimit:10;stroke-dasharray:none;stroke-opacity:1"
       transform="matrix(0,-0.08,-0.08,0,1122.6667,793.33333)"
       clip-path="url(#clipPath160)" />
    <path
       id="path161"
       d="m 3507,2873 56,338 -56,337"
       style="fill:none;stroke:#000000;stroke-width:4;stroke-linecap:round;stroke-linejoin:round;stroke-miterlimit:10;stroke-dasharray:none;stroke-opacity:1"
       transform="matrix(0,-0.08,-0.08,0,1122.6667,793.33333)"
       clip-path="url(#clipPath162)" />
    <path
       id="path163"
       d="m 2190,3843 173,-633"
       style="fill:none;stroke:#000000;stroke-width:4;stroke-linecap:round;stroke-linejoin:round;stroke-miterlimit:10;stroke-dasharray:none;stroke-opacity:1"
       transform="matrix(0,-0.08,-0.08,0,1122.6667,793.33333)"
       clip-path="url(#clipPath164)" />
    <path
       id="path165"
       d="m 2189,2575 174,636"
       style="fill:none;stroke:#000000;stroke-width:4;stroke-linecap:round;stroke-linejoin:round;stroke-miterlimit:10;stroke-dasharray:none;stroke-opacity:1"
       transform="matrix(0,-0.08,-0.08,0,1122.6667,793.33333)"
       clip-path="url(#clipPath166)" />
    <path
       id="path167"
       d="m 3507,3548 -51,306 -491,-81"
       style="fill:none;stroke:#000000;stroke-width:2;stroke-linecap:round;stroke-linejoin:round;stroke-miterlimit:10;stroke-dasharray:none;stroke-opacity:1"
       transform="matrix(0,-0.08,-0.08,0,1122.6667,793.33333)"
       clip-path="url(#clipPath168)" />
    <path
       id="path169"
       d="m 2732,3734 -490,-82"
       style="fill:none;stroke:#000000;stroke-width:2;stroke-linecap:round;stroke-linejoin:round;stroke-miterlimit:10;stroke-dasharray:none;stroke-opacity:1"
       transform="matrix(0,-0.08,-0.08,0,1122.6667,793.33333)"
       clip-path="url(#clipPath170)" />
    <path
       id="path171"
       d="m 3507,2873 -51,-306 -491,82"
       style="fill:none;stroke:#000000;stroke-width:2;stroke-linecap:round;stroke-linejoin:round;stroke-miterlimit:10;stroke-dasharray:none;stroke-opacity:1"
       transform="matrix(0,-0.08,-0.08,0,1122.6667,793.33333)"
       clip-path="url(#clipPath172)" />
    <path
       id="path173"
       d="m 2732,2688 -490,81"
       style="fill:none;stroke:#000000;stroke-width:2;stroke-linecap:round;stroke-linejoin:round;stroke-miterlimit:10;stroke-dasharray:none;stroke-opacity:1"
       transform="matrix(0,-0.08,-0.08,0,1122.6667,793.33333)"
       clip-path="url(#clipPath174)" />
    <path
       id="path175"
       d="M 1775,3591 V 3343"
       style="fill:none;stroke:#ff0000;stroke-width:2;stroke-linecap:round;stroke-linejoin:round;stroke-miterlimit:10;stroke-dasharray:none;stroke-opacity:1"
       transform="matrix(0,-0.08,-0.08,0,1122.6667,793.33333)"
       clip-path="url(#clipPath176)" />
    <path
       id="path177"
       d="M 1775,3106 V 2858"
       style="fill:none;stroke:#ff0000;stroke-width:2;stroke-linecap:round;stroke-linejoin:round;stroke-miterlimit:10;stroke-dasharray:none;stroke-opacity:1"
       transform="matrix(0,-0.08,-0.08,0,1122.6667,793.33333)"
       clip-path="url(#clipPath178)" />
    <text
       id="text178"
       xml:space="preserve"
       transform="matrix(0.08,0,0,0.08,962.58667,554.13333)"
       clip-path="url(#clipPath179)"><tspan
         id="tspan178"
         style="font-variant:normal;font-weight:normal;font-size:145.869px;font-family:Arial;writing-mode:lr-tb;fill:#000000;fill-opacity:1;fill-rule:nonzero;stroke:none"
         x="0"
         y="0">50mm WEBBING</tspan></text>
    <path
       id="path180"
       d="m 2040,3055 1003,-995 v -39"
       style="fill:none;stroke:#000000;stroke-width:12;stroke-linecap:round;stroke-linejoin:round;stroke-miterlimit:10;stroke-dasharray:none;stroke-opacity:1"
       transform="matrix(0,-0.08,-0.08,0,1122.6667,793.33333)"
       clip-path="url(#clipPath181)" />
    <path
       id="path182"
       d="m 2028,3043 -62,86 87,-61 z"
       style="fill:#000000;fill-opacity:1;fill-rule:nonzero;stroke:#000000;stroke-width:1;stroke-linecap:round;stroke-linejoin:miter;stroke-miterlimit:10;stroke-dasharray:none;stroke-opacity:1"
       transform="matrix(0,-0.08,-0.08,0,1122.6667,793.33333)"
       clip-path="url(#clipPath183)" />
    <path
       id="path184"
       d="m 1709,3554 v -24"
       style="fill:none;stroke:#000000;stroke-width:4;stroke-linecap:round;stroke-linejoin:round;stroke-miterlimit:10;stroke-dasharray:none;stroke-opacity:1"
       transform="matrix(0,-0.08,-0.08,0,1122.6667,793.33333)"
       clip-path="url(#clipPath185)" />
    <path
       id="path186"
       d="m 1605,3434 v -38"
       style="fill:none;stroke:#000000;stroke-width:4;stroke-linecap:round;stroke-linejoin:round;stroke-miterlimit:10;stroke-dasharray:none;stroke-opacity:1"
       transform="matrix(0,-0.08,-0.08,0,1122.6667,793.33333)"
       clip-path="url(#clipPath187)" />
    <path
       id="path188"
       d="M -0.08164,65.49995 C -18.97193,65.4764 -36.93229,57.29834 -49.35232,43.06505 -61.77235,28.83176 -67.44259,9.92929 -64.9075,-8.79014"
       style="fill:none;stroke:#000000;stroke-width:4;stroke-linecap:round;stroke-linejoin:round;stroke-miterlimit:10;stroke-dasharray:none;stroke-opacity:1"
       transform="matrix(0.08,0,0,-0.08,847.90667,670.09333)"
       clip-path="url(#clipPath189)" />
    <path
       id="path190"
       d="M -0.08164,65.49995 C -19.70617,65.47549 -38.28577,56.6531 -50.70779,41.46046 -63.12982,26.26782 -68.0853,6.30588 -64.21062,-12.93236"
       style="fill:none;stroke:#000000;stroke-width:4;stroke-linecap:round;stroke-linejoin:round;stroke-miterlimit:10;stroke-dasharray:none;stroke-opacity:1"
       transform="matrix(0.08,0,0,-0.08,838.30667,661.77333)"
       clip-path="url(#clipPath191)" />
    <path
       id="path192"
       d="M 64.24266,-12.77226 C 68.06937,6.47558 63.06415,26.42511 50.60429,41.58673 38.14442,56.74836 19.5429,65.52441 -0.08164,65.49995"
       style="fill:none;stroke:#000000;stroke-width:4;stroke-linecap:round;stroke-linejoin:round;stroke-miterlimit:10;stroke-dasharray:none;stroke-opacity:1"
       transform="matrix(0.08,0,0,-0.08,893.42667,661.69333)"
       clip-path="url(#clipPath193)" />
    <path
       id="path194"
       d="M 358.5,0 C 358.5,197.99409 197.99409,358.5 0,358.5 -197.99409,358.5 -358.5,197.99409 -358.5,0 c 0,-197.99409 160.50591,-358.5 358.5,-358.5 197.99409,0 358.5,160.50591 358.5,358.5"
       style="fill:none;stroke:#000000;stroke-width:4;stroke-linecap:round;stroke-linejoin:round;stroke-miterlimit:10;stroke-dasharray:none;stroke-opacity:1"
       transform="matrix(0.08,0,0,-0.08,865.90667,689.37333)"
       clip-path="url(#clipPath195)" />
    <path
       id="path196"
       d="M 267.5,0 C 267.5,147.73618 147.73618,267.5 0,267.5 -147.73618,267.5 -267.5,147.73618 -267.5,0 c 0,-147.73618 119.76382,-267.5 267.5,-267.5 147.73618,0 267.5,119.76382 267.5,267.5"
       style="fill:none;stroke:#000000;stroke-width:4;stroke-linecap:round;stroke-linejoin:round;stroke-miterlimit:10;stroke-dasharray:none;stroke-opacity:1"
       transform="matrix(0.08,0,0,-0.08,865.90667,689.37333)"
       clip-path="url(#clipPath197)" />
    <path
       id="path198"
       d="m 1632,2801 -33,4"
       style="fill:none;stroke:#000000;stroke-width:4;stroke-linecap:round;stroke-linejoin:round;stroke-miterlimit:10;stroke-dasharray:none;stroke-opacity:1"
       transform="matrix(0,-0.08,-0.08,0,1122.6667,793.33333)"
       clip-path="url(#clipPath199)" />
    <path
       id="path200"
       d="m 1239,2853 h -1"
       style="fill:none;stroke:#000000;stroke-width:4;stroke-linecap:round;stroke-linejoin:round;stroke-miterlimit:10;stroke-dasharray:none;stroke-opacity:1"
       transform="matrix(0,-0.08,-0.08,0,1122.6667,793.33333)"
       clip-path="url(#clipPath201)" />
    <path
       id="path202"
       d="M 65.12611,-6.98857 C 66.99736,10.44952 61.79716,27.90966 50.6899,41.48233 39.58264,55.05501 23.49621,63.60634 6.03254,65.22161"
       style="fill:none;stroke:#000000;stroke-width:4;stroke-linecap:round;stroke-linejoin:round;stroke-miterlimit:10;stroke-dasharray:none;stroke-opacity:1"
       transform="matrix(0.08,0,0,-0.08,883.90667,670.09333)"
       clip-path="url(#clipPath203)" />
    <path
       id="path204"
       d="m 1631,3618 -26,-4"
       style="fill:none;stroke:#000000;stroke-width:4;stroke-linecap:round;stroke-linejoin:round;stroke-miterlimit:10;stroke-dasharray:none;stroke-opacity:1"
       transform="matrix(0,-0.08,-0.08,0,1122.6667,793.33333)"
       clip-path="url(#clipPath205)" />
    <path
       id="path206"
       d="m 1239,3565 -2,-1"
       style="fill:none;stroke:#000000;stroke-width:4;stroke-linecap:round;stroke-linejoin:round;stroke-miterlimit:10;stroke-dasharray:none;stroke-opacity:1"
       transform="matrix(0,-0.08,-0.08,0,1122.6667,793.33333)"
       clip-path="url(#clipPath207)" />
    <path
       id="path208"
       d="m 1531,3499 -18,-3"
       style="fill:none;stroke:#000000;stroke-width:4;stroke-linecap:round;stroke-linejoin:round;stroke-miterlimit:10;stroke-dasharray:none;stroke-opacity:1"
       transform="matrix(0,-0.08,-0.08,0,1122.6667,793.33333)"
       clip-path="url(#clipPath209)" />
    <path
       id="path210"
       d="m 1533,2919 -20,2"
       style="fill:none;stroke:#000000;stroke-width:4;stroke-linecap:round;stroke-linejoin:round;stroke-miterlimit:10;stroke-dasharray:none;stroke-opacity:1"
       transform="matrix(0,-0.08,-0.08,0,1122.6667,793.33333)"
       clip-path="url(#clipPath211)" />
    <path
       id="path212"
       d="m 1711,2830 -1,108"
       style="fill:none;stroke:#000000;stroke-width:12;stroke-linecap:round;stroke-linejoin:round;stroke-miterlimit:10;stroke-dasharray:none;stroke-opacity:1"
       transform="matrix(0,-0.08,-0.08,0,1122.6667,793.33333)"
       clip-path="url(#clipPath213)" />
    <path
       id="path214"
       d="m 1709,3537 v 53"
       style="fill:none;stroke:#000000;stroke-width:12;stroke-linecap:round;stroke-linejoin:round;stroke-miterlimit:10;stroke-dasharray:none;stroke-opacity:1"
       transform="matrix(0,-0.08,-0.08,0,1122.6667,793.33333)"
       clip-path="url(#clipPath215)" />
    <path
       id="path216"
       d="m 7168,662 -361,166 -363,162 -364,159 -366,155 -368,151 -369,147 -371,143 -372,139 -373,136 -375,132 -376,128 -378,124 -378,120 -380,116 -381,112 -383,109"
       style="fill:none;stroke:#000000;stroke-width:4;stroke-linecap:round;stroke-linejoin:round;stroke-miterlimit:10;stroke-dasharray:none;stroke-opacity:1"
       transform="matrix(0,-0.08,-0.08,0,1122.6667,793.33333)"
       clip-path="url(#clipPath217)" />
    <path
       id="path218"
       d="m 2203,2625 -403,121 -405,117"
       style="fill:none;stroke:#000000;stroke-width:4;stroke-linecap:round;stroke-linejoin:round;stroke-miterlimit:10;stroke-dasharray:none;stroke-opacity:1"
       transform="matrix(0,-0.08,-0.08,0,1122.6667,793.33333)"
       clip-path="url(#clipPath219)" />
  </g>
  <g
     id="layer-oc6"
     transform="translate(-662.10672,-195.33333)">
    <text
       id="text219"
       xml:space="preserve"
       transform="matrix(0.08,0,0,0.08,726.74667,343.09333)"><tspan
         id="tspan219"
         style="font-variant:normal;font-weight:normal;font-size:364.674px;font-family:Arial;writing-mode:lr-tb;fill:#000000;fill-opacity:1;fill-rule:nonzero;stroke:none"
         x="0"
         y="0">DEE RING THIMBLE</tspan></text>
  </g>
  <g
     id="layer-oc3"
     transform="translate(-662.10672,-195.33333)">
    <path
       id="path257"
       d="M 9,31 H 9889 V 14013 H 9"
       style="fill:none;stroke:#000000;stroke-width:1;stroke-linecap:round;stroke-linejoin:round;stroke-miterlimit:10;stroke-dasharray:none;stroke-opacity:1"
       transform="matrix(0,-0.08,-0.08,0,1122.6667,793.33333)" />
  </g>
</svg>
