<?xml version="1.0" encoding="UTF-8" standalone="no"?>
<!-- Created with Inkscape (http://www.inkscape.org/) -->

<svg
   version="1.1"
   id="svg1"
   width="124.94027"
   height="45.021057"
   viewBox="0 0 124.94026 45.021057"
   xmlns="http://www.w3.org/2000/svg"
   xmlns:svg="http://www.w3.org/2000/svg">
  <defs
     id="defs1" />
  <g
     id="layer-oc2"
     transform="translate(-107.46669,-278.42758)">
    <path
       id="path231"
       d="m 6218,12688 v -834"
       style="fill:none;stroke:#000000;stroke-width:4;stroke-linecap:round;stroke-linejoin:round;stroke-miterlimit:10;stroke-dasharray:none;stroke-opacity:1"
       transform="matrix(0,-0.08,-0.08,0,1122.6667,793.33333)" />
    <path
       id="path232"
       d="m 6231,11595 v 511"
       style="fill:none;stroke:#000000;stroke-width:4;stroke-linecap:round;stroke-linejoin:round;stroke-miterlimit:10;stroke-dasharray:none;stroke-opacity:1"
       transform="matrix(0,-0.08,-0.08,0,1122.6667,793.33333)" />
    <text
       id="text232"
       xml:space="preserve"
       transform="matrix(0.08,0,0,0.08,151.14667,316.13333)"><tspan
         id="tspan232"
         style="font-variant:normal;font-weight:700;font-size:54.233px;font-family:Arial;writing-mode:lr-tb;fill:#000000;fill-opacity:1;fill-rule:nonzero;stroke:none"
         x="0"
         y="0">EDGE DETAIL: </tspan></text>
    <text
       id="text233"
       xml:space="preserve"
       transform="matrix(0.08,0,0,0.08,182.90667,316.13333)"><tspan
         id="tspan233"
         style="font-variant:normal;font-weight:700;font-size:54.233px;font-family:Arial;writing-mode:lr-tb;fill:#000000;fill-opacity:1;fill-rule:nonzero;stroke:none"
         x="0"
         y="0">'5mm CABLE POCKET'</tspan></text>
    <text
       id="text234"
       xml:space="preserve"
       transform="matrix(0.08,0,0,0.08,178.82667,319.97333)"><tspan
         id="tspan234"
         style="font-variant:normal;font-weight:normal;font-size:36.155px;font-family:Arial;writing-mode:lr-tb;fill:#000000;fill-opacity:1;fill-rule:nonzero;stroke:none"
         x="0"
         y="0">(TWIN MACHINE)</tspan></text>
    <text
       id="text235"
       xml:space="preserve"
       transform="matrix(0.08,0,0,0.08,181.06667,323.41333)"><tspan
         id="tspan235"
         style="font-variant:normal;font-weight:normal;font-size:36.155px;font-family:Arial;writing-mode:lr-tb;fill:#000000;fill-opacity:1;fill-rule:nonzero;stroke:none"
         x="0"
         y="0">IN:</tspan></text>
    <text
       id="text236"
       xml:space="preserve"
       transform="matrix(0.08,0,0,0.08,184.74667,323.41333)"><tspan
         id="tspan236"
         style="font-variant:normal;font-weight:normal;font-size:36.155px;font-family:Arial;writing-mode:lr-tb;fill:#000000;fill-opacity:1;fill-rule:nonzero;stroke:none"
         x="0"
         y="0">60</tspan></text>
    <text
       id="text237"
       xml:space="preserve"
       transform="matrix(0.08,0,0,0.08,187.94667,323.41333)"><tspan
         id="tspan237"
         style="font-variant:normal;font-weight:normal;font-size:36.155px;font-family:Arial;writing-mode:lr-tb;fill:#000000;fill-opacity:1;fill-rule:nonzero;stroke:none"
         x="0"
         y="0"> OUT:</tspan></text>
    <text
       id="text238"
       xml:space="preserve"
       transform="matrix(0.08,0,0,0.08,195.70667,323.41333)"><tspan
         id="tspan238"
         style="font-variant:normal;font-weight:normal;font-size:36.155px;font-family:Arial;writing-mode:lr-tb;fill:#000000;fill-opacity:1;fill-rule:nonzero;stroke:none"
         x="0"
         y="0">100</tspan></text>
    <path
       id="path238"
       d="m 6244,11377 v 729"
       style="fill:none;stroke:#000000;stroke-width:4;stroke-linecap:round;stroke-linejoin:round;stroke-miterlimit:10;stroke-dasharray:none;stroke-opacity:1"
       transform="matrix(0,-0.08,-0.08,0,1122.6667,793.33333)" />
    <path
       id="path239"
       d="M -0.01433,6.49998 C -3.60138,6.49207 -6.50395,3.57988 -6.5,-0.00717 -6.49604,-3.59422 -3.58705,-6.5 0,-6.5"
       style="fill:none;stroke:#000000;stroke-width:4;stroke-linecap:round;stroke-linejoin:round;stroke-miterlimit:10;stroke-dasharray:none;stroke-opacity:1"
       transform="matrix(0.08,0,0,-0.08,154.14667,294.33333)" />
    <path
       id="path240"
       d="m 6250,12113 h 86"
       style="fill:none;stroke:#000000;stroke-width:4;stroke-linecap:round;stroke-linejoin:round;stroke-miterlimit:10;stroke-dasharray:none;stroke-opacity:1"
       transform="matrix(0,-0.08,-0.08,0,1122.6667,793.33333)" />
    <path
       id="path241"
       d="m 6218,11338 h 118"
       style="fill:none;stroke:#000000;stroke-width:4;stroke-linecap:round;stroke-linejoin:round;stroke-miterlimit:10;stroke-dasharray:none;stroke-opacity:1"
       transform="matrix(0,-0.08,-0.08,0,1122.6667,793.33333)" />
    <path
       id="path242"
       d="m 6323,12113 v -775"
       style="fill:none;stroke:#000000;stroke-width:4;stroke-linecap:round;stroke-linejoin:round;stroke-miterlimit:10;stroke-dasharray:none;stroke-opacity:1"
       transform="matrix(0,-0.08,-0.08,0,1122.6667,793.33333)" />
    <path
       id="path243"
       d="m 6330,12106 -13,13"
       style="fill:none;stroke:#000000;stroke-width:4;stroke-linecap:round;stroke-linejoin:round;stroke-miterlimit:10;stroke-dasharray:none;stroke-opacity:1"
       transform="matrix(0,-0.08,-0.08,0,1122.6667,793.33333)" />
    <path
       id="path244"
       d="m 6317,11345 13,-13"
       style="fill:none;stroke:#000000;stroke-width:4;stroke-linecap:round;stroke-linejoin:round;stroke-miterlimit:10;stroke-dasharray:none;stroke-opacity:1"
       transform="matrix(0,-0.08,-0.08,0,1122.6667,793.33333)" />
    <text
       id="text244"
       xml:space="preserve"
       transform="matrix(0.08,0,0,0.08,183.06667,287.25333)"><tspan
         id="tspan244"
         style="font-variant:normal;font-weight:normal;font-size:36.155px;font-family:Arial;writing-mode:lr-tb;fill:#000000;fill-opacity:1;fill-rule:nonzero;stroke:none"
         x="0"
         y="0">60</tspan></text>
    <path
       id="path245"
       d="m 6205,12113 h -97"
       style="fill:none;stroke:#000000;stroke-width:4;stroke-linecap:round;stroke-linejoin:round;stroke-miterlimit:10;stroke-dasharray:none;stroke-opacity:1"
       transform="matrix(0,-0.08,-0.08,0,1122.6667,793.33333)" />
    <path
       id="path246"
       d="M 6218,11595 H 6108"
       style="fill:none;stroke:#000000;stroke-width:4;stroke-linecap:round;stroke-linejoin:round;stroke-miterlimit:10;stroke-dasharray:none;stroke-opacity:1"
       transform="matrix(0,-0.08,-0.08,0,1122.6667,793.33333)" />
    <path
       id="path247"
       d="m 6121,12113 v -518"
       style="fill:none;stroke:#000000;stroke-width:4;stroke-linecap:round;stroke-linejoin:round;stroke-miterlimit:10;stroke-dasharray:none;stroke-opacity:1"
       transform="matrix(0,-0.08,-0.08,0,1122.6667,793.33333)" />
    <path
       id="path248"
       d="m 6128,12106 -13,13"
       style="fill:none;stroke:#000000;stroke-width:4;stroke-linecap:round;stroke-linejoin:round;stroke-miterlimit:10;stroke-dasharray:none;stroke-opacity:1"
       transform="matrix(0,-0.08,-0.08,0,1122.6667,793.33333)" />
    <path
       id="path249"
       d="m 6115,11601 13,-13"
       style="fill:none;stroke:#000000;stroke-width:4;stroke-linecap:round;stroke-linejoin:round;stroke-miterlimit:10;stroke-dasharray:none;stroke-opacity:1"
       transform="matrix(0,-0.08,-0.08,0,1122.6667,793.33333)" />
    <text
       id="text249"
       xml:space="preserve"
       transform="matrix(0.08,0,0,0.08,172.82667,303.41333)"><tspan
         id="tspan249"
         style="font-variant:normal;font-weight:normal;font-size:36.155px;font-family:Arial;writing-mode:lr-tb;fill:#000000;fill-opacity:1;fill-rule:nonzero;stroke:none"
         x="0"
         y="0">40</tspan></text>
    <text
       id="text252"
       xml:space="preserve"
       transform="matrix(0.08,0,0,0.08,180.02667,280.53333)"><tspan
         id="tspan252"
         style="font-variant:normal;font-weight:normal;font-size:36.155px;font-family:Arial;writing-mode:lr-tb;fill:#000000;fill-opacity:1;fill-rule:nonzero;stroke:none"
         x="0"
         y="0">5mm CABLE</tspan></text>
    <path
       id="path253"
       d="m 6238,11375 -24,-11 19,19 z"
       style="fill:#000000;fill-opacity:1;fill-rule:nonzero;stroke:#000000;stroke-width:1;stroke-linecap:round;stroke-linejoin:miter;stroke-miterlimit:10;stroke-dasharray:none;stroke-opacity:1"
       transform="matrix(0,-0.08,-0.08,0,1122.6667,793.33333)" />
    <path
       id="path254"
       d="m 6235,11379 188,132 v 39"
       style="fill:none;stroke:#000000;stroke-width:12;stroke-linecap:round;stroke-linejoin:round;stroke-miterlimit:10;stroke-dasharray:none;stroke-opacity:1"
       transform="matrix(0,-0.08,-0.08,0,1122.6667,793.33333)" />
    <text
       id="text273"
       xml:space="preserve"
       transform="matrix(0.08,0,0,0.08,226.10667,310.21333)"><tspan
         id="tspan273"
         style="font-variant:normal;font-weight:normal;font-size:36.155px;font-family:Arial;writing-mode:lr-tb;fill:#000000;fill-opacity:1;fill-rule:nonzero;stroke:none"
         x="0"
         y="0">FWP</tspan></text>
    <path
       id="path274"
       d="m 6178,11332 25,7 -22,-15 z"
       style="fill:#000000;fill-opacity:1;fill-rule:nonzero;stroke:#000000;stroke-width:1;stroke-linecap:round;stroke-linejoin:miter;stroke-miterlimit:10;stroke-dasharray:none;stroke-opacity:1"
       transform="matrix(0,-0.08,-0.08,0,1122.6667,793.33333)" />
    <path
       id="path275"
       d="m 6179,11328 -127,-59 v -39"
       style="fill:none;stroke:#000000;stroke-width:12;stroke-linecap:round;stroke-linejoin:round;stroke-miterlimit:10;stroke-dasharray:none;stroke-opacity:1"
       transform="matrix(0,-0.08,-0.08,0,1122.6667,793.33333)" />
    <path
       id="path276"
       d="M 12.5,0 C 12.5,6.90356 6.90356,12.5 0,12.5 -6.90356,12.5 -12.5,6.90356 -12.5,0 c 0,-6.90356 5.59644,-12.5 12.5,-12.5 6.90356,0 12.5,5.59644 12.5,12.5"
       style="fill:none;stroke:#ff0000;stroke-width:12;stroke-linecap:round;stroke-linejoin:round;stroke-miterlimit:10;stroke-dasharray:none;stroke-opacity:1"
       transform="matrix(0.08,0,0,-0.08,215.50667,297.05333)" />
    <path
       id="path277"
       d="m 6185,11357 36,-37"
       style="fill:none;stroke:#ff0000;stroke-width:12;stroke-linecap:round;stroke-linejoin:round;stroke-miterlimit:10;stroke-dasharray:none;stroke-opacity:1"
       transform="matrix(0,-0.08,-0.08,0,1122.6667,793.33333)" />
    <path
       id="path278"
       d="m 6185,11320 36,37"
       style="fill:none;stroke:#ff0000;stroke-width:12;stroke-linecap:round;stroke-linejoin:round;stroke-miterlimit:10;stroke-dasharray:none;stroke-opacity:1"
       transform="matrix(0,-0.08,-0.08,0,1122.6667,793.33333)" />
  </g>
  <g
     id="layer-oc1"
     transform="translate(-107.46669,-278.42758)">
    <path
       id="path250"
       d="M 32.5,0 C 32.5,17.94925 17.94925,32.5 0,32.5 -17.94925,32.5 -32.5,17.94925 -32.5,0 c 0,-17.94925 14.55075,-32.5 32.5,-32.5 17.94925,0 32.5,14.55075 32.5,32.5"
       style="fill:none;stroke:#000000;stroke-width:12;stroke-linecap:round;stroke-linejoin:round;stroke-miterlimit:10;stroke-dasharray:none;stroke-opacity:1"
       transform="matrix(0.08,0,0,-0.08,212.46667,296.89333)" />
    <path
       id="path251"
       d="m -4.2032,-38.26987 c 14.1723,-1.55655 28.04445,4.8465 36.05393,16.64163 8.00948,11.79513 8.84475,27.05088 2.17086,39.64993 C 27.3477,30.62074 14.25752,38.5 0,38.5"
       style="fill:none;stroke:#000000;stroke-width:12;stroke-linecap:round;stroke-linejoin:round;stroke-miterlimit:10;stroke-dasharray:none;stroke-opacity:1"
       transform="matrix(0.08,0,0,-0.08,212.46667,296.89333)" />
    <path
       id="path252"
       d="m 6167,11381 51,473"
       style="fill:none;stroke:#000000;stroke-width:12;stroke-linecap:round;stroke-linejoin:round;stroke-miterlimit:10;stroke-dasharray:none;stroke-opacity:1"
       transform="matrix(0,-0.08,-0.08,0,1122.6667,793.33333)" />
    <path
       id="path255"
       d="M 6.5,0 C 6.5,3.58985 3.58985,6.5 0,6.5 -3.58985,6.5 -6.5,3.58985 -6.5,0 c 0,-3.58985 2.91015,-6.5 6.5,-6.5 3.58985,0 6.5,2.91015 6.5,6.5"
       style="fill:none;stroke:#dcdcdc;stroke-width:12;stroke-linecap:round;stroke-linejoin:round;stroke-miterlimit:10;stroke-dasharray:none;stroke-opacity:1"
       transform="matrix(0.08,0,0,-0.08,212.46667,296.89333)" />
    <path
       id="path256"
       d="M 6.5,0 C 6.5,3.58985 3.58985,6.5 0,6.5 -3.58985,6.5 -6.5,3.58985 -6.5,0 c 0,-3.58985 2.91015,-6.5 6.5,-6.5 3.58985,0 6.5,2.91015 6.5,6.5"
       style="fill:none;stroke:#dcdcdc;stroke-width:12;stroke-linecap:round;stroke-linejoin:round;stroke-miterlimit:10;stroke-dasharray:none;stroke-opacity:1"
       transform="matrix(0.08,0,0,-0.08,211.42667,296.89333)" />
    <path
       id="path257"
       d="M 6.5,0 C 6.5,3.58985 3.58985,6.5 0,6.5 -3.58985,6.5 -6.5,3.58985 -6.5,0 c 0,-3.58985 2.91015,-6.5 6.5,-6.5 3.58985,0 6.5,2.91015 6.5,6.5"
       style="fill:none;stroke:#dcdcdc;stroke-width:12;stroke-linecap:round;stroke-linejoin:round;stroke-miterlimit:10;stroke-dasharray:none;stroke-opacity:1"
       transform="matrix(0.08,0,0,-0.08,210.38667,296.89333)" />
    <path
       id="path258"
       d="M 6.5,0 C 6.5,3.58985 3.58985,6.5 0,6.5 -3.58985,6.5 -6.5,3.58985 -6.5,0 c 0,-3.58985 2.91015,-6.5 6.5,-6.5 3.58985,0 6.5,2.91015 6.5,6.5"
       style="fill:none;stroke:#dcdcdc;stroke-width:12;stroke-linecap:round;stroke-linejoin:round;stroke-miterlimit:10;stroke-dasharray:none;stroke-opacity:1"
       transform="matrix(0.08,0,0,-0.08,213.50667,296.89333)" />
    <path
       id="path259"
       d="M 6.5,0 C 6.5,3.58985 3.58985,6.5 0,6.5 -3.58985,6.5 -6.5,3.58985 -6.5,0 c 0,-3.58985 2.91015,-6.5 6.5,-6.5 3.58985,0 6.5,2.91015 6.5,6.5"
       style="fill:none;stroke:#dcdcdc;stroke-width:12;stroke-linecap:round;stroke-linejoin:round;stroke-miterlimit:10;stroke-dasharray:none;stroke-opacity:1"
       transform="matrix(0.08,0,0,-0.08,214.54667,296.89333)" />
    <path
       id="path260"
       d="M 6.5,0 C 6.5,3.58985 3.58985,6.5 0,6.5 -3.58985,6.5 -6.5,3.58985 -6.5,0 c 0,-3.58985 2.91015,-6.5 6.5,-6.5 3.58985,0 6.5,2.91015 6.5,6.5"
       style="fill:none;stroke:#dcdcdc;stroke-width:12;stroke-linecap:round;stroke-linejoin:round;stroke-miterlimit:10;stroke-dasharray:none;stroke-opacity:1"
       transform="matrix(0.08,0,0,-0.08,210.86667,296.01333)" />
    <path
       id="path261"
       d="M 6.5,0 C 6.5,3.58985 3.58985,6.5 0,6.5 -3.58985,6.5 -6.5,3.58985 -6.5,0 c 0,-3.58985 2.91015,-6.5 6.5,-6.5 3.58985,0 6.5,2.91015 6.5,6.5"
       style="fill:none;stroke:#dcdcdc;stroke-width:12;stroke-linecap:round;stroke-linejoin:round;stroke-miterlimit:10;stroke-dasharray:none;stroke-opacity:1"
       transform="matrix(0.08,0,0,-0.08,211.90667,296.01333)" />
    <path
       id="path262"
       d="M 6.5,0 C 6.5,3.58985 3.58985,6.5 0,6.5 -3.58985,6.5 -6.5,3.58985 -6.5,0 c 0,-3.58985 2.91015,-6.5 6.5,-6.5 3.58985,0 6.5,2.91015 6.5,6.5"
       style="fill:none;stroke:#dcdcdc;stroke-width:12;stroke-linecap:round;stroke-linejoin:round;stroke-miterlimit:10;stroke-dasharray:none;stroke-opacity:1"
       transform="matrix(0.08,0,0,-0.08,212.94667,296.01333)" />
    <path
       id="path263"
       d="M 6.5,0 C 6.5,3.58985 3.58985,6.5 0,6.5 -3.58985,6.5 -6.5,3.58985 -6.5,0 c 0,-3.58985 2.91015,-6.5 6.5,-6.5 3.58985,0 6.5,2.91015 6.5,6.5"
       style="fill:none;stroke:#dcdcdc;stroke-width:12;stroke-linecap:round;stroke-linejoin:round;stroke-miterlimit:10;stroke-dasharray:none;stroke-opacity:1"
       transform="matrix(0.08,0,0,-0.08,213.98667,296.01333)" />
    <path
       id="path264"
       d="M 6.5,0 C 6.5,3.58985 3.58985,6.5 0,6.5 -3.58985,6.5 -6.5,3.58985 -6.5,0 c 0,-3.58985 2.91015,-6.5 6.5,-6.5 3.58985,0 6.5,2.91015 6.5,6.5"
       style="fill:none;stroke:#dcdcdc;stroke-width:12;stroke-linecap:round;stroke-linejoin:round;stroke-miterlimit:10;stroke-dasharray:none;stroke-opacity:1"
       transform="matrix(0.08,0,0,-0.08,211.42667,295.05333)" />
    <path
       id="path265"
       d="M 6.5,0 C 6.5,3.58985 3.58985,6.5 0,6.5 -3.58985,6.5 -6.5,3.58985 -6.5,0 c 0,-3.58985 2.91015,-6.5 6.5,-6.5 3.58985,0 6.5,2.91015 6.5,6.5"
       style="fill:none;stroke:#dcdcdc;stroke-width:12;stroke-linecap:round;stroke-linejoin:round;stroke-miterlimit:10;stroke-dasharray:none;stroke-opacity:1"
       transform="matrix(0.08,0,0,-0.08,212.46667,295.05333)" />
    <path
       id="path266"
       d="M 6.5,0 C 6.5,3.58985 3.58985,6.5 0,6.5 -3.58985,6.5 -6.5,3.58985 -6.5,0 c 0,-3.58985 2.91015,-6.5 6.5,-6.5 3.58985,0 6.5,2.91015 6.5,6.5"
       style="fill:none;stroke:#dcdcdc;stroke-width:12;stroke-linecap:round;stroke-linejoin:round;stroke-miterlimit:10;stroke-dasharray:none;stroke-opacity:1"
       transform="matrix(0.08,0,0,-0.08,213.50667,295.05333)" />
    <path
       id="path267"
       d="M 6.5,0 C 6.5,3.58985 3.58985,6.5 0,6.5 -3.58985,6.5 -6.5,3.58985 -6.5,0 c 0,-3.58985 2.91015,-6.5 6.5,-6.5 3.58985,0 6.5,2.91015 6.5,6.5"
       style="fill:none;stroke:#dcdcdc;stroke-width:12;stroke-linecap:round;stroke-linejoin:round;stroke-miterlimit:10;stroke-dasharray:none;stroke-opacity:1"
       transform="matrix(0.08,0,0,-0.08,210.86667,297.77333)" />
    <path
       id="path268"
       d="M 6.5,0 C 6.5,3.58985 3.58985,6.5 0,6.5 -3.58985,6.5 -6.5,3.58985 -6.5,0 c 0,-3.58985 2.91015,-6.5 6.5,-6.5 3.58985,0 6.5,2.91015 6.5,6.5"
       style="fill:none;stroke:#dcdcdc;stroke-width:12;stroke-linecap:round;stroke-linejoin:round;stroke-miterlimit:10;stroke-dasharray:none;stroke-opacity:1"
       transform="matrix(0.08,0,0,-0.08,211.90667,297.77333)" />
    <path
       id="path269"
       d="M 6.5,0 C 6.5,3.58985 3.58985,6.5 0,6.5 -3.58985,6.5 -6.5,3.58985 -6.5,0 c 0,-3.58985 2.91015,-6.5 6.5,-6.5 3.58985,0 6.5,2.91015 6.5,6.5"
       style="fill:none;stroke:#dcdcdc;stroke-width:12;stroke-linecap:round;stroke-linejoin:round;stroke-miterlimit:10;stroke-dasharray:none;stroke-opacity:1"
       transform="matrix(0.08,0,0,-0.08,212.94667,297.77333)" />
    <path
       id="path270"
       d="M 6.5,0 C 6.5,3.58985 3.58985,6.5 0,6.5 -3.58985,6.5 -6.5,3.58985 -6.5,0 c 0,-3.58985 2.91015,-6.5 6.5,-6.5 3.58985,0 6.5,2.91015 6.5,6.5"
       style="fill:none;stroke:#dcdcdc;stroke-width:12;stroke-linecap:round;stroke-linejoin:round;stroke-miterlimit:10;stroke-dasharray:none;stroke-opacity:1"
       transform="matrix(0.08,0,0,-0.08,213.98667,297.77333)" />
    <path
       id="path271"
       d="M 6.5,0 C 6.5,3.58985 3.58985,6.5 0,6.5 -3.58985,6.5 -6.5,3.58985 -6.5,0 c 0,-3.58985 2.91015,-6.5 6.5,-6.5 3.58985,0 6.5,2.91015 6.5,6.5"
       style="fill:none;stroke:#dcdcdc;stroke-width:12;stroke-linecap:round;stroke-linejoin:round;stroke-miterlimit:10;stroke-dasharray:none;stroke-opacity:1"
       transform="matrix(0.08,0,0,-0.08,211.42667,298.65333)" />
    <path
       id="path272"
       d="M 6.5,0 C 6.5,3.58985 3.58985,6.5 0,6.5 -3.58985,6.5 -6.5,3.58985 -6.5,0 c 0,-3.58985 2.91015,-6.5 6.5,-6.5 3.58985,0 6.5,2.91015 6.5,6.5"
       style="fill:none;stroke:#dcdcdc;stroke-width:12;stroke-linecap:round;stroke-linejoin:round;stroke-miterlimit:10;stroke-dasharray:none;stroke-opacity:1"
       transform="matrix(0.08,0,0,-0.08,212.46667,298.65333)" />
    <path
       id="path273"
       d="M 6.5,0 C 6.5,3.58985 3.58985,6.5 0,6.5 -3.58985,6.5 -6.5,3.58985 -6.5,0 c 0,-3.58985 2.91015,-6.5 6.5,-6.5 3.58985,0 6.5,2.91015 6.5,6.5"
       style="fill:none;stroke:#dcdcdc;stroke-width:12;stroke-linecap:round;stroke-linejoin:round;stroke-miterlimit:10;stroke-dasharray:none;stroke-opacity:1"
       transform="matrix(0.08,0,0,-0.08,213.50667,298.65333)" />
  </g>
  <g
     id="layer-oc3"
     transform="translate(-107.46669,-278.42758)">
    <path
       id="path1179"
       d="M 9,31 H 9889 V 14013 H 9"
       style="fill:none;stroke:#000000;stroke-width:1;stroke-linecap:round;stroke-linejoin:round;stroke-miterlimit:10;stroke-dasharray:none;stroke-opacity:1"
       transform="matrix(0,-0.08,-0.08,0,1122.6667,793.33333)" />
  </g>
</svg>
