<?xml version="1.0" encoding="UTF-8" standalone="no"?>
<!-- Created with Inkscape (http://www.inkscape.org/) -->

<svg
   version="1.1"
   id="svg1"
   width="124.94027"
   height="45.101044"
   viewBox="0 0 124.94026 45.101044"
   xmlns="http://www.w3.org/2000/svg"
   xmlns:svg="http://www.w3.org/2000/svg">
  <defs
     id="defs1" />
  <g
     id="layer-oc2"
     transform="translate(-107.46669,-361.6276)">
    <path
       id="path279"
       d="m 5178,12688 v -834"
       style="fill:none;stroke:#000000;stroke-width:4;stroke-linecap:round;stroke-linejoin:round;stroke-miterlimit:10;stroke-dasharray:none;stroke-opacity:1"
       transform="matrix(0,-0.08,-0.08,0,1122.6667,793.33333)" />
    <path
       id="path280"
       d="m 5191,11595 v 511"
       style="fill:none;stroke:#000000;stroke-width:4;stroke-linecap:round;stroke-linejoin:round;stroke-miterlimit:10;stroke-dasharray:none;stroke-opacity:1"
       transform="matrix(0,-0.08,-0.08,0,1122.6667,793.33333)" />
    <text
       id="text280"
       xml:space="preserve"
       transform="matrix(0.08,0,0,0.08,151.14667,399.33333)"><tspan
         id="tspan280"
         style="font-variant:normal;font-weight:700;font-size:54.233px;font-family:Arial;writing-mode:lr-tb;fill:#000000;fill-opacity:1;fill-rule:nonzero;stroke:none"
         x="0"
         y="0">EDGE DETAIL: </tspan></text>
    <text
       id="text281"
       xml:space="preserve"
       transform="matrix(0.08,0,0,0.08,182.90667,399.33333)"><tspan
         id="tspan281"
         style="font-variant:normal;font-weight:700;font-size:54.233px;font-family:Arial;writing-mode:lr-tb;fill:#000000;fill-opacity:1;fill-rule:nonzero;stroke:none"
         x="0"
         y="0">'6mm CABLE POCKET'</tspan></text>
    <text
       id="text282"
       xml:space="preserve"
       transform="matrix(0.08,0,0,0.08,178.82667,403.17333)"><tspan
         id="tspan282"
         style="font-variant:normal;font-weight:normal;font-size:36.155px;font-family:Arial;writing-mode:lr-tb;fill:#000000;fill-opacity:1;fill-rule:nonzero;stroke:none"
         x="0"
         y="0">(TWIN MACHINE)</tspan></text>
    <text
       id="text283"
       xml:space="preserve"
       transform="matrix(0.08,0,0,0.08,181.06667,406.69333)"><tspan
         id="tspan283"
         style="font-variant:normal;font-weight:normal;font-size:36.155px;font-family:Arial;writing-mode:lr-tb;fill:#000000;fill-opacity:1;fill-rule:nonzero;stroke:none"
         x="0"
         y="0">IN:</tspan></text>
    <text
       id="text284"
       xml:space="preserve"
       transform="matrix(0.08,0,0,0.08,184.74667,406.69333)"><tspan
         id="tspan284"
         style="font-variant:normal;font-weight:normal;font-size:36.155px;font-family:Arial;writing-mode:lr-tb;fill:#000000;fill-opacity:1;fill-rule:nonzero;stroke:none"
         x="0"
         y="0">60</tspan></text>
    <text
       id="text285"
       xml:space="preserve"
       transform="matrix(0.08,0,0,0.08,187.94667,406.69333)"><tspan
         id="tspan285"
         style="font-variant:normal;font-weight:normal;font-size:36.155px;font-family:Arial;writing-mode:lr-tb;fill:#000000;fill-opacity:1;fill-rule:nonzero;stroke:none"
         x="0"
         y="0"> OUT:</tspan></text>
    <text
       id="text286"
       xml:space="preserve"
       transform="matrix(0.08,0,0,0.08,195.70667,406.69333)"><tspan
         id="tspan286"
         style="font-variant:normal;font-weight:normal;font-size:36.155px;font-family:Arial;writing-mode:lr-tb;fill:#000000;fill-opacity:1;fill-rule:nonzero;stroke:none"
         x="0"
         y="0">100</tspan></text>
    <path
       id="path286"
       d="m 5204,11384 v 722"
       style="fill:none;stroke:#000000;stroke-width:4;stroke-linecap:round;stroke-linejoin:round;stroke-miterlimit:10;stroke-dasharray:none;stroke-opacity:1"
       transform="matrix(0,-0.08,-0.08,0,1122.6667,793.33333)" />
    <path
       id="path287"
       d="M -0.01433,6.49998 C -3.60138,6.49207 -6.50395,3.57988 -6.5,-0.00717 -6.49604,-3.59422 -3.58705,-6.5 0,-6.5"
       style="fill:none;stroke:#000000;stroke-width:4;stroke-linecap:round;stroke-linejoin:round;stroke-miterlimit:10;stroke-dasharray:none;stroke-opacity:1"
       transform="matrix(0.08,0,0,-0.08,154.14667,377.53333)" />
    <path
       id="path288"
       d="m 5210,12113 h 86"
       style="fill:none;stroke:#000000;stroke-width:4;stroke-linecap:round;stroke-linejoin:round;stroke-miterlimit:10;stroke-dasharray:none;stroke-opacity:1"
       transform="matrix(0,-0.08,-0.08,0,1122.6667,793.33333)" />
    <path
       id="path289"
       d="m 5178,11338 h 118"
       style="fill:none;stroke:#000000;stroke-width:4;stroke-linecap:round;stroke-linejoin:round;stroke-miterlimit:10;stroke-dasharray:none;stroke-opacity:1"
       transform="matrix(0,-0.08,-0.08,0,1122.6667,793.33333)" />
    <path
       id="path290"
       d="m 5283,12113 v -775"
       style="fill:none;stroke:#000000;stroke-width:4;stroke-linecap:round;stroke-linejoin:round;stroke-miterlimit:10;stroke-dasharray:none;stroke-opacity:1"
       transform="matrix(0,-0.08,-0.08,0,1122.6667,793.33333)" />
    <path
       id="path291"
       d="m 5289,12106 -12,13"
       style="fill:none;stroke:#000000;stroke-width:4;stroke-linecap:round;stroke-linejoin:round;stroke-miterlimit:10;stroke-dasharray:none;stroke-opacity:1"
       transform="matrix(0,-0.08,-0.08,0,1122.6667,793.33333)" />
    <path
       id="path292"
       d="m 5277,11345 12,-13"
       style="fill:none;stroke:#000000;stroke-width:4;stroke-linecap:round;stroke-linejoin:round;stroke-miterlimit:10;stroke-dasharray:none;stroke-opacity:1"
       transform="matrix(0,-0.08,-0.08,0,1122.6667,793.33333)" />
    <text
       id="text292"
       xml:space="preserve"
       transform="matrix(0.08,0,0,0.08,183.06667,370.45333)"><tspan
         id="tspan292"
         style="font-variant:normal;font-weight:normal;font-size:36.155px;font-family:Arial;writing-mode:lr-tb;fill:#000000;fill-opacity:1;fill-rule:nonzero;stroke:none"
         x="0"
         y="0">60</tspan></text>
    <path
       id="path293"
       d="m 5165,12113 h -97"
       style="fill:none;stroke:#000000;stroke-width:4;stroke-linecap:round;stroke-linejoin:round;stroke-miterlimit:10;stroke-dasharray:none;stroke-opacity:1"
       transform="matrix(0,-0.08,-0.08,0,1122.6667,793.33333)" />
    <path
       id="path294"
       d="M 5178,11595 H 5068"
       style="fill:none;stroke:#000000;stroke-width:4;stroke-linecap:round;stroke-linejoin:round;stroke-miterlimit:10;stroke-dasharray:none;stroke-opacity:1"
       transform="matrix(0,-0.08,-0.08,0,1122.6667,793.33333)" />
    <path
       id="path295"
       d="m 5081,12113 v -518"
       style="fill:none;stroke:#000000;stroke-width:4;stroke-linecap:round;stroke-linejoin:round;stroke-miterlimit:10;stroke-dasharray:none;stroke-opacity:1"
       transform="matrix(0,-0.08,-0.08,0,1122.6667,793.33333)" />
    <path
       id="path296"
       d="m 5088,12106 -13,13"
       style="fill:none;stroke:#000000;stroke-width:4;stroke-linecap:round;stroke-linejoin:round;stroke-miterlimit:10;stroke-dasharray:none;stroke-opacity:1"
       transform="matrix(0,-0.08,-0.08,0,1122.6667,793.33333)" />
    <path
       id="path297"
       d="m 5075,11601 13,-13"
       style="fill:none;stroke:#000000;stroke-width:4;stroke-linecap:round;stroke-linejoin:round;stroke-miterlimit:10;stroke-dasharray:none;stroke-opacity:1"
       transform="matrix(0,-0.08,-0.08,0,1122.6667,793.33333)" />
    <text
       id="text297"
       xml:space="preserve"
       transform="matrix(0.08,0,0,0.08,172.82667,386.61333)"><tspan
         id="tspan297"
         style="font-variant:normal;font-weight:normal;font-size:36.155px;font-family:Arial;writing-mode:lr-tb;fill:#000000;fill-opacity:1;fill-rule:nonzero;stroke:none"
         x="0"
         y="0">40</tspan></text>
    <text
       id="text300"
       xml:space="preserve"
       transform="matrix(0.08,0,0,0.08,178.50667,363.73333)"><tspan
         id="tspan300"
         style="font-variant:normal;font-weight:normal;font-size:36.155px;font-family:Arial;writing-mode:lr-tb;fill:#000000;fill-opacity:1;fill-rule:nonzero;stroke:none"
         x="0"
         y="0">6mm CABLE</tspan></text>
    <path
       id="path301"
       d="m 5198,11394 -24,-11 19,18 z"
       style="fill:#000000;fill-opacity:1;fill-rule:nonzero;stroke:#000000;stroke-width:1;stroke-linecap:round;stroke-linejoin:miter;stroke-miterlimit:10;stroke-dasharray:none;stroke-opacity:1"
       transform="matrix(0,-0.08,-0.08,0,1122.6667,793.33333)" />
    <path
       id="path302"
       d="m 5195,11398 188,132 v 39"
       style="fill:none;stroke:#000000;stroke-width:12;stroke-linecap:round;stroke-linejoin:round;stroke-miterlimit:10;stroke-dasharray:none;stroke-opacity:1"
       transform="matrix(0,-0.08,-0.08,0,1122.6667,793.33333)" />
    <text
       id="text321"
       xml:space="preserve"
       transform="matrix(0.08,0,0,0.08,226.10667,393.73333)"><tspan
         id="tspan321"
         style="font-variant:normal;font-weight:normal;font-size:36.155px;font-family:Arial;writing-mode:lr-tb;fill:#000000;fill-opacity:1;fill-rule:nonzero;stroke:none"
         x="0"
         y="0">FWP</tspan></text>
    <path
       id="path322"
       d="m 5133,11332 26,6 -22,-14 z"
       style="fill:#000000;fill-opacity:1;fill-rule:nonzero;stroke:#000000;stroke-width:1;stroke-linecap:round;stroke-linejoin:miter;stroke-miterlimit:10;stroke-dasharray:none;stroke-opacity:1"
       transform="matrix(0,-0.08,-0.08,0,1122.6667,793.33333)" />
    <path
       id="path323"
       d="m 5135,11328 -127,-59 v -39"
       style="fill:none;stroke:#000000;stroke-width:12;stroke-linecap:round;stroke-linejoin:round;stroke-miterlimit:10;stroke-dasharray:none;stroke-opacity:1"
       transform="matrix(0,-0.08,-0.08,0,1122.6667,793.33333)" />
    <path
       id="path324"
       d="M 12.5,0 C 12.5,6.90356 6.90356,12.5 0,12.5 -6.90356,12.5 -12.5,6.90356 -12.5,0 c 0,-6.90356 5.59644,-12.5 12.5,-12.5 6.90356,0 12.5,5.59644 12.5,12.5"
       style="fill:none;stroke:#ff0000;stroke-width:12;stroke-linecap:round;stroke-linejoin:round;stroke-miterlimit:10;stroke-dasharray:none;stroke-opacity:1"
       transform="matrix(0.08,0,0,-0.08,215.58667,380.57333)" />
    <path
       id="path325"
       d="m 5140,11357 37,-37"
       style="fill:none;stroke:#ff0000;stroke-width:12;stroke-linecap:round;stroke-linejoin:round;stroke-miterlimit:10;stroke-dasharray:none;stroke-opacity:1"
       transform="matrix(0,-0.08,-0.08,0,1122.6667,793.33333)" />
    <path
       id="path326"
       d="m 5140,11320 37,37"
       style="fill:none;stroke:#ff0000;stroke-width:12;stroke-linecap:round;stroke-linejoin:round;stroke-miterlimit:10;stroke-dasharray:none;stroke-opacity:1"
       transform="matrix(0,-0.08,-0.08,0,1122.6667,793.33333)" />
  </g>
  <g
     id="layer-oc1"
     transform="translate(-107.46669,-361.6276)">
    <path
       id="path298"
       d="M 38.5,0 C 38.5,21.26296 21.26296,38.5 0,38.5 -21.26296,38.5 -38.5,21.26296 -38.5,0 c 0,-21.26296 17.23704,-38.5 38.5,-38.5 21.26296,0 38.5,17.23704 38.5,38.5"
       style="fill:none;stroke:#000000;stroke-width:12;stroke-linecap:round;stroke-linejoin:round;stroke-miterlimit:10;stroke-dasharray:none;stroke-opacity:1"
       transform="matrix(0.08,0,0,-0.08,211.90667,380.57333)" />
    <path
       id="path299"
       d="m -6.3654,-45.05254 c 17.00712,-2.40291 33.91797,4.97609 43.72307,19.07843 9.8051,14.10235 10.83321,32.52433 2.65817,47.63012 C 31.8408,36.7618 15.85602,45.97665 -1.31286,45.48106"
       style="fill:none;stroke:#000000;stroke-width:12;stroke-linecap:round;stroke-linejoin:round;stroke-miterlimit:10;stroke-dasharray:none;stroke-opacity:1"
       transform="matrix(0.08,0,0,-0.08,211.90667,380.57333)" />
    <path
       id="path300"
       d="m 5114,11390 64,464"
       style="fill:none;stroke:#000000;stroke-width:12;stroke-linecap:round;stroke-linejoin:round;stroke-miterlimit:10;stroke-dasharray:none;stroke-opacity:1"
       transform="matrix(0,-0.08,-0.08,0,1122.6667,793.33333)" />
    <path
       id="path303"
       d="M 7.5,0 C 7.5,4.14214 4.14214,7.5 0,7.5 -4.14214,7.5 -7.5,4.14214 -7.5,0 c 0,-4.14214 3.35786,-7.5 7.5,-7.5 4.14214,0 7.5,3.35786 7.5,7.5"
       style="fill:none;stroke:#dcdcdc;stroke-width:12;stroke-linecap:round;stroke-linejoin:round;stroke-miterlimit:10;stroke-dasharray:none;stroke-opacity:1"
       transform="matrix(0.08,0,0,-0.08,211.90667,380.57333)" />
    <path
       id="path304"
       d="M 7.5,0 C 7.5,4.14214 4.14214,7.5 0,7.5 -4.14214,7.5 -7.5,4.14214 -7.5,0 c 0,-4.14214 3.35786,-7.5 7.5,-7.5 4.14214,0 7.5,3.35786 7.5,7.5"
       style="fill:none;stroke:#dcdcdc;stroke-width:12;stroke-linecap:round;stroke-linejoin:round;stroke-miterlimit:10;stroke-dasharray:none;stroke-opacity:1"
       transform="matrix(0.08,0,0,-0.08,210.70667,380.57333)" />
    <path
       id="path305"
       d="M 7.5,0 C 7.5,4.14214 4.14214,7.5 0,7.5 -4.14214,7.5 -7.5,4.14214 -7.5,0 c 0,-4.14214 3.35786,-7.5 7.5,-7.5 4.14214,0 7.5,3.35786 7.5,7.5"
       style="fill:none;stroke:#dcdcdc;stroke-width:12;stroke-linecap:round;stroke-linejoin:round;stroke-miterlimit:10;stroke-dasharray:none;stroke-opacity:1"
       transform="matrix(0.08,0,0,-0.08,209.42667,380.57333)" />
    <path
       id="path306"
       d="M 7.5,0 C 7.5,4.14214 4.14214,7.5 0,7.5 -4.14214,7.5 -7.5,4.14214 -7.5,0 c 0,-4.14214 3.35786,-7.5 7.5,-7.5 4.14214,0 7.5,3.35786 7.5,7.5"
       style="fill:none;stroke:#dcdcdc;stroke-width:12;stroke-linecap:round;stroke-linejoin:round;stroke-miterlimit:10;stroke-dasharray:none;stroke-opacity:1"
       transform="matrix(0.08,0,0,-0.08,213.18667,380.57333)" />
    <path
       id="path307"
       d="M 7.5,0 C 7.5,4.14214 4.14214,7.5 0,7.5 -4.14214,7.5 -7.5,4.14214 -7.5,0 c 0,-4.14214 3.35786,-7.5 7.5,-7.5 4.14214,0 7.5,3.35786 7.5,7.5"
       style="fill:none;stroke:#dcdcdc;stroke-width:12;stroke-linecap:round;stroke-linejoin:round;stroke-miterlimit:10;stroke-dasharray:none;stroke-opacity:1"
       transform="matrix(0.08,0,0,-0.08,214.38667,380.57333)" />
    <path
       id="path308"
       d="M 7.5,0 C 7.5,4.14214 4.14214,7.5 0,7.5 -4.14214,7.5 -7.5,4.14214 -7.5,0 c 0,-4.14214 3.35786,-7.5 7.5,-7.5 4.14214,0 7.5,3.35786 7.5,7.5"
       style="fill:none;stroke:#dcdcdc;stroke-width:12;stroke-linecap:round;stroke-linejoin:round;stroke-miterlimit:10;stroke-dasharray:none;stroke-opacity:1"
       transform="matrix(0.08,0,0,-0.08,210.06667,379.53333)" />
    <path
       id="path309"
       d="M 7.5,0 C 7.5,4.14214 4.14214,7.5 0,7.5 -4.14214,7.5 -7.5,4.14214 -7.5,0 c 0,-4.14214 3.35786,-7.5 7.5,-7.5 4.14214,0 7.5,3.35786 7.5,7.5"
       style="fill:none;stroke:#dcdcdc;stroke-width:12;stroke-linecap:round;stroke-linejoin:round;stroke-miterlimit:10;stroke-dasharray:none;stroke-opacity:1"
       transform="matrix(0.08,0,0,-0.08,211.26667,379.53333)" />
    <path
       id="path310"
       d="M 7.5,0 C 7.5,4.14214 4.14214,7.5 0,7.5 -4.14214,7.5 -7.5,4.14214 -7.5,0 c 0,-4.14214 3.35786,-7.5 7.5,-7.5 4.14214,0 7.5,3.35786 7.5,7.5"
       style="fill:none;stroke:#dcdcdc;stroke-width:12;stroke-linecap:round;stroke-linejoin:round;stroke-miterlimit:10;stroke-dasharray:none;stroke-opacity:1"
       transform="matrix(0.08,0,0,-0.08,212.54667,379.53333)" />
    <path
       id="path311"
       d="M 7.5,0 C 7.5,4.14214 4.14214,7.5 0,7.5 -4.14214,7.5 -7.5,4.14214 -7.5,0 c 0,-4.14214 3.35786,-7.5 7.5,-7.5 4.14214,0 7.5,3.35786 7.5,7.5"
       style="fill:none;stroke:#dcdcdc;stroke-width:12;stroke-linecap:round;stroke-linejoin:round;stroke-miterlimit:10;stroke-dasharray:none;stroke-opacity:1"
       transform="matrix(0.08,0,0,-0.08,213.82667,379.53333)" />
    <path
       id="path312"
       d="M 7.5,0 C 7.5,4.14214 4.14214,7.5 0,7.5 -4.14214,7.5 -7.5,4.14214 -7.5,0 c 0,-4.14214 3.35786,-7.5 7.5,-7.5 4.14214,0 7.5,3.35786 7.5,7.5"
       style="fill:none;stroke:#dcdcdc;stroke-width:12;stroke-linecap:round;stroke-linejoin:round;stroke-miterlimit:10;stroke-dasharray:none;stroke-opacity:1"
       transform="matrix(0.08,0,0,-0.08,210.70667,378.41333)" />
    <path
       id="path313"
       d="M 7.5,0 C 7.5,4.14214 4.14214,7.5 0,7.5 -4.14214,7.5 -7.5,4.14214 -7.5,0 c 0,-4.14214 3.35786,-7.5 7.5,-7.5 4.14214,0 7.5,3.35786 7.5,7.5"
       style="fill:none;stroke:#dcdcdc;stroke-width:12;stroke-linecap:round;stroke-linejoin:round;stroke-miterlimit:10;stroke-dasharray:none;stroke-opacity:1"
       transform="matrix(0.08,0,0,-0.08,211.90667,378.41333)" />
    <path
       id="path314"
       d="M 7.5,0 C 7.5,4.14214 4.14214,7.5 0,7.5 -4.14214,7.5 -7.5,4.14214 -7.5,0 c 0,-4.14214 3.35786,-7.5 7.5,-7.5 4.14214,0 7.5,3.35786 7.5,7.5"
       style="fill:none;stroke:#dcdcdc;stroke-width:12;stroke-linecap:round;stroke-linejoin:round;stroke-miterlimit:10;stroke-dasharray:none;stroke-opacity:1"
       transform="matrix(0.08,0,0,-0.08,213.18667,378.41333)" />
    <path
       id="path315"
       d="M 7.5,0 C 7.5,4.14214 4.14214,7.5 0,7.5 -4.14214,7.5 -7.5,4.14214 -7.5,0 c 0,-4.14214 3.35786,-7.5 7.5,-7.5 4.14214,0 7.5,3.35786 7.5,7.5"
       style="fill:none;stroke:#dcdcdc;stroke-width:12;stroke-linecap:round;stroke-linejoin:round;stroke-miterlimit:10;stroke-dasharray:none;stroke-opacity:1"
       transform="matrix(0.08,0,0,-0.08,210.06667,381.69333)" />
    <path
       id="path316"
       d="M 7.5,0 C 7.5,4.14214 4.14214,7.5 0,7.5 -4.14214,7.5 -7.5,4.14214 -7.5,0 c 0,-4.14214 3.35786,-7.5 7.5,-7.5 4.14214,0 7.5,3.35786 7.5,7.5"
       style="fill:none;stroke:#dcdcdc;stroke-width:12;stroke-linecap:round;stroke-linejoin:round;stroke-miterlimit:10;stroke-dasharray:none;stroke-opacity:1"
       transform="matrix(0.08,0,0,-0.08,211.26667,381.69333)" />
    <path
       id="path317"
       d="M 7.5,0 C 7.5,4.14214 4.14214,7.5 0,7.5 -4.14214,7.5 -7.5,4.14214 -7.5,0 c 0,-4.14214 3.35786,-7.5 7.5,-7.5 4.14214,0 7.5,3.35786 7.5,7.5"
       style="fill:none;stroke:#dcdcdc;stroke-width:12;stroke-linecap:round;stroke-linejoin:round;stroke-miterlimit:10;stroke-dasharray:none;stroke-opacity:1"
       transform="matrix(0.08,0,0,-0.08,212.54667,381.69333)" />
    <path
       id="path318"
       d="M 7.5,0 C 7.5,4.14214 4.14214,7.5 0,7.5 -4.14214,7.5 -7.5,4.14214 -7.5,0 c 0,-4.14214 3.35786,-7.5 7.5,-7.5 4.14214,0 7.5,3.35786 7.5,7.5"
       style="fill:none;stroke:#dcdcdc;stroke-width:12;stroke-linecap:round;stroke-linejoin:round;stroke-miterlimit:10;stroke-dasharray:none;stroke-opacity:1"
       transform="matrix(0.08,0,0,-0.08,213.82667,381.69333)" />
    <path
       id="path319"
       d="M 7.5,0 C 7.5,4.14214 4.14214,7.5 0,7.5 -4.14214,7.5 -7.5,4.14214 -7.5,0 c 0,-4.14214 3.35786,-7.5 7.5,-7.5 4.14214,0 7.5,3.35786 7.5,7.5"
       style="fill:none;stroke:#dcdcdc;stroke-width:12;stroke-linecap:round;stroke-linejoin:round;stroke-miterlimit:10;stroke-dasharray:none;stroke-opacity:1"
       transform="matrix(0.08,0,0,-0.08,210.70667,382.73333)" />
    <path
       id="path320"
       d="M 7.5,0 C 7.5,4.14214 4.14214,7.5 0,7.5 -4.14214,7.5 -7.5,4.14214 -7.5,0 c 0,-4.14214 3.35786,-7.5 7.5,-7.5 4.14214,0 7.5,3.35786 7.5,7.5"
       style="fill:none;stroke:#dcdcdc;stroke-width:12;stroke-linecap:round;stroke-linejoin:round;stroke-miterlimit:10;stroke-dasharray:none;stroke-opacity:1"
       transform="matrix(0.08,0,0,-0.08,211.90667,382.73333)" />
    <path
       id="path321"
       d="M 7.5,0 C 7.5,4.14214 4.14214,7.5 0,7.5 -4.14214,7.5 -7.5,4.14214 -7.5,0 c 0,-4.14214 3.35786,-7.5 7.5,-7.5 4.14214,0 7.5,3.35786 7.5,7.5"
       style="fill:none;stroke:#dcdcdc;stroke-width:12;stroke-linecap:round;stroke-linejoin:round;stroke-miterlimit:10;stroke-dasharray:none;stroke-opacity:1"
       transform="matrix(0.08,0,0,-0.08,213.18667,382.73333)" />
  </g>
  <g
     id="layer-oc3"
     transform="translate(-107.46669,-361.6276)">
    <path
       id="path1179"
       d="M 9,31 H 9889 V 14013 H 9"
       style="fill:none;stroke:#000000;stroke-width:1;stroke-linecap:round;stroke-linejoin:round;stroke-miterlimit:10;stroke-dasharray:none;stroke-opacity:1"
       transform="matrix(0,-0.08,-0.08,0,1122.6667,793.33333)" />
  </g>
</svg>
