<?xml version="1.0" encoding="UTF-8" standalone="no"?>
<!-- Created with Inkscape (http://www.inkscape.org/) -->

<svg
   version="1.1"
   id="svg1"
   width="124.86027"
   height="45.101044"
   viewBox="0 0 124.86026 45.101044"
   xmlns="http://www.w3.org/2000/svg"
   xmlns:svg="http://www.w3.org/2000/svg">
  <defs
     id="defs1" />
  <g
     id="layer-oc2"
     transform="translate(-107.46669,-440.58759)">
    <path
       id="path327"
       d="m 4191,12688 v -834"
       style="fill:none;stroke:#000000;stroke-width:4;stroke-linecap:round;stroke-linejoin:round;stroke-miterlimit:10;stroke-dasharray:none;stroke-opacity:1"
       transform="matrix(0,-0.08,-0.08,0,1122.6667,793.33333)" />
    <path
       id="path328"
       d="m 4204,11595 v 511"
       style="fill:none;stroke:#000000;stroke-width:4;stroke-linecap:round;stroke-linejoin:round;stroke-miterlimit:10;stroke-dasharray:none;stroke-opacity:1"
       transform="matrix(0,-0.08,-0.08,0,1122.6667,793.33333)" />
    <text
       id="text328"
       xml:space="preserve"
       transform="matrix(0.08,0,0,0.08,151.14667,478.29333)"><tspan
         id="tspan328"
         style="font-variant:normal;font-weight:700;font-size:54.233px;font-family:Arial;writing-mode:lr-tb;fill:#000000;fill-opacity:1;fill-rule:nonzero;stroke:none"
         x="0"
         y="0">EDGE DETAIL: </tspan></text>
    <text
       id="text329"
       xml:space="preserve"
       transform="matrix(0.08,0,0,0.08,182.90667,478.29333)"><tspan
         id="tspan329"
         style="font-variant:normal;font-weight:700;font-size:54.233px;font-family:Arial;writing-mode:lr-tb;fill:#000000;fill-opacity:1;fill-rule:nonzero;stroke:none"
         x="0"
         y="0">'8mm CABLE POCKET'</tspan></text>
    <text
       id="text330"
       xml:space="preserve"
       transform="matrix(0.08,0,0,0.08,178.82667,482.13333)"><tspan
         id="tspan330"
         style="font-variant:normal;font-weight:normal;font-size:36.155px;font-family:Arial;writing-mode:lr-tb;fill:#000000;fill-opacity:1;fill-rule:nonzero;stroke:none"
         x="0"
         y="0">(TWIN MACHINE)</tspan></text>
    <text
       id="text331"
       xml:space="preserve"
       transform="matrix(0.08,0,0,0.08,181.06667,485.65333)"><tspan
         id="tspan331"
         style="font-variant:normal;font-weight:normal;font-size:36.155px;font-family:Arial;writing-mode:lr-tb;fill:#000000;fill-opacity:1;fill-rule:nonzero;stroke:none"
         x="0"
         y="0">IN:</tspan></text>
    <text
       id="text332"
       xml:space="preserve"
       transform="matrix(0.08,0,0,0.08,184.74667,485.65333)"><tspan
         id="tspan332"
         style="font-variant:normal;font-weight:normal;font-size:36.155px;font-family:Arial;writing-mode:lr-tb;fill:#000000;fill-opacity:1;fill-rule:nonzero;stroke:none"
         x="0"
         y="0">60</tspan></text>
    <text
       id="text333"
       xml:space="preserve"
       transform="matrix(0.08,0,0,0.08,187.94667,485.65333)"><tspan
         id="tspan333"
         style="font-variant:normal;font-weight:normal;font-size:36.155px;font-family:Arial;writing-mode:lr-tb;fill:#000000;fill-opacity:1;fill-rule:nonzero;stroke:none"
         x="0"
         y="0"> OUT:</tspan></text>
    <text
       id="text334"
       xml:space="preserve"
       transform="matrix(0.08,0,0,0.08,195.70667,485.65333)"><tspan
         id="tspan334"
         style="font-variant:normal;font-weight:normal;font-size:36.155px;font-family:Arial;writing-mode:lr-tb;fill:#000000;fill-opacity:1;fill-rule:nonzero;stroke:none"
         x="0"
         y="0">100</tspan></text>
    <path
       id="path334"
       d="m 4217,11397 v 709"
       style="fill:none;stroke:#000000;stroke-width:4;stroke-linecap:round;stroke-linejoin:round;stroke-miterlimit:10;stroke-dasharray:none;stroke-opacity:1"
       transform="matrix(0,-0.08,-0.08,0,1122.6667,793.33333)" />
    <path
       id="path335"
       d="M -0.01433,6.49998 C -3.60138,6.49207 -6.50395,3.57988 -6.5,-0.00717 -6.49604,-3.59422 -3.58705,-6.5 0,-6.5"
       style="fill:none;stroke:#000000;stroke-width:4;stroke-linecap:round;stroke-linejoin:round;stroke-miterlimit:10;stroke-dasharray:none;stroke-opacity:1"
       transform="matrix(0.08,0,0,-0.08,154.14667,456.49333)" />
    <path
       id="path336"
       d="m 4223,12113 h 86"
       style="fill:none;stroke:#000000;stroke-width:4;stroke-linecap:round;stroke-linejoin:round;stroke-miterlimit:10;stroke-dasharray:none;stroke-opacity:1"
       transform="matrix(0,-0.08,-0.08,0,1122.6667,793.33333)" />
    <path
       id="path337"
       d="m 4191,11338 h 118"
       style="fill:none;stroke:#000000;stroke-width:4;stroke-linecap:round;stroke-linejoin:round;stroke-miterlimit:10;stroke-dasharray:none;stroke-opacity:1"
       transform="matrix(0,-0.08,-0.08,0,1122.6667,793.33333)" />
    <path
       id="path338"
       d="m 4296,12113 v -775"
       style="fill:none;stroke:#000000;stroke-width:4;stroke-linecap:round;stroke-linejoin:round;stroke-miterlimit:10;stroke-dasharray:none;stroke-opacity:1"
       transform="matrix(0,-0.08,-0.08,0,1122.6667,793.33333)" />
    <path
       id="path339"
       d="m 4302,12106 -13,13"
       style="fill:none;stroke:#000000;stroke-width:4;stroke-linecap:round;stroke-linejoin:round;stroke-miterlimit:10;stroke-dasharray:none;stroke-opacity:1"
       transform="matrix(0,-0.08,-0.08,0,1122.6667,793.33333)" />
    <path
       id="path340"
       d="m 4289,11345 13,-13"
       style="fill:none;stroke:#000000;stroke-width:4;stroke-linecap:round;stroke-linejoin:round;stroke-miterlimit:10;stroke-dasharray:none;stroke-opacity:1"
       transform="matrix(0,-0.08,-0.08,0,1122.6667,793.33333)" />
    <text
       id="text340"
       xml:space="preserve"
       transform="matrix(0.08,0,0,0.08,183.06667,449.41333)"><tspan
         id="tspan340"
         style="font-variant:normal;font-weight:normal;font-size:36.155px;font-family:Arial;writing-mode:lr-tb;fill:#000000;fill-opacity:1;fill-rule:nonzero;stroke:none"
         x="0"
         y="0">60</tspan></text>
    <path
       id="path341"
       d="m 4178,12113 h -97"
       style="fill:none;stroke:#000000;stroke-width:4;stroke-linecap:round;stroke-linejoin:round;stroke-miterlimit:10;stroke-dasharray:none;stroke-opacity:1"
       transform="matrix(0,-0.08,-0.08,0,1122.6667,793.33333)" />
    <path
       id="path342"
       d="M 4191,11595 H 4081"
       style="fill:none;stroke:#000000;stroke-width:4;stroke-linecap:round;stroke-linejoin:round;stroke-miterlimit:10;stroke-dasharray:none;stroke-opacity:1"
       transform="matrix(0,-0.08,-0.08,0,1122.6667,793.33333)" />
    <path
       id="path343"
       d="m 4094,12113 v -518"
       style="fill:none;stroke:#000000;stroke-width:4;stroke-linecap:round;stroke-linejoin:round;stroke-miterlimit:10;stroke-dasharray:none;stroke-opacity:1"
       transform="matrix(0,-0.08,-0.08,0,1122.6667,793.33333)" />
    <path
       id="path344"
       d="m 4100,12106 -13,13"
       style="fill:none;stroke:#000000;stroke-width:4;stroke-linecap:round;stroke-linejoin:round;stroke-miterlimit:10;stroke-dasharray:none;stroke-opacity:1"
       transform="matrix(0,-0.08,-0.08,0,1122.6667,793.33333)" />
    <path
       id="path345"
       d="m 4087,11601 13,-13"
       style="fill:none;stroke:#000000;stroke-width:4;stroke-linecap:round;stroke-linejoin:round;stroke-miterlimit:10;stroke-dasharray:none;stroke-opacity:1"
       transform="matrix(0,-0.08,-0.08,0,1122.6667,793.33333)" />
    <text
       id="text345"
       xml:space="preserve"
       transform="matrix(0.08,0,0,0.08,172.82667,465.57333)"><tspan
         id="tspan345"
         style="font-variant:normal;font-weight:normal;font-size:36.155px;font-family:Arial;writing-mode:lr-tb;fill:#000000;fill-opacity:1;fill-rule:nonzero;stroke:none"
         x="0"
         y="0">40</tspan></text>
    <text
       id="text348"
       xml:space="preserve"
       transform="matrix(0.08,0,0,0.08,178.50667,442.69333)"><tspan
         id="tspan348"
         style="font-variant:normal;font-weight:normal;font-size:36.155px;font-family:Arial;writing-mode:lr-tb;fill:#000000;fill-opacity:1;fill-rule:nonzero;stroke:none"
         x="0"
         y="0">8mm CABLE</tspan></text>
    <path
       id="path349"
       d="m 4186,11393 -24,-10 19,17 z"
       style="fill:#000000;fill-opacity:1;fill-rule:nonzero;stroke:#000000;stroke-width:1;stroke-linecap:round;stroke-linejoin:miter;stroke-miterlimit:10;stroke-dasharray:none;stroke-opacity:1"
       transform="matrix(0,-0.08,-0.08,0,1122.6667,793.33333)" />
    <path
       id="path350"
       d="m 4184,11397 212,133 v 39"
       style="fill:none;stroke:#000000;stroke-width:12;stroke-linecap:round;stroke-linejoin:round;stroke-miterlimit:10;stroke-dasharray:none;stroke-opacity:1"
       transform="matrix(0,-0.08,-0.08,0,1122.6667,793.33333)" />
    <text
       id="text369"
       xml:space="preserve"
       transform="matrix(0.08,0,0,0.08,226.02667,474.37333)"><tspan
         id="tspan369"
         style="font-variant:normal;font-weight:normal;font-size:36.155px;font-family:Arial;writing-mode:lr-tb;fill:#000000;fill-opacity:1;fill-rule:nonzero;stroke:none"
         x="0"
         y="0">FWP</tspan></text>
    <path
       id="path370"
       d="m 4125,11332 26,7 -22,-15 z"
       style="fill:#000000;fill-opacity:1;fill-rule:nonzero;stroke:#000000;stroke-width:1;stroke-linecap:round;stroke-linejoin:miter;stroke-miterlimit:10;stroke-dasharray:none;stroke-opacity:1"
       transform="matrix(0,-0.08,-0.08,0,1122.6667,793.33333)" />
    <path
       id="path371"
       d="m 4127,11328 -127,-58 v -39"
       style="fill:none;stroke:#000000;stroke-width:12;stroke-linecap:round;stroke-linejoin:round;stroke-miterlimit:10;stroke-dasharray:none;stroke-opacity:1"
       transform="matrix(0,-0.08,-0.08,0,1122.6667,793.33333)" />
    <path
       id="path372"
       d="M 12.5,0 C 12.5,6.90356 6.90356,12.5 0,12.5 -6.90356,12.5 -12.5,6.90356 -12.5,0 c 0,-6.90356 5.59644,-12.5 12.5,-12.5 6.90356,0 12.5,5.59644 12.5,12.5"
       style="fill:none;stroke:#ff0000;stroke-width:12;stroke-linecap:round;stroke-linejoin:round;stroke-miterlimit:10;stroke-dasharray:none;stroke-opacity:1"
       transform="matrix(0.08,0,0,-0.08,215.50667,461.21333)" />
    <path
       id="path373"
       d="m 4132,11357 37,-36"
       style="fill:none;stroke:#ff0000;stroke-width:12;stroke-linecap:round;stroke-linejoin:round;stroke-miterlimit:10;stroke-dasharray:none;stroke-opacity:1"
       transform="matrix(0,-0.08,-0.08,0,1122.6667,793.33333)" />
    <path
       id="path374"
       d="m 4132,11321 37,36"
       style="fill:none;stroke:#ff0000;stroke-width:12;stroke-linecap:round;stroke-linejoin:round;stroke-miterlimit:10;stroke-dasharray:none;stroke-opacity:1"
       transform="matrix(0,-0.08,-0.08,0,1122.6667,793.33333)" />
  </g>
  <g
     id="layer-oc1"
     transform="translate(-107.46669,-440.58759)">
    <path
       id="path346"
       d="M 51.5,0 C 51.5,28.44267 28.44267,51.5 0,51.5 -28.44267,51.5 -51.5,28.44267 -51.5,0 c 0,-28.44267 23.05733,-51.5 51.5,-51.5 28.44267,0 51.5,23.05733 51.5,51.5"
       style="fill:none;stroke:#000000;stroke-width:12;stroke-linecap:round;stroke-linejoin:round;stroke-miterlimit:10;stroke-dasharray:none;stroke-opacity:1"
       transform="matrix(0.08,0,0,-0.08,210.86667,460.65333)" />
    <path
       id="path347"
       d="M -15.52701,-56.40179 C 6.439,-62.44888 29.91753,-55.19297 44.64169,-37.807 59.36584,-20.42104 62.65671,3.93178 53.07523,24.60224 43.49374,45.27269 22.78316,58.5 0,58.5"
       style="fill:none;stroke:#000000;stroke-width:12;stroke-linecap:round;stroke-linejoin:round;stroke-miterlimit:10;stroke-dasharray:none;stroke-opacity:1"
       transform="matrix(0.08,0,0,-0.08,210.86667,460.65333)" />
    <path
       id="path348"
       d="m 4102,11412 89,442"
       style="fill:none;stroke:#000000;stroke-width:12;stroke-linecap:round;stroke-linejoin:round;stroke-miterlimit:10;stroke-dasharray:none;stroke-opacity:1"
       transform="matrix(0,-0.08,-0.08,0,1122.6667,793.33333)" />
    <path
       id="path351"
       d="M 10.5,0 C 10.5,5.79899 5.79899,10.5 0,10.5 -5.79899,10.5 -10.5,5.79899 -10.5,0 c 0,-5.79899 4.70101,-10.5 10.5,-10.5 5.79899,0 10.5,4.70101 10.5,10.5"
       style="fill:none;stroke:#dcdcdc;stroke-width:12;stroke-linecap:round;stroke-linejoin:round;stroke-miterlimit:10;stroke-dasharray:none;stroke-opacity:1"
       transform="matrix(0.08,0,0,-0.08,210.86667,460.65333)" />
    <path
       id="path352"
       d="M 10.5,0 C 10.5,5.79899 5.79899,10.5 0,10.5 -5.79899,10.5 -10.5,5.79899 -10.5,0 c 0,-5.79899 4.70101,-10.5 10.5,-10.5 5.79899,0 10.5,4.70101 10.5,10.5"
       style="fill:none;stroke:#dcdcdc;stroke-width:12;stroke-linecap:round;stroke-linejoin:round;stroke-miterlimit:10;stroke-dasharray:none;stroke-opacity:1"
       transform="matrix(0.08,0,0,-0.08,209.26667,460.65333)" />
    <path
       id="path353"
       d="M 10.5,0 C 10.5,5.79899 5.79899,10.5 0,10.5 -5.79899,10.5 -10.5,5.79899 -10.5,0 c 0,-5.79899 4.70101,-10.5 10.5,-10.5 5.79899,0 10.5,4.70101 10.5,10.5"
       style="fill:none;stroke:#dcdcdc;stroke-width:12;stroke-linecap:round;stroke-linejoin:round;stroke-miterlimit:10;stroke-dasharray:none;stroke-opacity:1"
       transform="matrix(0.08,0,0,-0.08,207.58667,460.65333)" />
    <path
       id="path354"
       d="M 10.5,0 C 10.5,5.79899 5.79899,10.5 0,10.5 -5.79899,10.5 -10.5,5.79899 -10.5,0 c 0,-5.79899 4.70101,-10.5 10.5,-10.5 5.79899,0 10.5,4.70101 10.5,10.5"
       style="fill:none;stroke:#dcdcdc;stroke-width:12;stroke-linecap:round;stroke-linejoin:round;stroke-miterlimit:10;stroke-dasharray:none;stroke-opacity:1"
       transform="matrix(0.08,0,0,-0.08,212.54667,460.65333)" />
    <path
       id="path355"
       d="M 10.5,0 C 10.5,5.79899 5.79899,10.5 0,10.5 -5.79899,10.5 -10.5,5.79899 -10.5,0 c 0,-5.79899 4.70101,-10.5 10.5,-10.5 5.79899,0 10.5,4.70101 10.5,10.5"
       style="fill:none;stroke:#dcdcdc;stroke-width:12;stroke-linecap:round;stroke-linejoin:round;stroke-miterlimit:10;stroke-dasharray:none;stroke-opacity:1"
       transform="matrix(0.08,0,0,-0.08,214.22667,460.65333)" />
    <path
       id="path356"
       d="M 10.5,0 C 10.5,5.79899 5.79899,10.5 0,10.5 -5.79899,10.5 -10.5,5.79899 -10.5,0 c 0,-5.79899 4.70101,-10.5 10.5,-10.5 5.79899,0 10.5,4.70101 10.5,10.5"
       style="fill:none;stroke:#dcdcdc;stroke-width:12;stroke-linecap:round;stroke-linejoin:round;stroke-miterlimit:10;stroke-dasharray:none;stroke-opacity:1"
       transform="matrix(0.08,0,0,-0.08,208.38667,459.21333)" />
    <path
       id="path357"
       d="M 10.5,0 C 10.5,5.79899 5.79899,10.5 0,10.5 -5.79899,10.5 -10.5,5.79899 -10.5,0 c 0,-5.79899 4.70101,-10.5 10.5,-10.5 5.79899,0 10.5,4.70101 10.5,10.5"
       style="fill:none;stroke:#dcdcdc;stroke-width:12;stroke-linecap:round;stroke-linejoin:round;stroke-miterlimit:10;stroke-dasharray:none;stroke-opacity:1"
       transform="matrix(0.08,0,0,-0.08,210.06667,459.21333)" />
    <path
       id="path358"
       d="M 10.5,0 C 10.5,5.79899 5.79899,10.5 0,10.5 -5.79899,10.5 -10.5,5.79899 -10.5,0 c 0,-5.79899 4.70101,-10.5 10.5,-10.5 5.79899,0 10.5,4.70101 10.5,10.5"
       style="fill:none;stroke:#dcdcdc;stroke-width:12;stroke-linecap:round;stroke-linejoin:round;stroke-miterlimit:10;stroke-dasharray:none;stroke-opacity:1"
       transform="matrix(0.08,0,0,-0.08,211.74667,459.21333)" />
    <path
       id="path359"
       d="M 10.5,0 C 10.5,5.79899 5.79899,10.5 0,10.5 -5.79899,10.5 -10.5,5.79899 -10.5,0 c 0,-5.79899 4.70101,-10.5 10.5,-10.5 5.79899,0 10.5,4.70101 10.5,10.5"
       style="fill:none;stroke:#dcdcdc;stroke-width:12;stroke-linecap:round;stroke-linejoin:round;stroke-miterlimit:10;stroke-dasharray:none;stroke-opacity:1"
       transform="matrix(0.08,0,0,-0.08,213.34667,459.21333)" />
    <path
       id="path360"
       d="M 10.5,0 C 10.5,5.79899 5.79899,10.5 0,10.5 -5.79899,10.5 -10.5,5.79899 -10.5,0 c 0,-5.79899 4.70101,-10.5 10.5,-10.5 5.79899,0 10.5,4.70101 10.5,10.5"
       style="fill:none;stroke:#dcdcdc;stroke-width:12;stroke-linecap:round;stroke-linejoin:round;stroke-miterlimit:10;stroke-dasharray:none;stroke-opacity:1"
       transform="matrix(0.08,0,0,-0.08,209.26667,457.77333)" />
    <path
       id="path361"
       d="M 10.5,0 C 10.5,5.79899 5.79899,10.5 0,10.5 -5.79899,10.5 -10.5,5.79899 -10.5,0 c 0,-5.79899 4.70101,-10.5 10.5,-10.5 5.79899,0 10.5,4.70101 10.5,10.5"
       style="fill:none;stroke:#dcdcdc;stroke-width:12;stroke-linecap:round;stroke-linejoin:round;stroke-miterlimit:10;stroke-dasharray:none;stroke-opacity:1"
       transform="matrix(0.08,0,0,-0.08,210.86667,457.77333)" />
    <path
       id="path362"
       d="M 10.5,0 C 10.5,5.79899 5.79899,10.5 0,10.5 -5.79899,10.5 -10.5,5.79899 -10.5,0 c 0,-5.79899 4.70101,-10.5 10.5,-10.5 5.79899,0 10.5,4.70101 10.5,10.5"
       style="fill:none;stroke:#dcdcdc;stroke-width:12;stroke-linecap:round;stroke-linejoin:round;stroke-miterlimit:10;stroke-dasharray:none;stroke-opacity:1"
       transform="matrix(0.08,0,0,-0.08,212.54667,457.77333)" />
    <path
       id="path363"
       d="M 10.5,0 C 10.5,5.79899 5.79899,10.5 0,10.5 -5.79899,10.5 -10.5,5.79899 -10.5,0 c 0,-5.79899 4.70101,-10.5 10.5,-10.5 5.79899,0 10.5,4.70101 10.5,10.5"
       style="fill:none;stroke:#dcdcdc;stroke-width:12;stroke-linecap:round;stroke-linejoin:round;stroke-miterlimit:10;stroke-dasharray:none;stroke-opacity:1"
       transform="matrix(0.08,0,0,-0.08,208.38667,462.09333)" />
    <path
       id="path364"
       d="M 10.5,0 C 10.5,5.79899 5.79899,10.5 0,10.5 -5.79899,10.5 -10.5,5.79899 -10.5,0 c 0,-5.79899 4.70101,-10.5 10.5,-10.5 5.79899,0 10.5,4.70101 10.5,10.5"
       style="fill:none;stroke:#dcdcdc;stroke-width:12;stroke-linecap:round;stroke-linejoin:round;stroke-miterlimit:10;stroke-dasharray:none;stroke-opacity:1"
       transform="matrix(0.08,0,0,-0.08,210.06667,462.09333)" />
    <path
       id="path365"
       d="M 10.5,0 C 10.5,5.79899 5.79899,10.5 0,10.5 -5.79899,10.5 -10.5,5.79899 -10.5,0 c 0,-5.79899 4.70101,-10.5 10.5,-10.5 5.79899,0 10.5,4.70101 10.5,10.5"
       style="fill:none;stroke:#dcdcdc;stroke-width:12;stroke-linecap:round;stroke-linejoin:round;stroke-miterlimit:10;stroke-dasharray:none;stroke-opacity:1"
       transform="matrix(0.08,0,0,-0.08,211.74667,462.09333)" />
    <path
       id="path366"
       d="M 10.5,0 C 10.5,5.79899 5.79899,10.5 0,10.5 -5.79899,10.5 -10.5,5.79899 -10.5,0 c 0,-5.79899 4.70101,-10.5 10.5,-10.5 5.79899,0 10.5,4.70101 10.5,10.5"
       style="fill:none;stroke:#dcdcdc;stroke-width:12;stroke-linecap:round;stroke-linejoin:round;stroke-miterlimit:10;stroke-dasharray:none;stroke-opacity:1"
       transform="matrix(0.08,0,0,-0.08,213.34667,462.09333)" />
    <path
       id="path367"
       d="M 10.5,0 C 10.5,5.79899 5.79899,10.5 0,10.5 -5.79899,10.5 -10.5,5.79899 -10.5,0 c 0,-5.79899 4.70101,-10.5 10.5,-10.5 5.79899,0 10.5,4.70101 10.5,10.5"
       style="fill:none;stroke:#dcdcdc;stroke-width:12;stroke-linecap:round;stroke-linejoin:round;stroke-miterlimit:10;stroke-dasharray:none;stroke-opacity:1"
       transform="matrix(0.08,0,0,-0.08,209.26667,463.53333)" />
    <path
       id="path368"
       d="M 10.5,0 C 10.5,5.79899 5.79899,10.5 0,10.5 -5.79899,10.5 -10.5,5.79899 -10.5,0 c 0,-5.79899 4.70101,-10.5 10.5,-10.5 5.79899,0 10.5,4.70101 10.5,10.5"
       style="fill:none;stroke:#dcdcdc;stroke-width:12;stroke-linecap:round;stroke-linejoin:round;stroke-miterlimit:10;stroke-dasharray:none;stroke-opacity:1"
       transform="matrix(0.08,0,0,-0.08,210.86667,463.53333)" />
    <path
       id="path369"
       d="M 10.5,0 C 10.5,5.79899 5.79899,10.5 0,10.5 -5.79899,10.5 -10.5,5.79899 -10.5,0 c 0,-5.79899 4.70101,-10.5 10.5,-10.5 5.79899,0 10.5,4.70101 10.5,10.5"
       style="fill:none;stroke:#dcdcdc;stroke-width:12;stroke-linecap:round;stroke-linejoin:round;stroke-miterlimit:10;stroke-dasharray:none;stroke-opacity:1"
       transform="matrix(0.08,0,0,-0.08,212.54667,463.53333)" />
  </g>
  <g
     id="layer-oc3"
     transform="translate(-107.46669,-440.58759)">
    <path
       id="path1179"
       d="M 9,31 H 9889 V 14013 H 9"
       style="fill:none;stroke:#000000;stroke-width:1;stroke-linecap:round;stroke-linejoin:round;stroke-miterlimit:10;stroke-dasharray:none;stroke-opacity:1"
       transform="matrix(0,-0.08,-0.08,0,1122.6667,793.33333)" />
  </g>
</svg>
