<?xml version="1.0" encoding="UTF-8" standalone="no"?>
<!-- Created with Inkscape (http://www.inkscape.org/) -->

<svg
   version="1.1"
   id="svg1"
   width="124.94027"
   height="44.941055"
   viewBox="0 0 124.94026 44.941055"
   xmlns="http://www.w3.org/2000/svg"
   xmlns:svg="http://www.w3.org/2000/svg">
  <defs
     id="defs1">
    <clipPath
       clipPathUnits="userSpaceOnUse"
       id="clipPath3">
      <path
         d="M 9,32 H 9888 V 14012 H 9 V 32"
         transform="matrix(0,-1,-1,0,12144,6855)"
         id="path3" />
    </clipPath>
    <clipPath
       clipPathUnits="userSpaceOnUse"
       id="clipPath4">
      <path
         d="M 9,32 H 9888 V 14012 H 9 V 32"
         transform="matrix(0,-1,-1,0,11747,6855)"
         id="path4" />
    </clipPath>
    <clipPath
       clipPathUnits="userSpaceOnUse"
       id="clipPath5">
      <path
         d="M 9,32 H 9888 V 14012 H 9 V 32"
         transform="matrix(0,-1,-1,0,11798,6807)"
         id="path5" />
    </clipPath>
    <clipPath
       clipPathUnits="userSpaceOnUse"
       id="clipPath6">
      <path
         d="M 9,32 H 9888 V 14012 H 9 V 32"
         transform="matrix(0,-1,-1,0,11770,6763)"
         id="path6" />
    </clipPath>
    <clipPath
       clipPathUnits="userSpaceOnUse"
       id="clipPath7">
      <path
         d="M 9,32 H 9888 V 14012 H 9 V 32"
         transform="matrix(0,-1,-1,0,11724,6763)"
         id="path7" />
    </clipPath>
    <clipPath
       clipPathUnits="userSpaceOnUse"
       id="clipPath8">
      <path
         d="M 9,32 H 9888 V 14012 H 9 V 32"
         transform="matrix(0,-1,-1,0,11684,6763)"
         id="path8" />
    </clipPath>
    <clipPath
       clipPathUnits="userSpaceOnUse"
       id="clipPath9">
      <path
         d="M 9,32 H 9888 V 14012 H 9 V 32"
         transform="matrix(0,-1,-1,0,11587,6763)"
         id="path9" />
    </clipPath>
    <clipPath
       clipPathUnits="userSpaceOnUse"
       id="clipPath11">
      <path
         d="M 9,32 H 9888 V 14012 H 9 V 32"
         transform="translate(-4.1666666e-5,4.1666667e-4)"
         id="path11" />
    </clipPath>
    <clipPath
       clipPathUnits="userSpaceOnUse"
       id="clipPath13">
      <path
         d="M 9,32 H 9888 V 14012 H 9 V 32"
         transform="rotate(90,9617,2489.5)"
         id="path13" />
    </clipPath>
    <clipPath
       clipPathUnits="userSpaceOnUse"
       id="clipPath15">
      <path
         d="M 9,32 H 9888 V 14012 H 9 V 32"
         transform="translate(-4.1666666e-5,4.1666667e-4)"
         id="path15" />
    </clipPath>
    <clipPath
       clipPathUnits="userSpaceOnUse"
       id="clipPath17">
      <path
         d="M 9,32 H 9888 V 14012 H 9 V 32"
         transform="translate(-4.1666666e-5,4.1666667e-4)"
         id="path17" />
    </clipPath>
    <clipPath
       clipPathUnits="userSpaceOnUse"
       id="clipPath19">
      <path
         d="M 9,32 H 9888 V 14012 H 9 V 32"
         transform="translate(-4.1666666e-5,4.1666667e-4)"
         id="path19" />
    </clipPath>
    <clipPath
       clipPathUnits="userSpaceOnUse"
       id="clipPath21">
      <path
         d="M 9,32 H 9888 V 14012 H 9 V 32"
         transform="translate(-4.1666666e-5,4.1666667e-4)"
         id="path21" />
    </clipPath>
    <clipPath
       clipPathUnits="userSpaceOnUse"
       id="clipPath23">
      <path
         d="M 9,32 H 9888 V 14012 H 9 V 32"
         transform="translate(-4.1666666e-5,4.1666667e-4)"
         id="path23" />
    </clipPath>
    <clipPath
       clipPathUnits="userSpaceOnUse"
       id="clipPath24">
      <path
         d="M 9,32 H 9888 V 14012 H 9 V 32"
         transform="matrix(0,-1,-1,0,11745,7216)"
         id="path24" />
    </clipPath>
    <clipPath
       clipPathUnits="userSpaceOnUse"
       id="clipPath26">
      <path
         d="M 9,32 H 9888 V 14012 H 9 V 32"
         transform="translate(-4.1666666e-5,4.1666667e-4)"
         id="path26" />
    </clipPath>
    <clipPath
       clipPathUnits="userSpaceOnUse"
       id="clipPath28">
      <path
         d="M 9,32 H 9888 V 14012 H 9 V 32"
         transform="translate(-4.1666666e-5,4.1666667e-4)"
         id="path28" />
    </clipPath>
    <clipPath
       clipPathUnits="userSpaceOnUse"
       id="clipPath30">
      <path
         d="M 9,32 H 9888 V 14012 H 9 V 32"
         transform="translate(-4.1666666e-5,4.1666667e-4)"
         id="path30" />
    </clipPath>
    <clipPath
       clipPathUnits="userSpaceOnUse"
       id="clipPath32">
      <path
         d="M 9,32 H 9888 V 14012 H 9 V 32"
         transform="translate(-4.1666666e-5,4.1666667e-4)"
         id="path32" />
    </clipPath>
    <clipPath
       clipPathUnits="userSpaceOnUse"
       id="clipPath34">
      <path
         d="M 9,32 H 9888 V 14012 H 9 V 32"
         transform="translate(-4.1666666e-5,4.1666667e-4)"
         id="path34" />
    </clipPath>
    <clipPath
       clipPathUnits="userSpaceOnUse"
       id="clipPath35">
      <path
         d="M 9,32 H 9888 V 14012 H 9 V 32"
         transform="matrix(0,-1,-1,0,11873,7014)"
         id="path35" />
    </clipPath>
  </defs>
  <g
     id="layer-oc2"
     transform="translate(-107.46669,-207.38759)">
    <path
       id="path1"
       d="m 7108,12688 v -834"
       style="fill:none;stroke:#000000;stroke-width:4;stroke-linecap:round;stroke-linejoin:round;stroke-miterlimit:10;stroke-dasharray:none;stroke-opacity:1"
       transform="matrix(0,-0.08,-0.08,0,1122.6667,793.33333)" />
    <path
       id="path2"
       d="m 7121,11595 v 511"
       style="fill:none;stroke:#000000;stroke-width:4;stroke-linecap:round;stroke-linejoin:round;stroke-miterlimit:10;stroke-dasharray:none;stroke-opacity:1"
       transform="matrix(0,-0.08,-0.08,0,1122.6667,793.33333)" />
    <text
       id="text2"
       xml:space="preserve"
       transform="matrix(0.08,0,0,0.08,151.14667,244.93333)"
       clip-path="url(#clipPath3)"><tspan
         id="tspan2"
         style="font-variant:normal;font-weight:700;font-size:54.233px;font-family:Arial;writing-mode:lr-tb;fill:#000000;fill-opacity:1;fill-rule:nonzero;stroke:none"
         x="0"
         y="0">EDGE DETAIL: </tspan></text>
    <text
       id="text3"
       xml:space="preserve"
       transform="matrix(0.08,0,0,0.08,182.90667,244.93333)"
       clip-path="url(#clipPath4)"><tspan
         id="tspan3"
         style="font-variant:normal;font-weight:700;font-size:54.233px;font-family:Arial;writing-mode:lr-tb;fill:#000000;fill-opacity:1;fill-rule:nonzero;stroke:none"
         x="0"
         y="0">'4mm CABLE POCKET'</tspan></text>
    <text
       id="text4"
       xml:space="preserve"
       transform="matrix(0.08,0,0,0.08,178.82667,248.77333)"
       clip-path="url(#clipPath5)"><tspan
         id="tspan4"
         style="font-variant:normal;font-weight:normal;font-size:36.155px;font-family:Arial;writing-mode:lr-tb;fill:#000000;fill-opacity:1;fill-rule:nonzero;stroke:none"
         x="0"
         y="0">(TWIN MACHINE)</tspan></text>
    <text
       id="text5"
       xml:space="preserve"
       transform="matrix(0.08,0,0,0.08,181.06667,252.29333)"
       clip-path="url(#clipPath6)"><tspan
         id="tspan5"
         style="font-variant:normal;font-weight:normal;font-size:36.155px;font-family:Arial;writing-mode:lr-tb;fill:#000000;fill-opacity:1;fill-rule:nonzero;stroke:none"
         x="0"
         y="0">IN:</tspan></text>
    <text
       id="text6"
       xml:space="preserve"
       transform="matrix(0.08,0,0,0.08,184.74667,252.29333)"
       clip-path="url(#clipPath7)"><tspan
         id="tspan6"
         style="font-variant:normal;font-weight:normal;font-size:36.155px;font-family:Arial;writing-mode:lr-tb;fill:#000000;fill-opacity:1;fill-rule:nonzero;stroke:none"
         x="0"
         y="0">60</tspan></text>
    <text
       id="text7"
       xml:space="preserve"
       transform="matrix(0.08,0,0,0.08,187.94667,252.29333)"
       clip-path="url(#clipPath8)"><tspan
         id="tspan7"
         style="font-variant:normal;font-weight:normal;font-size:36.155px;font-family:Arial;writing-mode:lr-tb;fill:#000000;fill-opacity:1;fill-rule:nonzero;stroke:none"
         x="0"
         y="0"> OUT:</tspan></text>
    <text
       id="text8"
       xml:space="preserve"
       transform="matrix(0.08,0,0,0.08,195.70667,252.29333)"
       clip-path="url(#clipPath9)"><tspan
         id="tspan8"
         style="font-variant:normal;font-weight:normal;font-size:36.155px;font-family:Arial;writing-mode:lr-tb;fill:#000000;fill-opacity:1;fill-rule:nonzero;stroke:none"
         x="0"
         y="0">100</tspan></text>
    <path
       id="path10"
       d="m 7134,11371 v 735"
       style="fill:none;stroke:#000000;stroke-width:4;stroke-linecap:round;stroke-linejoin:round;stroke-miterlimit:10;stroke-dasharray:none;stroke-opacity:1"
       transform="matrix(0,-0.08,-0.08,0,1122.6667,793.33333)"
       clip-path="url(#clipPath11)" />
    <path
       id="path12"
       d="M -0.01433,6.49998 C -3.60138,6.49207 -6.50395,3.57988 -6.5,-0.00717 -6.49604,-3.59422 -3.58705,-6.5 0,-6.5"
       style="fill:none;stroke:#000000;stroke-width:4;stroke-linecap:round;stroke-linejoin:round;stroke-miterlimit:10;stroke-dasharray:none;stroke-opacity:1"
       transform="matrix(0.08,0,0,-0.08,154.14667,223.13333)"
       clip-path="url(#clipPath13)" />
    <path
       id="path14"
       d="m 7140,12113 h 86"
       style="fill:none;stroke:#000000;stroke-width:4;stroke-linecap:round;stroke-linejoin:round;stroke-miterlimit:10;stroke-dasharray:none;stroke-opacity:1"
       transform="matrix(0,-0.08,-0.08,0,1122.6667,793.33333)"
       clip-path="url(#clipPath15)" />
    <path
       id="path16"
       d="m 7134,11338 h 92"
       style="fill:none;stroke:#000000;stroke-width:4;stroke-linecap:round;stroke-linejoin:round;stroke-miterlimit:10;stroke-dasharray:none;stroke-opacity:1"
       transform="matrix(0,-0.08,-0.08,0,1122.6667,793.33333)"
       clip-path="url(#clipPath17)" />
    <path
       id="path18"
       d="m 7213,12113 v -775"
       style="fill:none;stroke:#000000;stroke-width:4;stroke-linecap:round;stroke-linejoin:round;stroke-miterlimit:10;stroke-dasharray:none;stroke-opacity:1"
       transform="matrix(0,-0.08,-0.08,0,1122.6667,793.33333)"
       clip-path="url(#clipPath19)" />
    <path
       id="path20"
       d="m 7219,12106 -13,13"
       style="fill:none;stroke:#000000;stroke-width:4;stroke-linecap:round;stroke-linejoin:round;stroke-miterlimit:10;stroke-dasharray:none;stroke-opacity:1"
       transform="matrix(0,-0.08,-0.08,0,1122.6667,793.33333)"
       clip-path="url(#clipPath21)" />
    <path
       id="path22"
       d="m 7206,11345 13,-13"
       style="fill:none;stroke:#000000;stroke-width:4;stroke-linecap:round;stroke-linejoin:round;stroke-miterlimit:10;stroke-dasharray:none;stroke-opacity:1"
       transform="matrix(0,-0.08,-0.08,0,1122.6667,793.33333)"
       clip-path="url(#clipPath23)" />
    <text
       id="text23"
       xml:space="preserve"
       transform="matrix(0.08,0,0,0.08,183.06667,216.05333)"
       clip-path="url(#clipPath24)"><tspan
         id="tspan23"
         style="font-variant:normal;font-weight:normal;font-size:36.155px;font-family:Arial;writing-mode:lr-tb;fill:#000000;fill-opacity:1;fill-rule:nonzero;stroke:none"
         x="0"
         y="0">60</tspan></text>
    <path
       id="path25"
       d="m 7095,12113 h -97"
       style="fill:none;stroke:#000000;stroke-width:4;stroke-linecap:round;stroke-linejoin:round;stroke-miterlimit:10;stroke-dasharray:none;stroke-opacity:1"
       transform="matrix(0,-0.08,-0.08,0,1122.6667,793.33333)"
       clip-path="url(#clipPath26)" />
    <path
       id="path27"
       d="M 7108,11595 H 6998"
       style="fill:none;stroke:#000000;stroke-width:4;stroke-linecap:round;stroke-linejoin:round;stroke-miterlimit:10;stroke-dasharray:none;stroke-opacity:1"
       transform="matrix(0,-0.08,-0.08,0,1122.6667,793.33333)"
       clip-path="url(#clipPath28)" />
    <path
       id="path29"
       d="m 7011,12113 v -518"
       style="fill:none;stroke:#000000;stroke-width:4;stroke-linecap:round;stroke-linejoin:round;stroke-miterlimit:10;stroke-dasharray:none;stroke-opacity:1"
       transform="matrix(0,-0.08,-0.08,0,1122.6667,793.33333)"
       clip-path="url(#clipPath30)" />
    <path
       id="path31"
       d="m 7018,12106 -13,13"
       style="fill:none;stroke:#000000;stroke-width:4;stroke-linecap:round;stroke-linejoin:round;stroke-miterlimit:10;stroke-dasharray:none;stroke-opacity:1"
       transform="matrix(0,-0.08,-0.08,0,1122.6667,793.33333)"
       clip-path="url(#clipPath32)" />
    <path
       id="path33"
       d="m 7005,11601 13,-13"
       style="fill:none;stroke:#000000;stroke-width:4;stroke-linecap:round;stroke-linejoin:round;stroke-miterlimit:10;stroke-dasharray:none;stroke-opacity:1"
       transform="matrix(0,-0.08,-0.08,0,1122.6667,793.33333)"
       clip-path="url(#clipPath34)" />
    <text
       id="text34"
       xml:space="preserve"
       transform="matrix(0.08,0,0,0.08,172.82667,232.21333)"
       clip-path="url(#clipPath35)"><tspan
         id="tspan34"
         style="font-variant:normal;font-weight:normal;font-size:36.155px;font-family:Arial;writing-mode:lr-tb;fill:#000000;fill-opacity:1;fill-rule:nonzero;stroke:none"
         x="0"
         y="0">40</tspan></text>
    <text
       id="text223"
       xml:space="preserve"
       transform="matrix(0.08,0,0,0.08,179.54667,209.49333)"><tspan
         id="tspan223"
         style="font-variant:normal;font-weight:normal;font-size:36.155px;font-family:Arial;writing-mode:lr-tb;fill:#000000;fill-opacity:1;fill-rule:nonzero;stroke:none"
         x="0"
         y="0">4mm CABLE</tspan></text>
    <path
       id="path224"
       d="m 7125,11382 -24,-11 19,18 z"
       style="fill:#000000;fill-opacity:1;fill-rule:nonzero;stroke:#000000;stroke-width:1;stroke-linecap:round;stroke-linejoin:miter;stroke-miterlimit:10;stroke-dasharray:none;stroke-opacity:1"
       transform="matrix(0,-0.08,-0.08,0,1122.6667,793.33333)" />
    <path
       id="path225"
       d="m 7123,11385 188,133 v 39"
       style="fill:none;stroke:#000000;stroke-width:12;stroke-linecap:round;stroke-linejoin:round;stroke-miterlimit:10;stroke-dasharray:none;stroke-opacity:1"
       transform="matrix(0,-0.08,-0.08,0,1122.6667,793.33333)" />
    <text
       id="text225"
       xml:space="preserve"
       transform="matrix(0.08,0,0,0.08,226.10667,238.29333)"><tspan
         id="tspan225"
         style="font-variant:normal;font-weight:normal;font-size:36.155px;font-family:Arial;writing-mode:lr-tb;fill:#000000;fill-opacity:1;fill-rule:nonzero;stroke:none"
         x="0"
         y="0">FWP</tspan></text>
    <path
       id="path226"
       d="m 7076,11332 25,6 -21,-14 z"
       style="fill:#000000;fill-opacity:1;fill-rule:nonzero;stroke:#000000;stroke-width:1;stroke-linecap:round;stroke-linejoin:miter;stroke-miterlimit:10;stroke-dasharray:none;stroke-opacity:1"
       transform="matrix(0,-0.08,-0.08,0,1122.6667,793.33333)" />
    <path
       id="path227"
       d="m 7078,11328 -127,-59 v -39"
       style="fill:none;stroke:#000000;stroke-width:12;stroke-linecap:round;stroke-linejoin:round;stroke-miterlimit:10;stroke-dasharray:none;stroke-opacity:1"
       transform="matrix(0,-0.08,-0.08,0,1122.6667,793.33333)" />
    <path
       id="path228"
       d="M 12.5,0 C 12.5,6.90356 6.90356,12.5 0,12.5 -6.90356,12.5 -12.5,6.90356 -12.5,0 c 0,-6.90356 5.59644,-12.5 12.5,-12.5 6.90356,0 12.5,5.59644 12.5,12.5"
       style="fill:none;stroke:#ff0000;stroke-width:12;stroke-linecap:round;stroke-linejoin:round;stroke-miterlimit:10;stroke-dasharray:none;stroke-opacity:1"
       transform="matrix(0.08,0,0,-0.08,215.58667,225.21333)" />
    <path
       id="path229"
       d="m 7083,11357 37,-37"
       style="fill:none;stroke:#ff0000;stroke-width:12;stroke-linecap:round;stroke-linejoin:round;stroke-miterlimit:10;stroke-dasharray:none;stroke-opacity:1"
       transform="matrix(0,-0.08,-0.08,0,1122.6667,793.33333)" />
    <path
       id="path230"
       d="m 7083,11320 37,37"
       style="fill:none;stroke:#ff0000;stroke-width:12;stroke-linecap:round;stroke-linejoin:round;stroke-miterlimit:10;stroke-dasharray:none;stroke-opacity:1"
       transform="matrix(0,-0.08,-0.08,0,1122.6667,793.33333)" />
  </g>
  <g
     id="layer-oc1"
     transform="translate(-107.46669,-207.38759)">
    <path
       id="path202"
       d="M 25.5,0 C 25.5,14.08326 14.08326,25.5 0,25.5 -14.08326,25.5 -25.5,14.08326 -25.5,0 c 0,-14.08326 11.41674,-25.5 25.5,-25.5 14.08326,0 25.5,11.41674 25.5,25.5"
       style="fill:none;stroke:#000000;stroke-width:12;stroke-linecap:round;stroke-linejoin:round;stroke-miterlimit:10;stroke-dasharray:none;stroke-opacity:1"
       transform="matrix(0.08,0,0,-0.08,212.94667,225.21333)" />
    <path
       id="path203"
       d="m -5.19365,-32.08233 c 12.07734,-1.95514 24.22936,3.03794 31.44317,12.91953 7.2138,9.88159 8.26693,22.97714 2.72496,33.88454 C 23.43251,25.62913 12.23457,32.5 0,32.5"
       style="fill:none;stroke:#000000;stroke-width:12;stroke-linecap:round;stroke-linejoin:round;stroke-miterlimit:10;stroke-dasharray:none;stroke-opacity:1"
       transform="matrix(0.08,0,0,-0.08,212.94667,225.21333)" />
    <path
       id="path204"
       d="m 7069,11371 39,483"
       style="fill:none;stroke:#000000;stroke-width:12;stroke-linecap:round;stroke-linejoin:round;stroke-miterlimit:10;stroke-dasharray:none;stroke-opacity:1"
       transform="matrix(0,-0.08,-0.08,0,1122.6667,793.33333)" />
    <path
       id="path205"
       d="M 5.5,0 C 5.5,3.03757 3.03757,5.5 0,5.5 -3.03757,5.5 -5.5,3.03757 -5.5,0 c 0,-3.03757 2.46243,-5.5 5.5,-5.5 3.03757,0 5.5,2.46243 5.5,5.5"
       style="fill:none;stroke:#dcdcdc;stroke-width:12;stroke-linecap:round;stroke-linejoin:round;stroke-miterlimit:10;stroke-dasharray:none;stroke-opacity:1"
       transform="matrix(0.08,0,0,-0.08,212.94667,225.21333)" />
    <path
       id="path206"
       d="M 5.5,0 C 5.5,3.03757 3.03757,5.5 0,5.5 -3.03757,5.5 -5.5,3.03757 -5.5,0 c 0,-3.03757 2.46243,-5.5 5.5,-5.5 3.03757,0 5.5,2.46243 5.5,5.5"
       style="fill:none;stroke:#dcdcdc;stroke-width:12;stroke-linecap:round;stroke-linejoin:round;stroke-miterlimit:10;stroke-dasharray:none;stroke-opacity:1"
       transform="matrix(0.08,0,0,-0.08,212.14667,225.21333)" />
    <path
       id="path207"
       d="M 5.5,0 C 5.5,3.03757 3.03757,5.5 0,5.5 -3.03757,5.5 -5.5,3.03757 -5.5,0 c 0,-3.03757 2.46243,-5.5 5.5,-5.5 3.03757,0 5.5,2.46243 5.5,5.5"
       style="fill:none;stroke:#dcdcdc;stroke-width:12;stroke-linecap:round;stroke-linejoin:round;stroke-miterlimit:10;stroke-dasharray:none;stroke-opacity:1"
       transform="matrix(0.08,0,0,-0.08,211.26667,225.21333)" />
    <path
       id="path208"
       d="M 5.5,0 C 5.5,3.03757 3.03757,5.5 0,5.5 -3.03757,5.5 -5.5,3.03757 -5.5,0 c 0,-3.03757 2.46243,-5.5 5.5,-5.5 3.03757,0 5.5,2.46243 5.5,5.5"
       style="fill:none;stroke:#dcdcdc;stroke-width:12;stroke-linecap:round;stroke-linejoin:round;stroke-miterlimit:10;stroke-dasharray:none;stroke-opacity:1"
       transform="matrix(0.08,0,0,-0.08,213.82667,225.21333)" />
    <path
       id="path209"
       d="M 5.5,0 C 5.5,3.03757 3.03757,5.5 0,5.5 -3.03757,5.5 -5.5,3.03757 -5.5,0 c 0,-3.03757 2.46243,-5.5 5.5,-5.5 3.03757,0 5.5,2.46243 5.5,5.5"
       style="fill:none;stroke:#dcdcdc;stroke-width:12;stroke-linecap:round;stroke-linejoin:round;stroke-miterlimit:10;stroke-dasharray:none;stroke-opacity:1"
       transform="matrix(0.08,0,0,-0.08,214.62667,225.21333)" />
    <path
       id="path210"
       d="M 5.5,0 C 5.5,3.03757 3.03757,5.5 0,5.5 -3.03757,5.5 -5.5,3.03757 -5.5,0 c 0,-3.03757 2.46243,-5.5 5.5,-5.5 3.03757,0 5.5,2.46243 5.5,5.5"
       style="fill:none;stroke:#dcdcdc;stroke-width:12;stroke-linecap:round;stroke-linejoin:round;stroke-miterlimit:10;stroke-dasharray:none;stroke-opacity:1"
       transform="matrix(0.08,0,0,-0.08,211.74667,224.49333)" />
    <path
       id="path211"
       d="M 5.5,0 C 5.5,3.03757 3.03757,5.5 0,5.5 -3.03757,5.5 -5.5,3.03757 -5.5,0 c 0,-3.03757 2.46243,-5.5 5.5,-5.5 3.03757,0 5.5,2.46243 5.5,5.5"
       style="fill:none;stroke:#dcdcdc;stroke-width:12;stroke-linecap:round;stroke-linejoin:round;stroke-miterlimit:10;stroke-dasharray:none;stroke-opacity:1"
       transform="matrix(0.08,0,0,-0.08,212.54667,224.49333)" />
    <path
       id="path212"
       d="M 5.5,0 C 5.5,3.03757 3.03757,5.5 0,5.5 -3.03757,5.5 -5.5,3.03757 -5.5,0 c 0,-3.03757 2.46243,-5.5 5.5,-5.5 3.03757,0 5.5,2.46243 5.5,5.5"
       style="fill:none;stroke:#dcdcdc;stroke-width:12;stroke-linecap:round;stroke-linejoin:round;stroke-miterlimit:10;stroke-dasharray:none;stroke-opacity:1"
       transform="matrix(0.08,0,0,-0.08,213.34667,224.49333)" />
    <path
       id="path213"
       d="M 5.5,0 C 5.5,3.03757 3.03757,5.5 0,5.5 -3.03757,5.5 -5.5,3.03757 -5.5,0 c 0,-3.03757 2.46243,-5.5 5.5,-5.5 3.03757,0 5.5,2.46243 5.5,5.5"
       style="fill:none;stroke:#dcdcdc;stroke-width:12;stroke-linecap:round;stroke-linejoin:round;stroke-miterlimit:10;stroke-dasharray:none;stroke-opacity:1"
       transform="matrix(0.08,0,0,-0.08,214.22667,224.49333)" />
    <path
       id="path214"
       d="M 5.5,0 C 5.5,3.03757 3.03757,5.5 0,5.5 -3.03757,5.5 -5.5,3.03757 -5.5,0 c 0,-3.03757 2.46243,-5.5 5.5,-5.5 3.03757,0 5.5,2.46243 5.5,5.5"
       style="fill:none;stroke:#dcdcdc;stroke-width:12;stroke-linecap:round;stroke-linejoin:round;stroke-miterlimit:10;stroke-dasharray:none;stroke-opacity:1"
       transform="matrix(0.08,0,0,-0.08,212.94667,223.77333)" />
    <path
       id="path215"
       d="M 5.5,0 C 5.5,3.03757 3.03757,5.5 0,5.5 -3.03757,5.5 -5.5,3.03757 -5.5,0 c 0,-3.03757 2.46243,-5.5 5.5,-5.5 3.03757,0 5.5,2.46243 5.5,5.5"
       style="fill:none;stroke:#dcdcdc;stroke-width:12;stroke-linecap:round;stroke-linejoin:round;stroke-miterlimit:10;stroke-dasharray:none;stroke-opacity:1"
       transform="matrix(0.08,0,0,-0.08,212.14667,223.77333)" />
    <path
       id="path216"
       d="M 5.5,0 C 5.5,3.03757 3.03757,5.5 0,5.5 -3.03757,5.5 -5.5,3.03757 -5.5,0 c 0,-3.03757 2.46243,-5.5 5.5,-5.5 3.03757,0 5.5,2.46243 5.5,5.5"
       style="fill:none;stroke:#dcdcdc;stroke-width:12;stroke-linecap:round;stroke-linejoin:round;stroke-miterlimit:10;stroke-dasharray:none;stroke-opacity:1"
       transform="matrix(0.08,0,0,-0.08,213.82667,223.77333)" />
    <path
       id="path217"
       d="M 5.5,0 C 5.5,3.03757 3.03757,5.5 0,5.5 -3.03757,5.5 -5.5,3.03757 -5.5,0 c 0,-3.03757 2.46243,-5.5 5.5,-5.5 3.03757,0 5.5,2.46243 5.5,5.5"
       style="fill:none;stroke:#dcdcdc;stroke-width:12;stroke-linecap:round;stroke-linejoin:round;stroke-miterlimit:10;stroke-dasharray:none;stroke-opacity:1"
       transform="matrix(0.08,0,0,-0.08,211.74667,225.85333)" />
    <path
       id="path218"
       d="M 5.5,0 C 5.5,3.03757 3.03757,5.5 0,5.5 -3.03757,5.5 -5.5,3.03757 -5.5,0 c 0,-3.03757 2.46243,-5.5 5.5,-5.5 3.03757,0 5.5,2.46243 5.5,5.5"
       style="fill:none;stroke:#dcdcdc;stroke-width:12;stroke-linecap:round;stroke-linejoin:round;stroke-miterlimit:10;stroke-dasharray:none;stroke-opacity:1"
       transform="matrix(0.08,0,0,-0.08,212.54667,225.85333)" />
    <path
       id="path219"
       d="M 5.5,0 C 5.5,3.03757 3.03757,5.5 0,5.5 -3.03757,5.5 -5.5,3.03757 -5.5,0 c 0,-3.03757 2.46243,-5.5 5.5,-5.5 3.03757,0 5.5,2.46243 5.5,5.5"
       style="fill:none;stroke:#dcdcdc;stroke-width:12;stroke-linecap:round;stroke-linejoin:round;stroke-miterlimit:10;stroke-dasharray:none;stroke-opacity:1"
       transform="matrix(0.08,0,0,-0.08,213.34667,225.85333)" />
    <path
       id="path220"
       d="M 5.5,0 C 5.5,3.03757 3.03757,5.5 0,5.5 -3.03757,5.5 -5.5,3.03757 -5.5,0 c 0,-3.03757 2.46243,-5.5 5.5,-5.5 3.03757,0 5.5,2.46243 5.5,5.5"
       style="fill:none;stroke:#dcdcdc;stroke-width:12;stroke-linecap:round;stroke-linejoin:round;stroke-miterlimit:10;stroke-dasharray:none;stroke-opacity:1"
       transform="matrix(0.08,0,0,-0.08,214.22667,225.85333)" />
    <path
       id="path221"
       d="M 5.5,0 C 5.5,3.03757 3.03757,5.5 0,5.5 -3.03757,5.5 -5.5,3.03757 -5.5,0 c 0,-3.03757 2.46243,-5.5 5.5,-5.5 3.03757,0 5.5,2.46243 5.5,5.5"
       style="fill:none;stroke:#dcdcdc;stroke-width:12;stroke-linecap:round;stroke-linejoin:round;stroke-miterlimit:10;stroke-dasharray:none;stroke-opacity:1"
       transform="matrix(0.08,0,0,-0.08,212.94667,226.57333)" />
    <path
       id="path222"
       d="M 5.5,0 C 5.5,3.03757 3.03757,5.5 0,5.5 -3.03757,5.5 -5.5,3.03757 -5.5,0 c 0,-3.03757 2.46243,-5.5 5.5,-5.5 3.03757,0 5.5,2.46243 5.5,5.5"
       style="fill:none;stroke:#dcdcdc;stroke-width:12;stroke-linecap:round;stroke-linejoin:round;stroke-miterlimit:10;stroke-dasharray:none;stroke-opacity:1"
       transform="matrix(0.08,0,0,-0.08,212.14667,226.57333)" />
    <path
       id="path223"
       d="M 5.5,0 C 5.5,3.03757 3.03757,5.5 0,5.5 -3.03757,5.5 -5.5,3.03757 -5.5,0 c 0,-3.03757 2.46243,-5.5 5.5,-5.5 3.03757,0 5.5,2.46243 5.5,5.5"
       style="fill:none;stroke:#dcdcdc;stroke-width:12;stroke-linecap:round;stroke-linejoin:round;stroke-miterlimit:10;stroke-dasharray:none;stroke-opacity:1"
       transform="matrix(0.08,0,0,-0.08,213.82667,226.57333)" />
  </g>
  <g
     id="layer-oc3"
     transform="translate(-107.46669,-207.38759)">
    <path
       id="path1179"
       d="M 9,31 H 9889 V 14013 H 9"
       style="fill:none;stroke:#000000;stroke-width:1;stroke-linecap:round;stroke-linejoin:round;stroke-miterlimit:10;stroke-dasharray:none;stroke-opacity:1"
       transform="matrix(0,-0.08,-0.08,0,1122.6667,793.33333)" />
  </g>
</svg>
