<?xml version="1.0" encoding="UTF-8" standalone="no"?>
<!-- Created with Inkscape (http://www.inkscape.org/) -->

<svg
   version="1.1"
   id="svg1"
   width="215.68515"
   height="190.63998"
   viewBox="0 0 215.68514 190.63998"
   xmlns="http://www.w3.org/2000/svg"
   xmlns:svg="http://www.w3.org/2000/svg">
  <defs
     id="defs1">
    <clipPath
       clipPathUnits="userSpaceOnUse"
       id="clipPath114">
      <path
         d="M 9,32 H 9888 V 14012 H 9 V 32"
         transform="translate(-4.1666666e-5,4.1666667e-4)"
         id="path114" />
    </clipPath>
    <clipPath
       clipPathUnits="userSpaceOnUse"
       id="clipPath116">
      <path
         d="M 9,32 H 9888 V 14012 H 9 V 32"
         transform="translate(-4.1666666e-5,4.1666667e-4)"
         id="path116" />
    </clipPath>
    <clipPath
       clipPathUnits="userSpaceOnUse"
       id="clipPath118">
      <path
         d="M 9,32 H 9888 V 14012 H 9 V 32"
         transform="translate(-4.1666666e-5,4.1666667e-4)"
         id="path118" />
    </clipPath>
    <clipPath
       clipPathUnits="userSpaceOnUse"
       id="clipPath120">
      <path
         d="M 9,32 H 9888 V 14012 H 9 V 32"
         transform="translate(-4.1666666e-5,4.1666667e-4)"
         id="path120" />
    </clipPath>
    <clipPath
       clipPathUnits="userSpaceOnUse"
       id="clipPath122">
      <path
         d="M 9,32 H 9888 V 14012 H 9 V 32"
         transform="translate(-4.1666666e-5,4.1666667e-4)"
         id="path122" />
    </clipPath>
    <clipPath
       clipPathUnits="userSpaceOnUse"
       id="clipPath124">
      <path
         d="M 9,32 H 9888 V 14012 H 9 V 32"
         transform="translate(-4.1666666e-5,4.1666667e-4)"
         id="path124" />
    </clipPath>
    <clipPath
       clipPathUnits="userSpaceOnUse"
       id="clipPath126">
      <path
         d="M 9,32 H 9888 V 14012 H 9 V 32"
         transform="rotate(90,5302.5,1808)"
         id="path126" />
    </clipPath>
    <clipPath
       clipPathUnits="userSpaceOnUse"
       id="clipPath128">
      <path
         d="M 9,32 H 9888 V 14012 H 9 V 32"
         transform="rotate(90,5223.5,1922)"
         id="path128" />
    </clipPath>
    <clipPath
       clipPathUnits="userSpaceOnUse"
       id="clipPath130">
      <path
         d="M 9,32 H 9888 V 14012 H 9 V 32"
         transform="rotate(90,5302.5,1808)"
         id="path130" />
    </clipPath>
    <clipPath
       clipPathUnits="userSpaceOnUse"
       id="clipPath132">
      <path
         d="M 9,32 H 9888 V 14012 H 9 V 32"
         transform="rotate(90,5188,1886.5)"
         id="path132" />
    </clipPath>
    <clipPath
       clipPathUnits="userSpaceOnUse"
       id="clipPath134">
      <path
         d="M 9,32 H 9888 V 14012 H 9 V 32"
         transform="rotate(90,5302.5,1808)"
         id="path134" />
    </clipPath>
    <clipPath
       clipPathUnits="userSpaceOnUse"
       id="clipPath136">
      <path
         d="M 9,32 H 9888 V 14012 H 9 V 32"
         transform="rotate(90,5302.5,1808)"
         id="path136" />
    </clipPath>
    <clipPath
       clipPathUnits="userSpaceOnUse"
       id="clipPath138">
      <path
         d="M 9,32 H 9888 V 14012 H 9 V 32"
         transform="translate(-4.1666666e-5,4.1666667e-4)"
         id="path138" />
    </clipPath>
    <clipPath
       clipPathUnits="userSpaceOnUse"
       id="clipPath140">
      <path
         d="M 9,32 H 9888 V 14012 H 9 V 32"
         transform="rotate(90,5415,1870.5)"
         id="path140" />
    </clipPath>
    <clipPath
       clipPathUnits="userSpaceOnUse"
       id="clipPath142">
      <path
         d="M 9,32 H 9888 V 14012 H 9 V 32"
         transform="translate(-4.1666666e-5,4.1666667e-4)"
         id="path142" />
    </clipPath>
    <clipPath
       clipPathUnits="userSpaceOnUse"
       id="clipPath144">
      <path
         d="M 9,32 H 9888 V 14012 H 9 V 32"
         transform="rotate(90,5240,1695.5)"
         id="path144" />
    </clipPath>
    <clipPath
       clipPathUnits="userSpaceOnUse"
       id="clipPath146">
      <path
         d="M 9,32 H 9888 V 14012 H 9 V 32"
         transform="translate(-4.1666666e-5,4.1666667e-4)"
         id="path146" />
    </clipPath>
    <clipPath
       clipPathUnits="userSpaceOnUse"
       id="clipPath148">
      <path
         d="M 9,32 H 9888 V 14012 H 9 V 32"
         transform="rotate(90,5459.5,1753)"
         id="path148" />
    </clipPath>
    <clipPath
       clipPathUnits="userSpaceOnUse"
       id="clipPath150">
      <path
         d="M 9,32 H 9888 V 14012 H 9 V 32"
         transform="rotate(90,5357.5,1651)"
         id="path150" />
    </clipPath>
    <clipPath
       clipPathUnits="userSpaceOnUse"
       id="clipPath152">
      <path
         d="M 9,32 H 9888 V 14012 H 9 V 32"
         transform="translate(-4.1666666e-5,4.1666667e-4)"
         id="path152" />
    </clipPath>
    <clipPath
       clipPathUnits="userSpaceOnUse"
       id="clipPath154">
      <path
         d="M 9,32 H 9888 V 14012 H 9 V 32"
         transform="translate(-4.1666666e-5,4.1666667e-4)"
         id="path154" />
    </clipPath>
    <clipPath
       clipPathUnits="userSpaceOnUse"
       id="clipPath156">
      <path
         d="M 9,32 H 9888 V 14012 H 9 V 32"
         transform="rotate(90,5202.5,1918)"
         id="path156" />
    </clipPath>
    <clipPath
       clipPathUnits="userSpaceOnUse"
       id="clipPath158">
      <path
         d="M 9,32 H 9888 V 14012 H 9 V 32"
         transform="translate(-4.1666666e-5,4.1666667e-4)"
         id="path158" />
    </clipPath>
    <clipPath
       clipPathUnits="userSpaceOnUse"
       id="clipPath160">
      <path
         d="M 9,32 H 9888 V 14012 H 9 V 32"
         transform="rotate(90,5192.5,1908)"
         id="path160" />
    </clipPath>
    <clipPath
       clipPathUnits="userSpaceOnUse"
       id="clipPath162">
      <path
         d="M 9,32 H 9888 V 14012 H 9 V 32"
         transform="translate(-4.1666666e-5,4.1666667e-4)"
         id="path162" />
    </clipPath>
    <clipPath
       clipPathUnits="userSpaceOnUse"
       id="clipPath164">
      <path
         d="M 9,32 H 9888 V 14012 H 9 V 32"
         transform="translate(-4.1666666e-5,4.1666667e-4)"
         id="path164" />
    </clipPath>
    <clipPath
       clipPathUnits="userSpaceOnUse"
       id="clipPath166">
      <path
         d="M 9,32 H 9888 V 14012 H 9 V 32"
         transform="translate(-4.1666666e-5,4.1666667e-4)"
         id="path166" />
    </clipPath>
    <clipPath
       clipPathUnits="userSpaceOnUse"
       id="clipPath168">
      <path
         d="M 9,32 H 9888 V 14012 H 9 V 32"
         transform="translate(-4.1666666e-5,4.1666667e-4)"
         id="path168" />
    </clipPath>
    <clipPath
       clipPathUnits="userSpaceOnUse"
       id="clipPath170">
      <path
         d="M 9,32 H 9888 V 14012 H 9 V 32"
         transform="translate(-4.1666666e-5,4.1666667e-4)"
         id="path170" />
    </clipPath>
    <clipPath
       clipPathUnits="userSpaceOnUse"
       id="clipPath172">
      <path
         d="M 9,32 H 9888 V 14012 H 9 V 32"
         transform="translate(-4.1666666e-5,4.1666667e-4)"
         id="path172" />
    </clipPath>
    <clipPath
       clipPathUnits="userSpaceOnUse"
       id="clipPath174">
      <path
         d="M 9,32 H 9888 V 14012 H 9 V 32"
         transform="translate(-4.1666666e-5,4.1666667e-4)"
         id="path174" />
    </clipPath>
    <clipPath
       clipPathUnits="userSpaceOnUse"
       id="clipPath176">
      <path
         d="M 9,32 H 9888 V 14012 H 9 V 32"
         transform="translate(-4.1666666e-5,4.1666667e-4)"
         id="path176" />
    </clipPath>
    <clipPath
       clipPathUnits="userSpaceOnUse"
       id="clipPath178">
      <path
         d="M 9,32 H 9888 V 14012 H 9 V 32"
         transform="translate(-4.1666666e-5,4.1666667e-4)"
         id="path178" />
    </clipPath>
    <clipPath
       clipPathUnits="userSpaceOnUse"
       id="clipPath180">
      <path
         d="M 9,32 H 9888 V 14012 H 9 V 32"
         transform="translate(-4.1666666e-5,4.1666667e-4)"
         id="path180" />
    </clipPath>
    <clipPath
       clipPathUnits="userSpaceOnUse"
       id="clipPath182">
      <path
         d="M 9,32 H 9888 V 14012 H 9 V 32"
         transform="translate(-4.1666666e-5,4.1666667e-4)"
         id="path182" />
    </clipPath>
    <clipPath
       clipPathUnits="userSpaceOnUse"
       id="clipPath184">
      <path
         d="M 9,32 H 9888 V 14012 H 9 V 32"
         transform="translate(-4.1666666e-5,4.1666667e-4)"
         id="path184" />
    </clipPath>
    <clipPath
       clipPathUnits="userSpaceOnUse"
       id="clipPath186">
      <path
         d="M 9,32 H 9888 V 14012 H 9 V 32"
         transform="translate(-4.1666666e-5,4.1666667e-4)"
         id="path186" />
    </clipPath>
    <clipPath
       clipPathUnits="userSpaceOnUse"
       id="clipPath188">
      <path
         d="M 9,32 H 9888 V 14012 H 9 V 32"
         transform="translate(-4.1666666e-5,4.1666667e-4)"
         id="path188" />
    </clipPath>
    <clipPath
       clipPathUnits="userSpaceOnUse"
       id="clipPath190">
      <path
         d="M 9,32 H 9888 V 14012 H 9 V 32"
         transform="translate(-4.1666666e-5,4.1666667e-4)"
         id="path190" />
    </clipPath>
    <clipPath
       clipPathUnits="userSpaceOnUse"
       id="clipPath192">
      <path
         d="M 9,32 H 9888 V 14012 H 9 V 32"
         transform="translate(-4.1666666e-5,4.1666667e-4)"
         id="path192" />
    </clipPath>
    <clipPath
       clipPathUnits="userSpaceOnUse"
       id="clipPath194">
      <path
         d="M 9,32 H 9888 V 14012 H 9 V 32"
         transform="translate(-4.1666666e-5,4.1666667e-4)"
         id="path194" />
    </clipPath>
    <clipPath
       clipPathUnits="userSpaceOnUse"
       id="clipPath196">
      <path
         d="M 9,32 H 9888 V 14012 H 9 V 32"
         transform="translate(-4.1666666e-5,4.1666667e-4)"
         id="path196" />
    </clipPath>
    <clipPath
       clipPathUnits="userSpaceOnUse"
       id="clipPath198">
      <path
         d="M 9,32 H 9888 V 14012 H 9 V 32"
         transform="translate(-4.1666666e-5,4.1666667e-4)"
         id="path198" />
    </clipPath>
    <clipPath
       clipPathUnits="userSpaceOnUse"
       id="clipPath200">
      <path
         d="M 9,32 H 9888 V 14012 H 9 V 32"
         transform="translate(-4.1666666e-5,4.1666667e-4)"
         id="path200" />
    </clipPath>
    <clipPath
       clipPathUnits="userSpaceOnUse"
       id="clipPath202">
      <path
         d="M 9,32 H 9888 V 14012 H 9 V 32"
         transform="translate(-4.1666666e-5,4.1666667e-4)"
         id="path202" />
    </clipPath>
    <clipPath
       clipPathUnits="userSpaceOnUse"
       id="clipPath204">
      <path
         d="M 9,32 H 9888 V 14012 H 9 V 32"
         transform="translate(-4.1666666e-5,4.1666667e-4)"
         id="path204" />
    </clipPath>
    <clipPath
       clipPathUnits="userSpaceOnUse"
       id="clipPath206">
      <path
         d="M 9,32 H 9888 V 14012 H 9 V 32"
         transform="rotate(90,5240,1870.5)"
         id="path206" />
    </clipPath>
    <clipPath
       clipPathUnits="userSpaceOnUse"
       id="clipPath208">
      <path
         d="M 9,32 H 9888 V 14012 H 9 V 32"
         transform="translate(-4.1666666e-5,4.1666667e-4)"
         id="path208" />
    </clipPath>
    <clipPath
       clipPathUnits="userSpaceOnUse"
       id="clipPath210">
      <path
         d="M 9,32 H 9888 V 14012 H 9 V 32"
         transform="translate(-4.1666666e-5,4.1666667e-4)"
         id="path210" />
    </clipPath>
    <clipPath
       clipPathUnits="userSpaceOnUse"
       id="clipPath212">
      <path
         d="M 9,32 H 9888 V 14012 H 9 V 32"
         transform="translate(-4.1666666e-5,4.1666667e-4)"
         id="path212" />
    </clipPath>
    <clipPath
       clipPathUnits="userSpaceOnUse"
       id="clipPath214">
      <path
         d="M 9,32 H 9888 V 14012 H 9 V 32"
         transform="translate(-4.1666666e-5,4.1666667e-4)"
         id="path214" />
    </clipPath>
    <clipPath
       clipPathUnits="userSpaceOnUse"
       id="clipPath216">
      <path
         d="M 9,32 H 9888 V 14012 H 9 V 32"
         transform="translate(-4.1666666e-5,4.1666667e-4)"
         id="path216" />
    </clipPath>
    <clipPath
       clipPathUnits="userSpaceOnUse"
       id="clipPath218">
      <path
         d="M 9,32 H 9888 V 14012 H 9 V 32"
         transform="rotate(90,5296,1576.5)"
         id="path218" />
    </clipPath>
    <clipPath
       clipPathUnits="userSpaceOnUse"
       id="clipPath220">
      <path
         d="M 9,32 H 9888 V 14012 H 9 V 32"
         transform="translate(-4.1666666e-5,4.1666667e-4)"
         id="path220" />
    </clipPath>
    <clipPath
       clipPathUnits="userSpaceOnUse"
       id="clipPath222">
      <path
         d="M 9,32 H 9888 V 14012 H 9 V 32"
         transform="rotate(90,5533.5,1814)"
         id="path222" />
    </clipPath>
    <clipPath
       clipPathUnits="userSpaceOnUse"
       id="clipPath224">
      <path
         d="M 9,32 H 9888 V 14012 H 9 V 32"
         transform="translate(-4.1666666e-5,4.1666667e-4)"
         id="path224" />
    </clipPath>
    <clipPath
       clipPathUnits="userSpaceOnUse"
       id="clipPath226">
      <path
         d="M 9,32 H 9888 V 14012 H 9 V 32"
         transform="translate(-4.1666666e-5,4.1666667e-4)"
         id="path226" />
    </clipPath>
    <clipPath
       clipPathUnits="userSpaceOnUse"
       id="clipPath228">
      <path
         d="M 9,32 H 9888 V 14012 H 9 V 32"
         transform="translate(-4.1666666e-5,4.1666667e-4)"
         id="path228" />
    </clipPath>
    <clipPath
       clipPathUnits="userSpaceOnUse"
       id="clipPath230">
      <path
         d="M 9,32 H 9888 V 14012 H 9 V 32"
         transform="translate(-4.1666666e-5,4.1666667e-4)"
         id="path230" />
    </clipPath>
    <clipPath
       clipPathUnits="userSpaceOnUse"
       id="clipPath232">
      <path
         d="M 9,32 H 9888 V 14012 H 9 V 32"
         transform="translate(-4.1666666e-5,4.1666667e-4)"
         id="path232" />
    </clipPath>
    <clipPath
       clipPathUnits="userSpaceOnUse"
       id="clipPath234">
      <path
         d="M 9,32 H 9888 V 14012 H 9 V 32"
         transform="translate(-4.1666666e-5,4.1666667e-4)"
         id="path234" />
    </clipPath>
    <clipPath
       clipPathUnits="userSpaceOnUse"
       id="clipPath236">
      <path
         d="M 9,32 H 9888 V 14012 H 9 V 32"
         transform="translate(-4.1666666e-5,4.1666667e-4)"
         id="path236" />
    </clipPath>
    <clipPath
       clipPathUnits="userSpaceOnUse"
       id="clipPath238">
      <path
         d="M 9,32 H 9888 V 14012 H 9 V 32"
         transform="translate(-4.1666666e-5,4.1666667e-4)"
         id="path238" />
    </clipPath>
    <clipPath
       clipPathUnits="userSpaceOnUse"
       id="clipPath240">
      <path
         d="M 9,32 H 9888 V 14012 H 9 V 32"
         transform="translate(-4.1666666e-5,4.1666667e-4)"
         id="path240" />
    </clipPath>
    <clipPath
       clipPathUnits="userSpaceOnUse"
       id="clipPath241">
      <path
         d="M 9,32 H 9888 V 14012 H 9 V 32"
         transform="matrix(0,-1,-1,0,6672,4031)"
         id="path241" />
    </clipPath>
    <clipPath
       clipPathUnits="userSpaceOnUse"
       id="clipPath243">
      <path
         d="M 9,32 H 9888 V 14012 H 9 V 32"
         transform="translate(-4.1666666e-5,4.1666667e-4)"
         id="path243" />
    </clipPath>
    <clipPath
       clipPathUnits="userSpaceOnUse"
       id="clipPath245">
      <path
         d="M 9,32 H 9888 V 14012 H 9 V 32"
         transform="translate(-4.1666666e-5,4.1666667e-4)"
         id="path245" />
    </clipPath>
    <clipPath
       clipPathUnits="userSpaceOnUse"
       id="clipPath368">
      <path
         d="M 9,32 H 9888 V 14012 H 9 V 32"
         transform="translate(-4.1666666e-5,4.1666667e-4)"
         id="path368" />
    </clipPath>
  </defs>
  <g
     id="layer-oc5"
     transform="translate(-446.26107,-340.93333)">
    <path
       id="path113"
       d="m 3567,6949 v 49"
       style="fill:none;stroke:#000000;stroke-width:4;stroke-linecap:round;stroke-linejoin:round;stroke-miterlimit:10;stroke-dasharray:none;stroke-opacity:1"
       transform="matrix(0,-0.08,-0.08,0,1122.6667,793.33333)"
       clip-path="url(#clipPath114)" />
    <path
       id="path115"
       d="m 3567,7237 v 33"
       style="fill:none;stroke:#000000;stroke-width:4;stroke-linecap:round;stroke-linejoin:round;stroke-miterlimit:10;stroke-dasharray:none;stroke-opacity:1"
       transform="matrix(0,-0.08,-0.08,0,1122.6667,793.33333)"
       clip-path="url(#clipPath116)" />
    <path
       id="path117"
       d="m 3530,6959 v 120"
       style="fill:none;stroke:#000000;stroke-width:4;stroke-linecap:round;stroke-linejoin:round;stroke-miterlimit:10;stroke-dasharray:none;stroke-opacity:1"
       transform="matrix(0,-0.08,-0.08,0,1122.6667,793.33333)"
       clip-path="url(#clipPath118)" />
    <path
       id="path119"
       d="m 3530,7141 v 120 h -64"
       style="fill:none;stroke:#000000;stroke-width:4;stroke-linecap:round;stroke-linejoin:round;stroke-miterlimit:10;stroke-dasharray:none;stroke-opacity:1"
       transform="matrix(0,-0.08,-0.08,0,1122.6667,793.33333)"
       clip-path="url(#clipPath120)" />
    <path
       id="path121"
       d="m 3544,6926 h -81"
       style="fill:none;stroke:#000000;stroke-width:4;stroke-linecap:round;stroke-linejoin:round;stroke-miterlimit:10;stroke-dasharray:none;stroke-opacity:1"
       transform="matrix(0,-0.08,-0.08,0,1122.6667,793.33333)"
       clip-path="url(#clipPath122)" />
    <path
       id="path123"
       d="m 3530,6959 h -64"
       style="fill:none;stroke:#000000;stroke-width:4;stroke-linecap:round;stroke-linejoin:round;stroke-miterlimit:10;stroke-dasharray:none;stroke-opacity:1"
       transform="matrix(0,-0.08,-0.08,0,1122.6667,793.33333)"
       clip-path="url(#clipPath124)" />
    <path
       id="path125"
       d="m -183.92874,-30.86211 c 12.98944,-77.41311 73.06042,-138.40684 150.26653,-152.57481"
       style="fill:none;stroke:#000000;stroke-width:4;stroke-linecap:round;stroke-linejoin:round;stroke-miterlimit:10;stroke-dasharray:none;stroke-opacity:1"
       transform="matrix(0.08,0,0,-0.08,553.82667,513.77333)"
       clip-path="url(#clipPath126)" />
    <path
       id="path127"
       d="M 9.01335,3.00159 C 7.91882,6.28832 5.12199,8.71871 1.7147,9.34397"
       style="fill:none;stroke:#000000;stroke-width:4;stroke-linecap:round;stroke-linejoin:round;stroke-miterlimit:10;stroke-dasharray:none;stroke-opacity:1"
       transform="matrix(0.08,0,0,-0.08,551.02667,529.21333)"
       clip-path="url(#clipPath128)" />
    <path
       id="path129"
       d="m 33.66221,-183.43692 c 77.20611,14.16797 137.27709,75.1617 150.26653,152.57481"
       style="fill:none;stroke:#000000;stroke-width:4;stroke-linecap:round;stroke-linejoin:round;stroke-miterlimit:10;stroke-dasharray:none;stroke-opacity:1"
       transform="matrix(0.08,0,0,-0.08,553.82667,513.77333)"
       clip-path="url(#clipPath130)" />
    <path
       id="path131"
       d="M -1.7147,9.34397 C -5.12199,8.71871 -7.91882,6.28832 -9.01335,3.00159"
       style="fill:none;stroke:#000000;stroke-width:4;stroke-linecap:round;stroke-linejoin:round;stroke-miterlimit:10;stroke-dasharray:none;stroke-opacity:1"
       transform="matrix(0.08,0,0,-0.08,556.70667,529.21333)"
       clip-path="url(#clipPath132)" />
    <path
       id="path133"
       d="m -150.92819,-27.98087 c 11.4022,-61.5033 58.9835,-109.93611 120.2749,-122.42733"
       style="fill:none;stroke:#000000;stroke-width:4;stroke-linecap:round;stroke-linejoin:round;stroke-miterlimit:10;stroke-dasharray:none;stroke-opacity:1"
       transform="matrix(0.08,0,0,-0.08,553.82667,513.77333)"
       clip-path="url(#clipPath134)" />
    <path
       id="path135"
       d="m 30.65329,-150.4082 c 61.2914,12.49122 108.8727,60.92403 120.2749,122.42733"
       style="fill:none;stroke:#000000;stroke-width:4;stroke-linecap:round;stroke-linejoin:round;stroke-miterlimit:10;stroke-dasharray:none;stroke-opacity:1"
       transform="matrix(0.08,0,0,-0.08,553.82667,513.77333)"
       clip-path="url(#clipPath136)" />
    <path
       id="path137"
       d="m 3463,7294 h 81"
       style="fill:none;stroke:#000000;stroke-width:4;stroke-linecap:round;stroke-linejoin:round;stroke-miterlimit:10;stroke-dasharray:none;stroke-opacity:1"
       transform="matrix(0,-0.08,-0.08,0,1122.6667,793.33333)"
       clip-path="url(#clipPath138)" />
    <path
       id="path139"
       d="M -5.93474,7.41814 C -8.1882,5.6153 -9.5,2.88588 -9.5,0"
       style="fill:none;stroke:#000000;stroke-width:4;stroke-linecap:round;stroke-linejoin:round;stroke-miterlimit:10;stroke-dasharray:none;stroke-opacity:1"
       transform="matrix(0.08,0,0,-0.08,539.82667,509.77333)"
       clip-path="url(#clipPath140)" />
    <path
       id="path141"
       d="m 3567,7270 -16,21"
       style="fill:none;stroke:#000000;stroke-width:4;stroke-linecap:round;stroke-linejoin:round;stroke-miterlimit:10;stroke-dasharray:none;stroke-opacity:1"
       transform="matrix(0,-0.08,-0.08,0,1122.6667,793.33333)"
       clip-path="url(#clipPath142)" />
    <path
       id="path143"
       d="M 9.5,0 C 9.5,2.88588 8.1882,5.6153 5.93474,7.41814"
       style="fill:none;stroke:#000000;stroke-width:4;stroke-linecap:round;stroke-linejoin:round;stroke-miterlimit:10;stroke-dasharray:none;stroke-opacity:1"
       transform="matrix(0.08,0,0,-0.08,567.82667,509.77333)"
       clip-path="url(#clipPath144)" />
    <path
       id="path145"
       d="m 3567,6949 -16,-20"
       style="fill:none;stroke:#000000;stroke-width:4;stroke-linecap:round;stroke-linejoin:round;stroke-miterlimit:10;stroke-dasharray:none;stroke-opacity:1"
       transform="matrix(0,-0.08,-0.08,0,1122.6667,793.33333)"
       clip-path="url(#clipPath146)" />
    <path
       id="path147"
       d="m -81.56749,-158.77341 c 18.94618,-9.73332 39.4815,-15.99705 60.63465,-18.49493"
       style="fill:none;stroke:#000000;stroke-width:4;stroke-linecap:round;stroke-linejoin:round;stroke-miterlimit:10;stroke-dasharray:none;stroke-opacity:1"
       transform="matrix(0.08,0,0,-0.08,545.66667,496.81333)"
       clip-path="url(#clipPath148)" />
    <path
       id="path149"
       d="m 20.93284,-177.26834 c 21.15315,2.49788 41.68847,8.76161 60.63465,18.49493"
       style="fill:none;stroke:#000000;stroke-width:4;stroke-linecap:round;stroke-linejoin:round;stroke-miterlimit:10;stroke-dasharray:none;stroke-opacity:1"
       transform="matrix(0.08,0,0,-0.08,561.98667,496.81333)"
       clip-path="url(#clipPath150)" />
    <path
       id="path151"
       d="m 3281,7091 23,-8"
       style="fill:none;stroke:#000000;stroke-width:4;stroke-linecap:round;stroke-linejoin:round;stroke-miterlimit:10;stroke-dasharray:none;stroke-opacity:1"
       transform="matrix(0,-0.08,-0.08,0,1122.6667,793.33333)"
       clip-path="url(#clipPath152)" />
    <path
       id="path153"
       d="m 3281,7129 23,7"
       style="fill:none;stroke:#000000;stroke-width:4;stroke-linecap:round;stroke-linejoin:round;stroke-miterlimit:10;stroke-dasharray:none;stroke-opacity:1"
       transform="matrix(0,-0.08,-0.08,0,1122.6667,793.33333)"
       clip-path="url(#clipPath154)" />
    <path
       id="path155"
       d="M -9.01335,-3.00159 C -7.72106,-6.88216 -4.09009,-9.5 0,-9.5"
       style="fill:none;stroke:#000000;stroke-width:4;stroke-linecap:round;stroke-linejoin:round;stroke-miterlimit:10;stroke-dasharray:none;stroke-opacity:1"
       transform="matrix(0.08,0,0,-0.08,553.02667,530.57333)"
       clip-path="url(#clipPath156)" />
    <path
       id="path157"
       d="m 3274,7100 v 20"
       style="fill:none;stroke:#000000;stroke-width:4;stroke-linecap:round;stroke-linejoin:round;stroke-miterlimit:10;stroke-dasharray:none;stroke-opacity:1"
       transform="matrix(0,-0.08,-0.08,0,1122.6667,793.33333)"
       clip-path="url(#clipPath158)" />
    <path
       id="path159"
       d="m 0,-9.5 c 4.09009,0 7.72106,2.61784 9.01335,6.49841"
       style="fill:none;stroke:#000000;stroke-width:4;stroke-linecap:round;stroke-linejoin:round;stroke-miterlimit:10;stroke-dasharray:none;stroke-opacity:1"
       transform="matrix(0.08,0,0,-0.08,554.62667,530.57333)"
       clip-path="url(#clipPath160)" />
    <path
       id="path161"
       d="m 3554,7288 180,47"
       style="fill:none;stroke:#000000;stroke-width:4;stroke-linecap:round;stroke-linejoin:round;stroke-miterlimit:10;stroke-dasharray:none;stroke-opacity:1"
       transform="matrix(0,-0.08,-0.08,0,1122.6667,793.33333)"
       clip-path="url(#clipPath162)" />
    <path
       id="path163"
       d="m 3501,7294 211,55 209,59 208,63 206,68 206,72 203,75 202,80"
       style="fill:none;stroke:#000000;stroke-width:4;stroke-linecap:round;stroke-linejoin:round;stroke-miterlimit:10;stroke-dasharray:none;stroke-opacity:1"
       transform="matrix(0,-0.08,-0.08,0,1122.6667,793.33333)"
       clip-path="url(#clipPath164)" />
    <path
       id="path165"
       d="m 5122,7840 212,93 209,98"
       style="fill:none;stroke:#000000;stroke-width:4;stroke-linecap:round;stroke-linejoin:round;stroke-miterlimit:10;stroke-dasharray:none;stroke-opacity:1"
       transform="matrix(0,-0.08,-0.08,0,1122.6667,793.33333)"
       clip-path="url(#clipPath166)" />
    <path
       id="path167"
       d="m 3804,7110 193,54 192,59 191,62 190,65 189,69 187,72"
       style="fill:none;stroke:#000000;stroke-width:4;stroke-linecap:round;stroke-linejoin:round;stroke-miterlimit:10;stroke-dasharray:none;stroke-opacity:1"
       transform="matrix(0,-0.08,-0.08,0,1122.6667,793.33333)"
       clip-path="url(#clipPath168)" />
    <path
       id="path169"
       d="m 5122,7563 179,76 177,79 175,83"
       style="fill:none;stroke:#000000;stroke-width:4;stroke-linecap:round;stroke-linejoin:round;stroke-miterlimit:10;stroke-dasharray:none;stroke-opacity:1"
       transform="matrix(0,-0.08,-0.08,0,1122.6667,793.33333)"
       clip-path="url(#clipPath170)" />
    <path
       id="path171"
       d="m 3797,7132 195,56 193,58 80,26"
       style="fill:none;stroke:#ff0000;stroke-width:2;stroke-linecap:round;stroke-linejoin:round;stroke-miterlimit:10;stroke-dasharray:none;stroke-opacity:1"
       transform="matrix(0,-0.08,-0.08,0,1122.6667,793.33333)"
       clip-path="url(#clipPath172)" />
    <path
       id="path173"
       d="m 4489,7347 79,28 190,69 188,73"
       style="fill:none;stroke:#ff0000;stroke-width:2;stroke-linecap:round;stroke-linejoin:round;stroke-miterlimit:10;stroke-dasharray:none;stroke-opacity:1"
       transform="matrix(0,-0.08,-0.08,0,1122.6667,793.33333)"
       clip-path="url(#clipPath174)" />
    <path
       id="path175"
       d="m 5122,7588 175,75 174,78 172,81"
       style="fill:none;stroke:#ff0000;stroke-width:2;stroke-linecap:round;stroke-linejoin:round;stroke-miterlimit:10;stroke-dasharray:none;stroke-opacity:1"
       transform="matrix(0,-0.08,-0.08,0,1122.6667,793.33333)"
       clip-path="url(#clipPath176)" />
    <path
       id="path177"
       d="m 3772,7223 199,57 198,60 84,28"
       style="fill:none;stroke:#ff0000;stroke-width:2;stroke-linecap:round;stroke-linejoin:round;stroke-miterlimit:10;stroke-dasharray:none;stroke-opacity:1"
       transform="matrix(0,-0.08,-0.08,0,1122.6667,793.33333)"
       clip-path="url(#clipPath178)" />
    <path
       id="path179"
       d="m 4477,7443 83,29 194,71 192,76"
       style="fill:none;stroke:#ff0000;stroke-width:2;stroke-linecap:round;stroke-linejoin:round;stroke-miterlimit:10;stroke-dasharray:none;stroke-opacity:1"
       transform="matrix(0,-0.08,-0.08,0,1122.6667,793.33333)"
       clip-path="url(#clipPath180)" />
    <path
       id="path181"
       d="m 5122,7691 161,70 160,72 159,74"
       style="fill:none;stroke:#ff0000;stroke-width:2;stroke-linecap:round;stroke-linejoin:round;stroke-miterlimit:10;stroke-dasharray:none;stroke-opacity:1"
       transform="matrix(0,-0.08,-0.08,0,1122.6667,793.33333)"
       clip-path="url(#clipPath182)" />
    <path
       id="path183"
       d="m 3734,6884 -180,48"
       style="fill:none;stroke:#000000;stroke-width:4;stroke-linecap:round;stroke-linejoin:round;stroke-miterlimit:10;stroke-dasharray:none;stroke-opacity:1"
       transform="matrix(0,-0.08,-0.08,0,1122.6667,793.33333)"
       clip-path="url(#clipPath184)" />
    <path
       id="path185"
       d="m 5543,6189 -209,98 -212,93"
       style="fill:none;stroke:#000000;stroke-width:4;stroke-linecap:round;stroke-linejoin:round;stroke-miterlimit:10;stroke-dasharray:none;stroke-opacity:1"
       transform="matrix(0,-0.08,-0.08,0,1122.6667,793.33333)"
       clip-path="url(#clipPath186)" />
    <path
       id="path187"
       d="m 4946,6453 -202,80 -203,76 -206,72 -206,67 -208,64 -209,59 -211,55"
       style="fill:none;stroke:#000000;stroke-width:4;stroke-linecap:round;stroke-linejoin:round;stroke-miterlimit:10;stroke-dasharray:none;stroke-opacity:1"
       transform="matrix(0,-0.08,-0.08,0,1122.6667,793.33333)"
       clip-path="url(#clipPath188)" />
    <path
       id="path189"
       d="m 5653,6419 -175,82 -177,80 -179,76"
       style="fill:none;stroke:#000000;stroke-width:4;stroke-linecap:round;stroke-linejoin:round;stroke-miterlimit:10;stroke-dasharray:none;stroke-opacity:1"
       transform="matrix(0,-0.08,-0.08,0,1122.6667,793.33333)"
       clip-path="url(#clipPath190)" />
    <path
       id="path191"
       d="m 4946,6728 -187,73 -189,68 -190,66 -191,62 -192,58 -193,55"
       style="fill:none;stroke:#000000;stroke-width:4;stroke-linecap:round;stroke-linejoin:round;stroke-miterlimit:10;stroke-dasharray:none;stroke-opacity:1"
       transform="matrix(0,-0.08,-0.08,0,1122.6667,793.33333)"
       clip-path="url(#clipPath192)" />
    <path
       id="path193"
       d="m 5643,6397 -172,81 -174,78 -175,75"
       style="fill:none;stroke:#ff0000;stroke-width:2;stroke-linecap:round;stroke-linejoin:round;stroke-miterlimit:10;stroke-dasharray:none;stroke-opacity:1"
       transform="matrix(0,-0.08,-0.08,0,1122.6667,793.33333)"
       clip-path="url(#clipPath194)" />
    <path
       id="path195"
       d="m 4946,6703 -188,73 -190,69 -79,27"
       style="fill:none;stroke:#ff0000;stroke-width:2;stroke-linecap:round;stroke-linejoin:round;stroke-miterlimit:10;stroke-dasharray:none;stroke-opacity:1"
       transform="matrix(0,-0.08,-0.08,0,1122.6667,793.33333)"
       clip-path="url(#clipPath196)" />
    <path
       id="path197"
       d="m 4265,6947 -80,26 -193,59 -195,55"
       style="fill:none;stroke:#ff0000;stroke-width:2;stroke-linecap:round;stroke-linejoin:round;stroke-miterlimit:10;stroke-dasharray:none;stroke-opacity:1"
       transform="matrix(0,-0.08,-0.08,0,1122.6667,793.33333)"
       clip-path="url(#clipPath198)" />
    <path
       id="path199"
       d="m 5602,6312 -159,75 -160,72 -161,70"
       style="fill:none;stroke:#ff0000;stroke-width:2;stroke-linecap:round;stroke-linejoin:round;stroke-miterlimit:10;stroke-dasharray:none;stroke-opacity:1"
       transform="matrix(0,-0.08,-0.08,0,1122.6667,793.33333)"
       clip-path="url(#clipPath200)" />
    <path
       id="path201"
       d="m 4946,6601 -192,75 -194,72 -83,29"
       style="fill:none;stroke:#ff0000;stroke-width:2;stroke-linecap:round;stroke-linejoin:round;stroke-miterlimit:10;stroke-dasharray:none;stroke-opacity:1"
       transform="matrix(0,-0.08,-0.08,0,1122.6667,793.33333)"
       clip-path="url(#clipPath202)" />
    <path
       id="path203"
       d="m 4253,6852 -84,27 -198,61 -199,56"
       style="fill:none;stroke:#ff0000;stroke-width:2;stroke-linecap:round;stroke-linejoin:round;stroke-miterlimit:10;stroke-dasharray:none;stroke-opacity:1"
       transform="matrix(0,-0.08,-0.08,0,1122.6667,793.33333)"
       clip-path="url(#clipPath204)" />
    <path
       id="path205"
       d="m 306.86212,1383.8865 c -202.12008,44.818 -411.60416,44.818 -613.72424,0"
       style="fill:none;stroke:#000000;stroke-width:4;stroke-linecap:round;stroke-linejoin:round;stroke-miterlimit:10;stroke-dasharray:none;stroke-opacity:1"
       transform="matrix(0.08,0,0,-0.08,553.82667,523.77333)"
       clip-path="url(#clipPath206)" />
    <path
       id="path207"
       d="m 3728,6889 -161,83"
       style="fill:none;stroke:#000000;stroke-width:4;stroke-linecap:round;stroke-linejoin:round;stroke-miterlimit:10;stroke-dasharray:none;stroke-opacity:1"
       transform="matrix(0,-0.08,-0.08,0,1122.6667,793.33333)"
       clip-path="url(#clipPath208)" />
    <path
       id="path209"
       d="m 3728,7330 -161,-83"
       style="fill:none;stroke:#000000;stroke-width:4;stroke-linecap:round;stroke-linejoin:round;stroke-miterlimit:10;stroke-dasharray:none;stroke-opacity:1"
       transform="matrix(0,-0.08,-0.08,0,1122.6667,793.33333)"
       clip-path="url(#clipPath210)" />
    <path
       id="path211"
       d="m 3530,7020 v 59"
       style="fill:none;stroke:#000000;stroke-width:4;stroke-linecap:round;stroke-linejoin:round;stroke-miterlimit:10;stroke-dasharray:none;stroke-opacity:1"
       transform="matrix(0,-0.08,-0.08,0,1122.6667,793.33333)"
       clip-path="url(#clipPath212)" />
    <path
       id="path213"
       d="m 3530,7141 v 58"
       style="fill:none;stroke:#000000;stroke-width:4;stroke-linecap:round;stroke-linejoin:round;stroke-miterlimit:10;stroke-dasharray:none;stroke-opacity:1"
       transform="matrix(0,-0.08,-0.08,0,1122.6667,793.33333)"
       clip-path="url(#clipPath214)" />
    <path
       id="path215"
       d="m 3737,6867 -1,-3"
       style="fill:none;stroke:#000000;stroke-width:4;stroke-linecap:round;stroke-linejoin:round;stroke-miterlimit:10;stroke-dasharray:none;stroke-opacity:1"
       transform="matrix(0,-0.08,-0.08,0,1122.6667,793.33333)"
       clip-path="url(#clipPath216)" />
    <path
       id="path217"
       d="m 4.88973,17.8421 c -8.42271,2.30829 -17.31244,-1.58797 -21.3233,-9.34576"
       style="fill:none;stroke:#000000;stroke-width:4;stroke-linecap:round;stroke-linejoin:round;stroke-miterlimit:10;stroke-dasharray:none;stroke-opacity:1"
       transform="matrix(0.08,0,0,-0.08,572.86667,495.77333)"
       clip-path="url(#clipPath218)" />
    <path
       id="path219"
       d="m 3737,7352 -1,4"
       style="fill:none;stroke:#000000;stroke-width:4;stroke-linecap:round;stroke-linejoin:round;stroke-miterlimit:10;stroke-dasharray:none;stroke-opacity:1"
       transform="matrix(0,-0.08,-0.08,0,1122.6667,793.33333)"
       clip-path="url(#clipPath220)" />
    <path
       id="path221"
       d="M 16.43357,8.49634 C 12.42271,16.25413 3.53298,20.15039 -4.88973,17.8421"
       style="fill:none;stroke:#000000;stroke-width:4;stroke-linecap:round;stroke-linejoin:round;stroke-miterlimit:10;stroke-dasharray:none;stroke-opacity:1"
       transform="matrix(0.08,0,0,-0.08,534.86667,495.77333)"
       clip-path="url(#clipPath222)" />
    <path
       id="path223"
       d="m 3530,6992 253,42"
       style="fill:none;stroke:#000000;stroke-width:4;stroke-linecap:round;stroke-linejoin:round;stroke-miterlimit:10;stroke-dasharray:none;stroke-opacity:1"
       transform="matrix(0,-0.08,-0.08,0,1122.6667,793.33333)"
       clip-path="url(#clipPath224)" />
    <path
       id="path225"
       d="m 3965,7064 273,46"
       style="fill:none;stroke:#000000;stroke-width:4;stroke-linecap:round;stroke-linejoin:round;stroke-miterlimit:10;stroke-dasharray:none;stroke-opacity:1"
       transform="matrix(0,-0.08,-0.08,0,1122.6667,793.33333)"
       clip-path="url(#clipPath226)" />
    <path
       id="path227"
       d="m 3530,7231 230,39"
       style="fill:none;stroke:#000000;stroke-width:4;stroke-linecap:round;stroke-linejoin:round;stroke-miterlimit:10;stroke-dasharray:none;stroke-opacity:1"
       transform="matrix(0,-0.08,-0.08,0,1122.6667,793.33333)"
       clip-path="url(#clipPath228)" />
    <path
       id="path229"
       d="m 3567,6982 193,-32"
       style="fill:none;stroke:#000000;stroke-width:4;stroke-linecap:round;stroke-linejoin:round;stroke-miterlimit:10;stroke-dasharray:none;stroke-opacity:1"
       transform="matrix(0,-0.08,-0.08,0,1122.6667,793.33333)"
       clip-path="url(#clipPath230)" />
    <path
       id="path231"
       d="m 4218,6988 20,122 -20,122"
       style="fill:none;stroke:#000000;stroke-width:4;stroke-linecap:round;stroke-linejoin:round;stroke-miterlimit:10;stroke-dasharray:none;stroke-opacity:1"
       transform="matrix(0,-0.08,-0.08,0,1122.6667,793.33333)"
       clip-path="url(#clipPath232)" />
    <path
       id="path233"
       d="m 3736,7356 68,-246 -68,-246"
       style="fill:none;stroke:#000000;stroke-width:4;stroke-linecap:round;stroke-linejoin:round;stroke-miterlimit:10;stroke-dasharray:none;stroke-opacity:1"
       transform="matrix(0,-0.08,-0.08,0,1122.6667,793.33333)"
       clip-path="url(#clipPath234)" />
    <path
       id="path235"
       d="m 4218,7232 -19,111 -439,-73"
       style="fill:none;stroke:#000000;stroke-width:2;stroke-linecap:round;stroke-linejoin:round;stroke-miterlimit:10;stroke-dasharray:none;stroke-opacity:1"
       transform="matrix(0,-0.08,-0.08,0,1122.6667,793.33333)"
       clip-path="url(#clipPath236)" />
    <path
       id="path237"
       d="m 4218,6988 -19,-111 -439,73"
       style="fill:none;stroke:#000000;stroke-width:2;stroke-linecap:round;stroke-linejoin:round;stroke-miterlimit:10;stroke-dasharray:none;stroke-opacity:1"
       transform="matrix(0,-0.08,-0.08,0,1122.6667,793.33333)"
       clip-path="url(#clipPath238)" />
    <path
       id="path239"
       d="M 3591,7247 V 6982"
       style="fill:none;stroke:#ff0000;stroke-width:2;stroke-linecap:round;stroke-linejoin:round;stroke-miterlimit:10;stroke-dasharray:none;stroke-opacity:1"
       transform="matrix(0,-0.08,-0.08,0,1122.6667,793.33333)"
       clip-path="url(#clipPath240)" />
    <text
       id="text240"
       xml:space="preserve"
       transform="matrix(0.08,0,0,0.08,588.90667,470.85333)"
       clip-path="url(#clipPath241)"><tspan
         id="tspan240"
         style="font-variant:normal;font-weight:normal;font-size:52.803px;font-family:Arial;writing-mode:lr-tb;fill:#000000;fill-opacity:1;fill-rule:nonzero;stroke:none"
         x="0"
         y="0">50mm WEBBING</tspan></text>
    <path
       id="path242"
       d="m 3687,7054 363,-361 v -14"
       style="fill:none;stroke:#000000;stroke-width:12;stroke-linecap:round;stroke-linejoin:round;stroke-miterlimit:10;stroke-dasharray:none;stroke-opacity:1"
       transform="matrix(0,-0.08,-0.08,0,1122.6667,793.33333)"
       clip-path="url(#clipPath243)" />
    <path
       id="path244"
       d="m 3682,7049 -22,31 31,-22 z"
       style="fill:#000000;fill-opacity:1;fill-rule:nonzero;stroke:#000000;stroke-width:1;stroke-linecap:round;stroke-linejoin:miter;stroke-miterlimit:10;stroke-dasharray:none;stroke-opacity:1"
       transform="matrix(0,-0.08,-0.08,0,1122.6667,793.33333)"
       clip-path="url(#clipPath245)" />
    <path
       id="path367"
       d="m 3324,7141 v -62 h 236 v 62 h -236"
       style="fill:none;stroke:#000000;stroke-width:12;stroke-linecap:round;stroke-linejoin:round;stroke-miterlimit:10;stroke-dasharray:none;stroke-opacity:1"
       transform="matrix(0,-0.08,-0.08,0,1122.6667,793.33333)"
       clip-path="url(#clipPath368)" />
    <path
       id="path408"
       d="m 306.86212,1383.8865 c -202.12008,44.818 -411.60416,44.818 -613.72424,0"
       style="fill:none;stroke:#000000;stroke-width:4;stroke-linecap:round;stroke-linejoin:round;stroke-miterlimit:10;stroke-dasharray:none;stroke-opacity:1"
       transform="matrix(0.08,0,0,-0.08,553.82667,523.77333)" />
  </g>
  <g
     id="layer-oc6"
     transform="translate(-446.26107,-340.93333)">
    <text
       id="text514"
       xml:space="preserve"
       transform="matrix(0.08,0,0,0.08,445.78667,394.45333)"><tspan
         id="tspan514"
         style="font-variant:normal;font-weight:normal;font-size:132.009px;font-family:Arial;writing-mode:lr-tb;fill:#000000;fill-opacity:1;fill-rule:nonzero;stroke:none"
         x="0"
         y="0">SMALL PRO-RIG DEE RING WITH M12 PIPE</tspan></text>
  </g>
  <g
     id="layer-oc3"
     transform="translate(-446.26107,-340.93333)">
    <path
       id="path514"
       d="M 9,31 H 9889 V 14013 H 9"
       style="fill:none;stroke:#000000;stroke-width:1;stroke-linecap:round;stroke-linejoin:round;stroke-miterlimit:10;stroke-dasharray:none;stroke-opacity:1"
       transform="matrix(0,-0.08,-0.08,0,1122.6667,793.33333)" />
  </g>
</svg>
