<?xml version="1.0" encoding="UTF-8" standalone="no"?>
<!-- Created with Inkscape (http://www.inkscape.org/) -->

<svg
   version="1.1"
   id="svg1"
   width="127.60001"
   height="37.547157"
   viewBox="0 0 127.6 37.547157"
   xmlns="http://www.w3.org/2000/svg"
   xmlns:svg="http://www.w3.org/2000/svg">
  <defs
     id="defs1" />
  <g
     id="layer-oc2"
     transform="translate(-116.58672,-98.302895)">
    <path
       id="path178"
       d="M 0,6.5 C -3.58985,6.5 -6.5,3.58985 -6.5,0"
       style="fill:none;stroke:#000000;stroke-width:4;stroke-linecap:round;stroke-linejoin:round;stroke-miterlimit:10;stroke-dasharray:none;stroke-opacity:1"
       transform="matrix(0.08,0,0,-0.08,162.70667,110.17333)" />
    <path
       id="path179"
       d="m 8533,11999 v -434"
       style="fill:none;stroke:#000000;stroke-width:4;stroke-linecap:round;stroke-linejoin:round;stroke-miterlimit:10;stroke-dasharray:none;stroke-opacity:1"
       transform="matrix(0,-0.08,-0.08,0,1122.6667,793.33333)" />
    <path
       id="path180"
       d="m -6.5,0 c 0,-3.58985 2.91015,-6.5 6.5,-6.5"
       style="fill:none;stroke:#000000;stroke-width:4;stroke-linecap:round;stroke-linejoin:round;stroke-miterlimit:10;stroke-dasharray:none;stroke-opacity:1"
       transform="matrix(0.08,0,0,-0.08,162.70667,110.17333)" />
    <path
       id="path181"
       d="M 8526,12574 V 11559"
       style="fill:none;stroke:#000000;stroke-width:4;stroke-linecap:round;stroke-linejoin:round;stroke-miterlimit:10;stroke-dasharray:none;stroke-opacity:1"
       transform="matrix(0,-0.08,-0.08,0,1122.6667,793.33333)" />
    <path
       id="path182"
       d="M 6.5,0 C 6.5,3.58985 3.58985,6.5 0,6.5"
       style="fill:none;stroke:#000000;stroke-width:4;stroke-linecap:round;stroke-linejoin:round;stroke-miterlimit:10;stroke-dasharray:none;stroke-opacity:1"
       transform="matrix(0.08,0,0,-0.08,197.90667,110.65333)" />
    <path
       id="path183"
       d="m 0,-6.5 c 3.58985,0 6.5,2.91015 6.5,6.5"
       style="fill:none;stroke:#000000;stroke-width:4;stroke-linecap:round;stroke-linejoin:round;stroke-miterlimit:10;stroke-dasharray:none;stroke-opacity:1"
       transform="matrix(0.08,0,0,-0.08,197.90667,110.65333)" />
    <path
       id="path184"
       d="m 8539,11559 v 433"
       style="fill:none;stroke:#000000;stroke-width:4;stroke-linecap:round;stroke-linejoin:round;stroke-miterlimit:10;stroke-dasharray:none;stroke-opacity:1"
       transform="matrix(0,-0.08,-0.08,0,1122.6667,793.33333)" />
    <path
       id="path185"
       d="m 8526,12005 h -54"
       style="fill:none;stroke:#000000;stroke-width:4;stroke-linecap:round;stroke-linejoin:round;stroke-miterlimit:10;stroke-dasharray:none;stroke-opacity:1"
       transform="matrix(0,-0.08,-0.08,0,1122.6667,793.33333)" />
    <path
       id="path186"
       d="m 8520,11552 h -48"
       style="fill:none;stroke:#000000;stroke-width:4;stroke-linecap:round;stroke-linejoin:round;stroke-miterlimit:10;stroke-dasharray:none;stroke-opacity:1"
       transform="matrix(0,-0.08,-0.08,0,1122.6667,793.33333)" />
    <path
       id="path187"
       d="m 8485,12005 v -453"
       style="fill:none;stroke:#000000;stroke-width:4;stroke-linecap:round;stroke-linejoin:round;stroke-miterlimit:10;stroke-dasharray:none;stroke-opacity:1"
       transform="matrix(0,-0.08,-0.08,0,1122.6667,793.33333)" />
    <path
       id="path188"
       d="m 8492,11999 -13,13"
       style="fill:none;stroke:#000000;stroke-width:4;stroke-linecap:round;stroke-linejoin:round;stroke-miterlimit:10;stroke-dasharray:none;stroke-opacity:1"
       transform="matrix(0,-0.08,-0.08,0,1122.6667,793.33333)" />
    <path
       id="path189"
       d="m 8479,11559 13,-13"
       style="fill:none;stroke:#000000;stroke-width:4;stroke-linecap:round;stroke-linejoin:round;stroke-miterlimit:10;stroke-dasharray:none;stroke-opacity:1"
       transform="matrix(0,-0.08,-0.08,0,1122.6667,793.33333)" />
    <text
       id="text189"
       xml:space="preserve"
       transform="matrix(0.08,0,0,0.08,178.74667,114.21333)"><tspan
         id="tspan189"
         style="font-variant:normal;font-weight:normal;font-size:36.155px;font-family:Arial;writing-mode:lr-tb;fill:#000000;fill-opacity:1;fill-rule:nonzero;stroke:none"
         x="0"
         y="0">35</tspan></text>
    <text
       id="text190"
       xml:space="preserve"
       transform="matrix(0.08,0,0,0.08,158.82667,128.53333)"><tspan
         id="tspan190"
         style="font-variant:normal;font-weight:700;font-size:54.233px;font-family:Arial;writing-mode:lr-tb;fill:#000000;fill-opacity:1;fill-rule:nonzero;stroke:none"
         x="0"
         y="0">EDGE DETAIL: </tspan></text>
    <text
       id="text191"
       xml:space="preserve"
       transform="matrix(0.08,0,0,0.08,190.66667,128.53333)"><tspan
         id="tspan191"
         style="font-variant:normal;font-weight:700;font-size:54.233px;font-family:Arial;writing-mode:lr-tb;fill:#000000;fill-opacity:1;fill-rule:nonzero;stroke:none"
         x="0"
         y="0">'SEAM'</tspan></text>
    <text
       id="text192"
       xml:space="preserve"
       transform="matrix(0.08,0,0,0.08,170.02667,132.37333)"><tspan
         id="tspan192"
         style="font-variant:normal;font-weight:normal;font-size:36.155px;font-family:Arial;writing-mode:lr-tb;fill:#000000;fill-opacity:1;fill-rule:nonzero;stroke:none"
         x="0"
         y="0">(TWIN MACHINE)</tspan></text>
    <text
       id="text193"
       xml:space="preserve"
       transform="matrix(0.08,0,0,0.08,173.06667,135.81333)"><tspan
         id="tspan193"
         style="font-variant:normal;font-weight:normal;font-size:36.155px;font-family:Arial;writing-mode:lr-tb;fill:#000000;fill-opacity:1;fill-rule:nonzero;stroke:none"
         x="0"
         y="0">IN:</tspan></text>
    <text
       id="text194"
       xml:space="preserve"
       transform="matrix(0.08,0,0,0.08,176.74667,135.81333)"><tspan
         id="tspan194"
         style="font-variant:normal;font-weight:normal;font-size:36.155px;font-family:Arial;writing-mode:lr-tb;fill:#000000;fill-opacity:1;fill-rule:nonzero;stroke:none"
         x="0"
         y="0">35</tspan></text>
    <text
       id="text195"
       xml:space="preserve"
       transform="matrix(0.08,0,0,0.08,179.94667,135.81333)"><tspan
         id="tspan195"
         style="font-variant:normal;font-weight:normal;font-size:36.155px;font-family:Arial;writing-mode:lr-tb;fill:#000000;fill-opacity:1;fill-rule:nonzero;stroke:none"
         x="0"
         y="0"> OUT:</tspan></text>
    <text
       id="text196"
       xml:space="preserve"
       transform="matrix(0.08,0,0,0.08,187.70667,135.81333)"><tspan
         id="tspan196"
         style="font-variant:normal;font-weight:normal;font-size:36.155px;font-family:Arial;writing-mode:lr-tb;fill:#000000;fill-opacity:1;fill-rule:nonzero;stroke:none"
         x="0"
         y="0">35</tspan></text>
    <path
       id="path196"
       d="M 8546,11999 V 10983"
       style="fill:none;stroke:#000000;stroke-width:4;stroke-linecap:round;stroke-linejoin:round;stroke-miterlimit:10;stroke-dasharray:none;stroke-opacity:1"
       transform="matrix(0,-0.08,-0.08,0,1122.6667,793.33333)" />
    <text
       id="text197"
       xml:space="preserve"
       transform="matrix(0.08,0,0,0.08,157.38667,100.37333)"><tspan
         id="tspan197"
         style="font-variant:normal;font-weight:normal;font-size:36.155px;font-family:Arial;writing-mode:lr-tb;fill:#000000;fill-opacity:1;fill-rule:nonzero;stroke:none"
         x="0"
         y="0">FWP</tspan></text>
    <path
       id="path197"
       d="m 8560,11791 -21,-16 15,22 z"
       style="fill:#000000;fill-opacity:1;fill-rule:nonzero;stroke:#000000;stroke-width:1;stroke-linecap:round;stroke-linejoin:miter;stroke-miterlimit:10;stroke-dasharray:none;stroke-opacity:1"
       transform="matrix(0,-0.08,-0.08,0,1122.6667,793.33333)" />
    <path
       id="path198"
       d="m 8557,11794 118,128 v 39"
       style="fill:none;stroke:#000000;stroke-width:12;stroke-linecap:round;stroke-linejoin:round;stroke-miterlimit:10;stroke-dasharray:none;stroke-opacity:1"
       transform="matrix(0,-0.08,-0.08,0,1122.6667,793.33333)" />
    <path
       id="path199"
       d="M 12.5,0 C 12.5,6.90356 6.90356,12.5 0,12.5 -6.90356,12.5 -12.5,6.90356 -12.5,0 c 0,-6.90356 5.59644,-12.5 12.5,-12.5 6.90356,0 12.5,5.59644 12.5,12.5"
       style="fill:none;stroke:#ff0000;stroke-width:12;stroke-linecap:round;stroke-linejoin:round;stroke-miterlimit:10;stroke-dasharray:none;stroke-opacity:1"
       transform="matrix(0.08,0,0,-0.08,180.62667,110.17333)" />
    <path
       id="path200"
       d="m 8521,11794 37,-37"
       style="fill:none;stroke:#ff0000;stroke-width:12;stroke-linecap:round;stroke-linejoin:round;stroke-miterlimit:10;stroke-dasharray:none;stroke-opacity:1"
       transform="matrix(0,-0.08,-0.08,0,1122.6667,793.33333)" />
    <path
       id="path201"
       d="m 8521,11757 37,37"
       style="fill:none;stroke:#ff0000;stroke-width:12;stroke-linecap:round;stroke-linejoin:round;stroke-miterlimit:10;stroke-dasharray:none;stroke-opacity:1"
       transform="matrix(0,-0.08,-0.08,0,1122.6667,793.33333)" />
  </g>
  <g
     id="layer-oc3"
     transform="translate(-116.58672,-98.302895)">
    <path
       id="path1179"
       d="M 9,31 H 9889 V 14013 H 9"
       style="fill:none;stroke:#000000;stroke-width:1;stroke-linecap:round;stroke-linejoin:round;stroke-miterlimit:10;stroke-dasharray:none;stroke-opacity:1"
       transform="matrix(0,-0.08,-0.08,0,1122.6667,793.33333)" />
  </g>
</svg>
